<?xml version="1.0" encoding="utf-8"?>
<!-- Generator: Adobe Illustrator 27.5.0, SVG Export Plug-In . SVG Version: 6.00 Build 0)  -->
<svg version="1.1" xmlns="http://www.w3.org/2000/svg" xmlns:xlink="http://www.w3.org/1999/xlink" x="0px" y="0px"
	 viewBox="0 0 750 500" style="enable-background:new 0 0 750 500;" xml:space="preserve">
<g id="BACKGROUND">
	<rect style="fill:#191F2F;" width="750" height="500"/>
</g>
<g id="OBJECTS">
	<g>
		<defs>
			<rect id="SVGID_1_" width="750" height="500"/>
		</defs>
		<clipPath id="SVGID_00000046306383703316903620000011283191333266660759_">
			<use xlink:href="#SVGID_1_"  style="overflow:visible;"/>
		</clipPath>
		<g style="clip-path:url(#SVGID_00000046306383703316903620000011283191333266660759_);">
			<circle style="fill:#273147;" cx="658.019" cy="214.249" r="95.62"/>
			<path style="fill:#273B70;" d="M515.592,114.849h52.988v52.988h-52.988V114.849 M488.481,87.738v107.209h107.209V87.738H488.481
				L488.481,87.738z"/>
			<polygon style="fill:#273147;" points="352.027,-76.815 244.1,31.113 288.194,75.207 352.027,139.04 415.861,75.207 
				459.955,31.113 			"/>
			<polygon style="fill:#273147;" points="416.177,411.715 416.177,549.347 478.535,549.347 568.81,549.347 568.809,459.073 
				568.809,411.715 			"/>
			<path style="fill:none;stroke:#7462D1;stroke-width:2;stroke-miterlimit:10;" d="M763.963,7.181L630.655,128.04
				c-5.545,5.032-14.119,4.617-19.151-0.928v0c-5.032-5.545-4.617-14.119,0.928-19.151L745.74-12.898
				c5.545-5.032,14.119-4.617,19.151,0.928l0,0C769.923-6.425,769.507,2.149,763.963,7.181z"/>
			<path style="fill:#DD6547;" d="M940.436,17.915L743.243,196.88c-7.398,6.714-18.837,6.159-25.55-1.238v0
				c-6.714-7.397-6.159-18.837,1.238-25.55L916.124-8.874c7.397-6.714,18.837-6.159,25.55,1.238l0,0
				C948.388-0.238,947.834,11.201,940.436,17.915z"/>
			<path style="fill:#FFFFFF;" d="M639.386,205.71l-88.62,78.266c-3.324,2.936-8.4,2.621-11.336-0.703h0
				c-2.936-3.324-2.621-8.4,0.703-11.336l88.62-78.266c3.324-2.936,8.4-2.621,11.336,0.703l0,0
				C643.025,197.699,642.71,202.774,639.386,205.71z"/>
			<path style="fill:none;stroke:#E7A43F;stroke-width:2;stroke-miterlimit:10;" d="M701.77,264.66L493.045,455.257
				c-9.127,8.283-23.241,7.599-31.524-1.528l0,0c-8.283-9.127-7.599-23.241,1.527-31.524l208.725-190.597
				c9.127-8.283,23.241-7.599,31.524,1.528l0,0C711.581,242.263,710.897,256.377,701.77,264.66z"/>
			<g>
				<g>
					<g>
						<path style="fill:#273147;" d="M201.31,469.211c-47.967-4.178-83.591-46.6-79.413-94.568
							c4.178-47.967,46.6-83.591,94.568-79.414c47.966,4.178,83.59,46.6,79.412,94.568
							C291.698,437.764,249.276,473.388,201.31,469.211z M213.77,326.16c-30.913-2.693-58.251,20.265-60.944,51.177
							c-2.693,30.912,20.265,58.251,51.178,60.944c30.911,2.692,58.249-20.265,60.942-51.178
							C267.639,356.19,244.681,328.852,213.77,326.16z"/>
					</g>
				</g>
			</g>
			<path style="fill:#273147;" d="M0.029,97.494H0v147.648h147.677v0C147.677,163.598,81.573,97.494,0.029,97.494z"/>
			<g>
				
					<ellipse transform="matrix(0.7071 -0.7071 0.7071 0.7071 -146.0321 630.3765)" style="fill:none;stroke:#FFFFFF;stroke-width:2;stroke-miterlimit:10;" cx="687.916" cy="491.465" rx="80.032" ry="80.032"/>
				
					<ellipse transform="matrix(0.9732 -0.2298 0.2298 0.9732 -94.5131 171.198)" style="fill:none;stroke:#FFFFFF;stroke-width:2;stroke-miterlimit:10;" cx="687.916" cy="491.465" rx="52.82" ry="52.82"/>
				
					<ellipse transform="matrix(0.7071 -0.7071 0.7071 0.7071 -146.0321 630.3765)" style="fill:none;stroke:#FFFFFF;stroke-width:2;stroke-miterlimit:10;" cx="687.916" cy="491.465" rx="25.608" ry="25.608"/>
			</g>
			<path style="fill:#DD6547;" d="M366.509,426.258l-168.991,153.37c-6.34,5.753-16.143,5.278-21.896-1.061l0,0
				c-5.754-6.339-5.278-16.143,1.061-21.896l168.991-153.37c6.34-5.753,16.143-5.278,21.896,1.061l0,0
				C373.323,410.702,372.848,420.505,366.509,426.258z"/>
			<path style="fill:#D335CE;" d="M640.893,450.142l-141.93,128.81c-5.324,4.832-13.558,4.433-18.39-0.891v0
				c-4.832-5.324-4.433-13.558,0.891-18.39l141.93-128.81c5.324-4.832,13.558-4.433,18.39,0.891l0,0
				C646.617,437.077,646.218,445.31,640.893,450.142z"/>
			<path style="fill:#D335CE;" d="M495.945-26.191L313.06,139.017c-5.324,4.832-13.558,4.433-18.39-0.891l0,0
				c-4.832-5.324-4.433-13.558,0.891-18.39L478.447-45.472c5.324-4.832,13.558-4.433,18.39,0.891l0,0
				C501.669-39.257,501.27-31.023,495.945-26.191z"/>
			<g>
				<g>
					<polygon style="fill:#7462D1;" points="686.074,343.262 678.924,350.412 678.924,340.3 672.349,340.3 672.349,350.412 
						665.199,343.262 660.55,347.91 667.701,355.061 657.588,355.061 657.588,361.635 667.701,361.635 660.55,368.785 
						665.199,373.434 672.349,366.284 672.349,376.396 678.924,376.396 678.924,366.284 686.074,373.434 690.723,368.785 
						683.572,361.635 693.684,361.635 693.684,355.061 683.572,355.061 690.723,347.91 					"/>
				</g>
				<g>
					<polygon style="fill:#7462D1;" points="723.436,305.899 716.286,313.05 716.286,302.938 709.711,302.938 709.712,313.05 
						702.561,305.899 697.912,310.548 705.063,317.698 694.951,317.698 694.951,324.273 705.063,324.273 697.912,331.423 
						702.561,336.072 709.712,328.922 709.712,339.034 716.286,339.034 716.286,328.922 723.436,336.072 728.085,331.423 
						720.935,324.273 731.047,324.273 731.047,317.698 720.935,317.698 728.085,310.548 					"/>
				</g>
				<g>
					<polygon style="fill:#7462D1;" points="760.799,268.537 753.648,275.687 753.648,265.575 747.074,265.575 747.074,275.688 
						739.924,268.537 735.275,273.186 742.425,280.336 732.313,280.336 732.313,286.911 742.425,286.911 735.275,294.061 
						739.924,298.71 747.074,291.559 747.074,301.671 753.648,301.671 753.648,291.559 760.798,298.71 765.447,294.061 
						758.297,286.911 768.409,286.911 768.409,280.336 758.297,280.336 765.447,273.186 					"/>
				</g>
			</g>
			<path style="fill:#273B70;" d="M128.541,75.567c-27.365,0-49.549,22.183-49.549,49.549c0,27.365,22.184,49.549,49.549,49.549
				c27.365,0,49.549-22.184,49.549-49.549C178.09,97.75,155.906,75.567,128.541,75.567z M128.541,147.574
				c-12.404,0-22.459-10.055-22.459-22.459c0-12.404,10.055-22.459,22.459-22.459c12.404,0,22.459,10.055,22.459,22.459
				C151,137.519,140.945,147.574,128.541,147.574z"/>
			<path style="fill:#273B70;" d="M96.442,404.688V511.56h0.021c59.024,0,106.872-47.848,106.872-106.872v0H96.442z"/>
			<g>
				<polygon style="fill:none;stroke:#D335CE;stroke-miterlimit:10;" points="322.856,348.11 311.565,359.4 311.565,343.433 
					301.184,343.433 301.184,359.4 289.893,348.11 282.553,355.45 293.843,366.741 277.876,366.741 277.876,377.122 
					293.843,377.122 282.553,388.413 289.893,395.753 301.184,384.463 301.184,400.43 311.565,400.43 311.565,384.463 
					322.856,395.753 330.196,388.413 318.906,377.122 334.873,377.122 334.873,366.741 318.906,366.741 330.196,355.45 				"/>
			</g>
			<g>
				<g>
					<g>
						<path style="fill:none;stroke:#DD6547;stroke-miterlimit:10;" d="M516.353,13.97c8.894,0.215,17.568,2.917,25.174,7.943
							c10.684,7.059,17.98,17.857,20.542,30.403c2.564,12.546,0.088,25.34-6.972,36.024c-7.058,10.684-17.857,17.98-30.402,20.543
							c-25.897,5.293-51.275-11.476-56.567-37.375l12.931-2.642c3.835,18.77,22.226,30.916,40.994,27.086
							c9.092-1.858,16.917-7.145,22.033-14.887c5.115-7.743,6.909-17.014,5.052-26.106c-1.857-9.093-7.145-16.917-14.887-22.033
							c-7.743-5.115-17.014-6.908-26.107-5.052l-2.642-12.931C509.117,14.203,512.754,13.883,516.353,13.97z"/>
					</g>
				</g>
			</g>
			<path style="fill:#7462D1;" d="M162.539,245.32L-49.085,437.567c-11.299,10.254-28.771,9.407-39.025-1.891l0,0
				c-10.254-11.299-9.407-28.77,1.891-39.025l211.624-192.247c11.299-10.254,28.77-9.408,39.025,1.891l0,0
				C174.684,217.594,173.837,235.066,162.539,245.32z"/>
			<path style="fill:none;stroke:#E7A43F;stroke-width:2;stroke-miterlimit:10;" d="M169.488,450.142l-141.93,128.81
				c-5.324,4.832-13.558,4.433-18.39-0.891v0c-4.832-5.324-4.433-13.558,0.891-18.39l141.93-128.81
				c5.324-4.832,13.558-4.433,18.39,0.891l0,0C175.211,437.077,174.812,445.31,169.488,450.142z"/>
			<g>
				<g>
					<polygon style="fill:#FFFFFF;" points="44.83,220.899 38.628,227.102 38.628,218.329 32.924,218.329 32.924,227.102 
						26.722,220.899 22.689,224.932 28.892,231.134 20.119,231.134 20.119,236.837 28.892,236.837 22.689,243.04 26.722,247.073 
						32.924,240.87 32.924,249.642 38.628,249.642 38.628,240.87 44.83,247.073 48.863,243.04 42.66,236.837 51.433,236.837 
						51.433,231.134 42.66,231.134 48.863,224.931 					"/>
				</g>
				<g>
					<polygon style="fill:#FFFFFF;" points="77.242,188.487 71.039,194.69 71.039,185.918 65.336,185.918 65.336,194.69 
						59.133,188.487 55.1,192.52 61.303,198.723 52.531,198.723 52.531,204.426 61.303,204.426 55.1,210.629 59.133,214.662 
						65.336,208.459 65.336,217.231 71.039,217.231 71.039,208.459 77.242,214.662 81.275,210.629 75.072,204.426 83.844,204.426 
						83.844,198.723 75.072,198.723 81.275,192.52 					"/>
				</g>
				<g>
					<polygon style="fill:#FFFFFF;" points="109.653,156.076 103.451,162.279 103.451,153.506 97.747,153.506 97.747,162.279 
						91.545,156.076 87.512,160.109 93.715,166.311 84.942,166.311 84.942,172.014 93.715,172.014 87.512,178.217 91.545,182.25 
						97.747,176.047 97.747,184.819 103.451,184.819 103.451,176.047 109.653,182.25 113.686,178.217 107.483,172.014 
						116.256,172.014 116.256,166.311 107.483,166.311 113.686,160.108 					"/>
				</g>
			</g>
			<g>
				<g>
					<g>
						<path style="fill:#E7A43F;" d="M114.476,334.78c-1.352,7.016-4.645,13.528-9.637,18.886
							c-7.012,7.525-16.534,11.869-26.812,12.232c-10.279,0.364-20.084-3.298-27.609-10.309
							c-7.525-7.011-11.869-16.534-12.233-26.812c-0.752-21.217,15.904-39.092,37.122-39.842l0.374,10.594
							c-15.378,0.544-27.443,13.497-26.902,28.873c0.264,7.449,3.412,14.35,8.865,19.431c5.453,5.081,12.559,7.734,20.008,7.471
							c7.449-0.263,14.35-3.412,19.431-8.865c5.081-5.453,7.733-12.559,7.471-20.008l10.594-0.374
							C115.252,329.017,115.023,331.94,114.476,334.78z"/>
					</g>
				</g>
			</g>
			<path style="fill:none;stroke:#7462D1;stroke-width:2;stroke-miterlimit:10;" d="M235.338-52.101L38.145,126.864
				c-7.397,6.714-18.837,6.159-25.55-1.238l0,0c-6.714-7.397-6.159-18.837,1.238-25.55L211.026-78.89
				c7.397-6.714,18.837-6.159,25.55,1.238l0,0C243.29-70.254,242.736-58.815,235.338-52.101z"/>
			<g>
				<circle style="fill:none;stroke:#FFFFFF;stroke-width:2;stroke-miterlimit:10;" cx="258.065" cy="27.76" r="62.254"/>
				<circle style="fill:none;stroke:#FFFFFF;stroke-width:2;stroke-miterlimit:10;" cx="258.065" cy="27.76" r="41.087"/>
				
					<ellipse transform="matrix(0.3713 -0.9285 0.9285 0.3713 136.4655 257.0667)" style="fill:none;stroke:#FFFFFF;stroke-width:2;stroke-miterlimit:10;" cx="258.065" cy="27.76" rx="19.92" ry="19.919"/>
			</g>
			<g>
				<g>
					
						<rect x="398.552" y="148.729" transform="matrix(0.7071 -0.7071 0.7071 0.7071 14.1947 333.2249)" style="fill:#FFFFFF;" width="21.513" height="1.5"/>
				</g>
				<g>
					
						<rect x="411.813" y="148.729" transform="matrix(0.7071 -0.7071 0.7071 0.7071 18.07 342.583)" style="fill:#FFFFFF;" width="21.513" height="1.5"/>
				</g>
				<g>
					
						<rect x="425.075" y="148.729" transform="matrix(0.7071 -0.7071 0.7071 0.7071 21.9543 351.9604)" style="fill:#FFFFFF;" width="21.513" height="1.5"/>
				</g>
				<g>
					
						<rect x="438.335" y="148.729" transform="matrix(0.7071 -0.7071 0.7071 0.7071 25.8483 361.3571)" style="fill:#FFFFFF;" width="21.513" height="1.5"/>
				</g>
				<g>
					
						<rect x="451.597" y="148.729" transform="matrix(0.7071 -0.7071 0.7071 0.7071 29.7224 370.7143)" style="fill:#FFFFFF;" width="21.512" height="1.5"/>
				</g>
				<g>
					
						<rect x="464.858" y="148.729" transform="matrix(0.7071 -0.7071 0.7071 0.7071 33.6065 380.0914)" style="fill:#FFFFFF;" width="21.513" height="1.5"/>
				</g>
				<g>
					
						<rect x="478.119" y="148.729" transform="matrix(0.7071 -0.7071 0.7071 0.7071 37.5018 389.4895)" style="fill:#FFFFFF;" width="21.513" height="1.5"/>
				</g>
			</g>
			<g>
				<g>
					
						<rect x="575.832" y="18.111" transform="matrix(0.7071 -0.7071 0.7071 0.7071 158.4898 420.3253)" style="fill:#D335CE;" width="21.513" height="1.5"/>
				</g>
				<g>
					
						<rect x="589.093" y="18.111" transform="matrix(0.7071 -0.7071 0.7071 0.7071 162.3742 429.7025)" style="fill:#D335CE;" width="21.513" height="1.5"/>
				</g>
				<g>
					
						<rect x="602.355" y="18.111" transform="matrix(0.7071 -0.7071 0.7071 0.7071 166.2391 439.0593)" style="fill:#D335CE;" width="21.513" height="1.5"/>
				</g>
				<g>
					
						<rect x="615.615" y="18.111" transform="matrix(0.7071 -0.7071 0.7071 0.7071 170.1433 448.4576)" style="fill:#D335CE;" width="21.513" height="1.5"/>
				</g>
				<g>
					
						<rect x="628.877" y="18.111" transform="matrix(0.7071 -0.7071 0.7071 0.7071 174.0279 457.8351)" style="fill:#D335CE;" width="21.512" height="1.5"/>
				</g>
				<g>
					
						<rect x="642.138" y="18.111" transform="matrix(0.7071 -0.7071 0.7071 0.7071 177.8913 467.1903)" style="fill:#D335CE;" width="21.513" height="1.5"/>
				</g>
				<g>
					
						<rect x="655.398" y="18.111" transform="matrix(0.7071 -0.7071 0.7071 0.7071 181.7969 476.5899)" style="fill:#D335CE;" width="21.513" height="1.5"/>
				</g>
			</g>
			<g>
				<g>
					
						<rect x="16.153" y="439.944" transform="matrix(0.7071 -0.7071 0.7071 0.7071 -303.7361 148.104)" style="fill:#DD6547;" width="21.513" height="1.5"/>
				</g>
				<g>
					
						<rect x="29.414" y="439.944" transform="matrix(0.7071 -0.7071 0.7071 0.7071 -299.8654 157.4968)" style="fill:#DD6547;" width="21.513" height="1.5"/>
				</g>
				<g>
					
						<rect x="42.675" y="439.944" transform="matrix(0.7071 -0.7071 0.7071 0.7071 -295.9807 166.8747)" style="fill:#DD6547;" width="21.513" height="1.5"/>
				</g>
				<g>
					
						<rect x="55.936" y="439.944" transform="matrix(0.7071 -0.7071 0.7071 0.7071 -292.0839 176.235)" style="fill:#DD6547;" width="21.513" height="1.5"/>
				</g>
				<g>
					
						<rect x="69.198" y="439.944" transform="matrix(0.7071 -0.7071 0.7071 0.7071 -288.2098 185.6267)" style="fill:#DD6547;" width="21.512" height="1.5"/>
				</g>
				<g>
					
						<rect x="82.459" y="439.944" transform="matrix(0.7071 -0.7071 0.7071 0.7071 -284.3156 194.9892)" style="fill:#DD6547;" width="21.513" height="1.5"/>
				</g>
				<g>
					
						<rect x="95.719" y="439.944" transform="matrix(0.7071 -0.7071 0.7071 0.7071 -280.4335 204.369)" style="fill:#DD6547;" width="21.513" height="1.5"/>
				</g>
			</g>
			<g>
				<path style="fill:#FFFFFF;" d="M43.875,26.559c0,1.101,0.892,1.993,1.993,1.993c1.101,0,1.993-0.892,1.993-1.993
					c0-1.101-0.892-1.993-1.993-1.993C44.767,24.566,43.875,25.459,43.875,26.559z"/>
				<path style="fill:#FFFFFF;" d="M24.231,26.559c0,1.101,0.892,1.993,1.993,1.993s1.993-0.892,1.993-1.993
					c0-1.101-0.892-1.993-1.993-1.993S24.231,25.459,24.231,26.559z"/>
				<path style="fill:#FFFFFF;" d="M4.588,26.559c0,1.101,0.892,1.993,1.993,1.993c1.101,0,1.993-0.892,1.993-1.993
					c0-1.101-0.892-1.993-1.993-1.993C5.48,24.566,4.588,25.459,4.588,26.559z"/>
				<path style="fill:#FFFFFF;" d="M-15.056,26.559c0,1.101,0.892,1.993,1.993,1.993c1.101,0,1.993-0.892,1.993-1.993
					c0-1.101-0.892-1.993-1.993-1.993C-14.164,24.566-15.056,25.459-15.056,26.559z"/>
				<path style="fill:#FFFFFF;" d="M-34.7,26.559c0,1.101,0.892,1.993,1.993,1.993c1.101,0,1.993-0.892,1.993-1.993
					c0-1.101-0.892-1.993-1.993-1.993C-33.807,24.566-34.7,25.459-34.7,26.559z"/>
				<path style="fill:#FFFFFF;" d="M43.875,44.779c0,1.101,0.892,1.993,1.993,1.993c1.101,0,1.993-0.892,1.993-1.993
					c0-1.101-0.892-1.993-1.993-1.993C44.767,42.787,43.875,43.679,43.875,44.779z"/>
				<path style="fill:#FFFFFF;" d="M24.231,44.779c0,1.101,0.892,1.993,1.993,1.993s1.993-0.892,1.993-1.993
					c0-1.101-0.892-1.993-1.993-1.993S24.231,43.679,24.231,44.779z"/>
				<path style="fill:#FFFFFF;" d="M4.588,44.779c0,1.101,0.892,1.993,1.993,1.993c1.101,0,1.993-0.892,1.993-1.993
					c0-1.101-0.892-1.993-1.993-1.993C5.48,42.787,4.588,43.679,4.588,44.779z"/>
				<path style="fill:#FFFFFF;" d="M-15.056,44.779c0,1.101,0.892,1.993,1.993,1.993c1.101,0,1.993-0.892,1.993-1.993
					c0-1.101-0.892-1.993-1.993-1.993C-14.164,42.787-15.056,43.679-15.056,44.779z"/>
				<path style="fill:#FFFFFF;" d="M-34.7,44.779c0,1.101,0.892,1.993,1.993,1.993c1.101,0,1.993-0.892,1.993-1.993
					c0-1.101-0.892-1.993-1.993-1.993C-33.807,42.787-34.7,43.679-34.7,44.779z"/>
				<path style="fill:#FFFFFF;" d="M43.875,63c0,1.101,0.892,1.993,1.993,1.993c1.101,0,1.993-0.892,1.993-1.993
					c0-1.101-0.892-1.993-1.993-1.993C44.767,61.007,43.875,61.899,43.875,63z"/>
				<path style="fill:#FFFFFF;" d="M24.231,63c0,1.101,0.892,1.993,1.993,1.993S28.217,64.1,28.217,63
					c0-1.101-0.892-1.993-1.993-1.993S24.231,61.899,24.231,63z"/>
				<path style="fill:#FFFFFF;" d="M4.588,63c0,1.101,0.892,1.993,1.993,1.993c1.101,0,1.993-0.892,1.993-1.993
					c0-1.101-0.892-1.993-1.993-1.993C5.48,61.007,4.588,61.899,4.588,63z"/>
				<path style="fill:#FFFFFF;" d="M-15.056,63c0,1.101,0.892,1.993,1.993,1.993c1.101,0,1.993-0.892,1.993-1.993
					c0-1.101-0.892-1.993-1.993-1.993C-14.164,61.007-15.056,61.899-15.056,63z"/>
				<path style="fill:#FFFFFF;" d="M-34.7,63c0,1.101,0.892,1.993,1.993,1.993c1.101,0,1.993-0.892,1.993-1.993
					c0-1.101-0.892-1.993-1.993-1.993C-33.807,61.007-34.7,61.899-34.7,63z"/>
				<path style="fill:#FFFFFF;" d="M43.875,81.22c0,1.101,0.892,1.993,1.993,1.993c1.101,0,1.993-0.892,1.993-1.993
					s-0.892-1.993-1.993-1.993C44.767,79.227,43.875,80.119,43.875,81.22z"/>
				<path style="fill:#FFFFFF;" d="M24.231,81.22c0,1.101,0.892,1.993,1.993,1.993s1.993-0.892,1.993-1.993
					s-0.892-1.993-1.993-1.993S24.231,80.119,24.231,81.22z"/>
				<path style="fill:#FFFFFF;" d="M4.588,81.22c0,1.101,0.892,1.993,1.993,1.993c1.101,0,1.993-0.892,1.993-1.993
					s-0.892-1.993-1.993-1.993C5.48,79.227,4.588,80.119,4.588,81.22z"/>
				<path style="fill:#FFFFFF;" d="M-15.056,81.22c0,1.101,0.892,1.993,1.993,1.993c1.101,0,1.993-0.892,1.993-1.993
					s-0.892-1.993-1.993-1.993C-14.164,79.227-15.056,80.119-15.056,81.22z"/>
				<path style="fill:#FFFFFF;" d="M-34.7,81.22c0,1.101,0.892,1.993,1.993,1.993c1.101,0,1.993-0.892,1.993-1.993
					s-0.892-1.993-1.993-1.993C-33.807,79.227-34.7,80.119-34.7,81.22z"/>
				<path style="fill:#FFFFFF;" d="M43.875,99.44c0,1.101,0.892,1.993,1.993,1.993c1.101,0,1.993-0.892,1.993-1.993
					s-0.892-1.993-1.993-1.993C44.767,97.447,43.875,98.34,43.875,99.44z"/>
				<path style="fill:#FFFFFF;" d="M24.231,99.44c0,1.101,0.892,1.993,1.993,1.993s1.993-0.892,1.993-1.993
					s-0.892-1.993-1.993-1.993S24.231,98.34,24.231,99.44z"/>
				<path style="fill:#FFFFFF;" d="M4.588,99.44c0,1.101,0.892,1.993,1.993,1.993c1.101,0,1.993-0.892,1.993-1.993
					s-0.892-1.993-1.993-1.993C5.48,97.447,4.588,98.34,4.588,99.44z"/>
				<circle style="fill:#FFFFFF;" cx="-13.063" cy="99.44" r="1.993"/>
				<path style="fill:#FFFFFF;" d="M-34.7,99.44c0,1.101,0.892,1.993,1.993,1.993c1.101,0,1.993-0.892,1.993-1.993
					s-0.892-1.993-1.993-1.993C-33.807,97.447-34.7,98.34-34.7,99.44z"/>
			</g>
			<g>
				<path style="fill:#FFFFFF;" d="M774.27,88.675c0,1.101,0.892,1.993,1.993,1.993s1.993-0.892,1.993-1.993
					c0-1.101-0.892-1.993-1.993-1.993S774.27,87.574,774.27,88.675z"/>
				<path style="fill:#FFFFFF;" d="M754.626,88.675c0,1.101,0.892,1.993,1.993,1.993c1.101,0,1.993-0.892,1.993-1.993
					c0-1.101-0.892-1.993-1.993-1.993C755.518,86.682,754.626,87.574,754.626,88.675z"/>
				<path style="fill:#FFFFFF;" d="M734.983,88.675c0,1.101,0.892,1.993,1.993,1.993c1.101,0,1.993-0.892,1.993-1.993
					c0-1.101-0.892-1.993-1.993-1.993C735.875,86.682,734.983,87.574,734.983,88.675z"/>
				<path style="fill:#FFFFFF;" d="M715.339,88.675c0,1.101,0.892,1.993,1.993,1.993s1.993-0.892,1.993-1.993
					c0-1.101-0.892-1.993-1.993-1.993S715.339,87.574,715.339,88.675z"/>
				<path style="fill:#FFFFFF;" d="M695.695,88.675c0,1.101,0.892,1.993,1.993,1.993c1.101,0,1.993-0.892,1.993-1.993
					c0-1.101-0.892-1.993-1.993-1.993C696.588,86.682,695.695,87.574,695.695,88.675z"/>
				<path style="fill:#FFFFFF;" d="M774.27,106.895c0,1.101,0.892,1.993,1.993,1.993s1.993-0.892,1.993-1.993
					c0-1.101-0.892-1.993-1.993-1.993S774.27,105.795,774.27,106.895z"/>
				<path style="fill:#FFFFFF;" d="M754.626,106.895c0,1.101,0.892,1.993,1.993,1.993c1.101,0,1.993-0.892,1.993-1.993
					c0-1.101-0.892-1.993-1.993-1.993C755.518,104.902,754.626,105.795,754.626,106.895z"/>
				<path style="fill:#FFFFFF;" d="M734.983,106.895c0,1.101,0.892,1.993,1.993,1.993c1.101,0,1.993-0.892,1.993-1.993
					c0-1.101-0.892-1.993-1.993-1.993C735.875,104.902,734.983,105.795,734.983,106.895z"/>
				<path style="fill:#FFFFFF;" d="M715.339,106.895c0,1.101,0.892,1.993,1.993,1.993s1.993-0.892,1.993-1.993
					c0-1.101-0.892-1.993-1.993-1.993S715.339,105.795,715.339,106.895z"/>
				<path style="fill:#FFFFFF;" d="M695.695,106.895c0,1.101,0.892,1.993,1.993,1.993c1.101,0,1.993-0.892,1.993-1.993
					c0-1.101-0.892-1.993-1.993-1.993C696.588,104.902,695.695,105.795,695.695,106.895z"/>
				<path style="fill:#FFFFFF;" d="M774.27,125.115c0,1.101,0.892,1.993,1.993,1.993s1.993-0.892,1.993-1.993
					s-0.892-1.993-1.993-1.993S774.27,124.015,774.27,125.115z"/>
				<path style="fill:#FFFFFF;" d="M754.626,125.115c0,1.101,0.892,1.993,1.993,1.993c1.101,0,1.993-0.892,1.993-1.993
					s-0.892-1.993-1.993-1.993C755.518,123.123,754.626,124.015,754.626,125.115z"/>
				<path style="fill:#FFFFFF;" d="M734.983,125.115c0,1.101,0.892,1.993,1.993,1.993c1.101,0,1.993-0.892,1.993-1.993
					s-0.892-1.993-1.993-1.993C735.875,123.123,734.983,124.015,734.983,125.115z"/>
				<path style="fill:#FFFFFF;" d="M715.339,125.115c0,1.101,0.892,1.993,1.993,1.993s1.993-0.892,1.993-1.993
					s-0.892-1.993-1.993-1.993S715.339,124.015,715.339,125.115z"/>
				<path style="fill:#FFFFFF;" d="M695.695,125.115c0,1.101,0.892,1.993,1.993,1.993c1.101,0,1.993-0.892,1.993-1.993
					s-0.892-1.993-1.993-1.993C696.588,123.123,695.695,124.015,695.695,125.115z"/>
				<path style="fill:#FFFFFF;" d="M774.27,143.336c0,1.101,0.892,1.993,1.993,1.993s1.993-0.892,1.993-1.993
					s-0.892-1.993-1.993-1.993S774.27,142.235,774.27,143.336z"/>
				<path style="fill:#FFFFFF;" d="M754.626,143.336c0,1.101,0.892,1.993,1.993,1.993c1.101,0,1.993-0.892,1.993-1.993
					s-0.892-1.993-1.993-1.993C755.518,141.343,754.626,142.235,754.626,143.336z"/>
				<path style="fill:#FFFFFF;" d="M734.983,143.336c0,1.101,0.892,1.993,1.993,1.993c1.101,0,1.993-0.892,1.993-1.993
					s-0.892-1.993-1.993-1.993C735.875,141.343,734.983,142.235,734.983,143.336z"/>
				<path style="fill:#FFFFFF;" d="M715.339,143.336c0,1.101,0.892,1.993,1.993,1.993s1.993-0.892,1.993-1.993
					s-0.892-1.993-1.993-1.993S715.339,142.235,715.339,143.336z"/>
				<path style="fill:#FFFFFF;" d="M695.695,143.336c0,1.101,0.892,1.993,1.993,1.993c1.101,0,1.993-0.892,1.993-1.993
					s-0.892-1.993-1.993-1.993C696.588,141.343,695.695,142.235,695.695,143.336z"/>
				<path style="fill:#FFFFFF;" d="M774.27,161.556c0,1.101,0.892,1.993,1.993,1.993s1.993-0.892,1.993-1.993
					s-0.892-1.993-1.993-1.993S774.27,160.455,774.27,161.556z"/>
				<path style="fill:#FFFFFF;" d="M754.626,161.556c0,1.101,0.892,1.993,1.993,1.993c1.101,0,1.993-0.892,1.993-1.993
					s-0.892-1.993-1.993-1.993C755.518,159.563,754.626,160.455,754.626,161.556z"/>
				<path style="fill:#FFFFFF;" d="M734.983,161.556c0,1.101,0.892,1.993,1.993,1.993c1.101,0,1.993-0.892,1.993-1.993
					s-0.892-1.993-1.993-1.993C735.875,159.563,734.983,160.455,734.983,161.556z"/>
				<circle style="fill:#FFFFFF;" cx="717.332" cy="161.556" r="1.993"/>
				<path style="fill:#FFFFFF;" d="M695.695,161.556c0,1.101,0.892,1.993,1.993,1.993c1.101,0,1.993-0.892,1.993-1.993
					s-0.892-1.993-1.993-1.993C696.588,159.563,695.695,160.455,695.695,161.556z"/>
			</g>
			<g>
				<path style="fill:#FFFFFF;" d="M422.919,476.086c0,1.101,0.892,1.993,1.993,1.993c1.101,0,1.993-0.892,1.993-1.993
					c0-1.101-0.892-1.993-1.993-1.993C423.811,474.094,422.919,474.986,422.919,476.086z"/>
				<path style="fill:#FFFFFF;" d="M403.275,476.086c0,1.101,0.892,1.993,1.993,1.993c1.101,0,1.993-0.892,1.993-1.993
					c0-1.101-0.892-1.993-1.993-1.993C404.167,474.094,403.275,474.986,403.275,476.086z"/>
				<circle style="fill:#FFFFFF;" cx="385.624" cy="476.086" r="1.993"/>
				<path style="fill:#FFFFFF;" d="M363.988,476.086c0,1.101,0.892,1.993,1.993,1.993c1.101,0,1.993-0.892,1.993-1.993
					c0-1.101-0.892-1.993-1.993-1.993C364.88,474.094,363.988,474.986,363.988,476.086z"/>
				<path style="fill:#FFFFFF;" d="M344.344,476.086c0,1.101,0.892,1.993,1.993,1.993c1.101,0,1.993-0.892,1.993-1.993
					c0-1.101-0.892-1.993-1.993-1.993C345.237,474.094,344.344,474.986,344.344,476.086z"/>
				<path style="fill:#FFFFFF;" d="M422.919,494.307c0,1.101,0.892,1.993,1.993,1.993c1.101,0,1.993-0.892,1.993-1.993
					c0-1.101-0.892-1.993-1.993-1.993C423.811,492.314,422.919,493.206,422.919,494.307z"/>
				<path style="fill:#FFFFFF;" d="M403.275,494.307c0,1.101,0.892,1.993,1.993,1.993c1.101,0,1.993-0.892,1.993-1.993
					c0-1.101-0.892-1.993-1.993-1.993C404.167,492.314,403.275,493.206,403.275,494.307z"/>
				<path style="fill:#FFFFFF;" d="M383.632,494.307c0,1.101,0.892,1.993,1.993,1.993c1.101,0,1.993-0.892,1.993-1.993
					c0-1.101-0.892-1.993-1.993-1.993C384.524,492.314,383.632,493.206,383.632,494.307z"/>
				<path style="fill:#FFFFFF;" d="M363.988,494.307c0,1.101,0.892,1.993,1.993,1.993c1.101,0,1.993-0.892,1.993-1.993
					c0-1.101-0.892-1.993-1.993-1.993C364.88,492.314,363.988,493.206,363.988,494.307z"/>
				<path style="fill:#FFFFFF;" d="M344.344,494.307c0,1.101,0.892,1.993,1.993,1.993c1.101,0,1.993-0.892,1.993-1.993
					c0-1.101-0.892-1.993-1.993-1.993C345.237,492.314,344.344,493.206,344.344,494.307z"/>
				<path style="fill:#FFFFFF;" d="M422.919,512.527c0,1.101,0.892,1.993,1.993,1.993c1.101,0,1.993-0.892,1.993-1.993
					s-0.892-1.993-1.993-1.993C423.811,510.534,422.919,511.426,422.919,512.527z"/>
				<path style="fill:#FFFFFF;" d="M403.275,512.527c0,1.101,0.892,1.993,1.993,1.993c1.101,0,1.993-0.892,1.993-1.993
					s-0.892-1.993-1.993-1.993C404.167,510.534,403.275,511.426,403.275,512.527z"/>
				<path style="fill:#FFFFFF;" d="M383.632,512.527c0,1.101,0.892,1.993,1.993,1.993c1.101,0,1.993-0.892,1.993-1.993
					s-0.892-1.993-1.993-1.993C384.524,510.534,383.632,511.426,383.632,512.527z"/>
				<path style="fill:#FFFFFF;" d="M363.988,512.527c0,1.101,0.892,1.993,1.993,1.993c1.101,0,1.993-0.892,1.993-1.993
					s-0.892-1.993-1.993-1.993C364.88,510.534,363.988,511.426,363.988,512.527z"/>
				<path style="fill:#FFFFFF;" d="M344.344,512.527c0,1.101,0.892,1.993,1.993,1.993c1.101,0,1.993-0.892,1.993-1.993
					s-0.892-1.993-1.993-1.993C345.237,510.534,344.344,511.426,344.344,512.527z"/>
				<path style="fill:#FFFFFF;" d="M422.919,530.747c0,1.101,0.892,1.993,1.993,1.993c1.101,0,1.993-0.892,1.993-1.993
					c0-1.101-0.892-1.993-1.993-1.993C423.811,528.754,422.919,529.646,422.919,530.747z"/>
				<path style="fill:#FFFFFF;" d="M403.275,530.747c0,1.101,0.892,1.993,1.993,1.993c1.101,0,1.993-0.892,1.993-1.993
					c0-1.101-0.892-1.993-1.993-1.993C404.167,528.754,403.275,529.646,403.275,530.747z"/>
				<path style="fill:#FFFFFF;" d="M383.632,530.747c0,1.101,0.892,1.993,1.993,1.993c1.101,0,1.993-0.892,1.993-1.993
					c0-1.101-0.892-1.993-1.993-1.993C384.524,528.754,383.632,529.646,383.632,530.747z"/>
				<path style="fill:#FFFFFF;" d="M363.988,530.747c0,1.101,0.892,1.993,1.993,1.993c1.101,0,1.993-0.892,1.993-1.993
					c0-1.101-0.892-1.993-1.993-1.993C364.88,528.754,363.988,529.646,363.988,530.747z"/>
				<path style="fill:#FFFFFF;" d="M344.344,530.747c0,1.101,0.892,1.993,1.993,1.993c1.101,0,1.993-0.892,1.993-1.993
					c0-1.101-0.892-1.993-1.993-1.993C345.237,528.754,344.344,529.646,344.344,530.747z"/>
				<path style="fill:#FFFFFF;" d="M422.919,548.967c0,1.101,0.892,1.993,1.993,1.993c1.101,0,1.993-0.892,1.993-1.993
					s-0.892-1.993-1.993-1.993C423.811,546.974,422.919,547.867,422.919,548.967z"/>
				<path style="fill:#FFFFFF;" d="M403.275,548.967c0,1.101,0.892,1.993,1.993,1.993c1.101,0,1.993-0.892,1.993-1.993
					s-0.892-1.993-1.993-1.993C404.167,546.974,403.275,547.867,403.275,548.967z"/>
				<path style="fill:#FFFFFF;" d="M383.632,548.967c0,1.101,0.892,1.993,1.993,1.993c1.101,0,1.993-0.892,1.993-1.993
					s-0.892-1.993-1.993-1.993C384.524,546.974,383.632,547.867,383.632,548.967z"/>
				<path style="fill:#FFFFFF;" d="M363.988,548.967c0,1.101,0.892,1.993,1.993,1.993c1.101,0,1.993-0.892,1.993-1.993
					s-0.892-1.993-1.993-1.993C364.88,546.974,363.988,547.867,363.988,548.967z"/>
				<path style="fill:#FFFFFF;" d="M344.344,548.967c0,1.101,0.892,1.993,1.993,1.993c1.101,0,1.993-0.892,1.993-1.993
					s-0.892-1.993-1.993-1.993C345.237,546.974,344.344,547.867,344.344,548.967z"/>
			</g>
		</g>
	</g>
</g>
</svg>
