<svg xmlns="http://www.w3.org/2000/svg" width="500" height="500"><path fill="#8bbff5" d="m195.422 196.848 2.328 2.214 2.586 2.41L203 204a827 827 0 0 0 5.375 5l2.398 2.25c4.836 3.8 10.453 2.772 16.29 2.5l3.095-.141c9.719-.504 19.341-1.575 29.002-2.714 10.621-1.242 21.267-2.25 31.91-3.281q3.822-.371 7.64-.747l2.314-.22c3.715-.367 7.325-.877 10.976-1.647 5.594-.422 10.086.334 15 3 6.367 6.032 6.438 14.694 7.125 22.938l.262 2.939q.315 3.56.613 7.123 4.969-.432 9.938-.875l3.024-.269c5.366-.488 10.714-1.034 16.059-1.713 19.381-2.465 19.381-2.465 25.541.67L392 241l1.813 1.25c2.686 3.96 2.282 9.065 1.656 13.598a232 232 0 0 1-.969 4.214l-.535 2.377q-.61 2.705-1.238 5.405c-.836 3.63-1.644 7.266-2.45 10.902q-.918 4.128-1.84 8.254l-.446 2.005c-1.614 7.218-3.325 14.38-5.314 21.504-1.062 3.907-1.93 7.85-2.802 11.803a3892 3892 0 0 1-6.843 29.884 1503 1503 0 0 0-1.169 5.064c-5.717 24.949-5.717 24.949-11.863 29.74a65 65 0 0 1-7.945 1.71l-2.392.405c-2.594.435-5.19.847-7.788 1.26q-2.73.452-5.457.908-5.555.928-11.113 1.837c-4.734.78-9.459 1.602-14.18 2.454l-2.094.378-4.117.743c-14.542 2.62-29.122 4.97-43.727 7.213A763 763 0 0 0 232 409l-2.736.531-4.612.9c-18.488 3.599-37.096 6.568-55.704 9.471a2085 2085 0 0 0-19.823 3.223l-3.12.518-2.935.49-2.6.434c-1.711.3-3.41.666-5.095 1.085-2.375.348-2.375.348-5.437-1.214-7.25-6.016-8.835-13.486-9.981-22.504l-.25-1.968c-.825-6.621-1.426-13.259-2.02-19.904-1.166-12.597-2.644-25.139-4.25-37.687-1.623-12.695-3.115-25.372-4.23-38.124-.377-4.11-.82-8.211-1.27-12.313l-.24-2.26c-.406-3.793-.406-3.793-1.186-7.52-.651-2.748-.896-5.455-1.16-8.267l-.354-3.691-.372-3.95c-.93-9.735-2.006-19.432-3.312-29.125-3.114-23.988-3.114-23.988.593-30.445 4.026-5.152 8.278-7.243 14.721-8.243q2.112-.229 4.225-.437l2.314-.244c2.486-.26 4.972-.509 7.459-.756l5.15-.526c10.17-1.029 20.344-1.959 30.537-2.724l3.224-.242c19.701-1.379 19.701-1.379 25.886 3.34"/><path fill="#bcd8f5" d="m195.422 196.848 2.328 2.214 2.586 2.41L203 204a827 827 0 0 0 5.375 5l2.398 2.25c4.836 3.8 10.453 2.772 16.29 2.5l3.095-.141c9.719-.504 19.341-1.575 29.002-2.714 10.621-1.242 21.267-2.25 31.91-3.281q3.822-.371 7.64-.747l2.314-.22c3.715-.367 7.325-.877 10.976-1.647 5.594-.422 10.086.334 15 3 6.367 6.032 6.438 14.694 7.125 22.938l.262 2.939q.313 3.56.613 7.123l20-1v1a854 854 0 0 1-40.892 5.134c-14.1 1.436-28.186 2.915-42.233 4.804-17.53 2.354-35.108 4.272-52.684 6.234q-6.45.723-12.898 1.456-3.392.383-6.785.76c-3.444.383-6.886.776-10.328 1.17l-3.18.349-2.961.345-2.591.292c-2.67.497-4.964 1.373-7.448 2.456l1 5-7 6-2-3c-2.541 6.246-4.107 12.397-5.437 19l-.58 2.75c-1.448 7.045-2.634 14.121-3.796 21.219-2.333 14.224-5.037 28.374-7.75 42.531l-1.458 7.648-.718 3.76-1.387 7.286c-.947 4.97-1.896 9.938-2.881 14.9l-.436 2.226q-.54 2.75-1.092 5.498c-.98 6.24-.98 6.24.535 12.182a95 95 0 0 1 .063 5.125l-.028 2.758L140 421l1.828-.992c2.547-1.182 4.396-1.162 7.172-1.008v-2c4.123-1.842 8.266-2.77 12.688-3.562.705-.13 1.41-.258 2.137-.39C178.379 410.46 178.379 410.46 183 412a115 115 0 0 0 6.5-.312c1.145-.08 2.29-.158 3.469-.239 3.14-.296 6.201-.825 9.3-1.41 5.619-1.058 11.24-1.718 16.918-2.351 10.56-1.242 20.858-3.208 31.235-5.504 5.055-1.116 10.133-1.957 15.25-2.735 2.28-.214 2.28-.214 3.328-1.449 11.098-2.657 25.584-5.666 37-4l2 2q-8.236 1.415-16.473 2.826-2.79.477-5.577.957c-10.524 1.809-21.051 3.582-31.605 5.212-6.082.943-12.13 2.027-18.173 3.196l-2.045.395-4.379.855c-20.187 3.951-40.477 7.29-60.8 10.461a2085 2085 0 0 0-19.823 3.223l-3.12.518-2.935.49-2.6.434c-1.711.3-3.41.666-5.095 1.085-2.375.348-2.375.348-5.437-1.214-7.25-6.016-8.835-13.486-9.981-22.504l-.25-1.968c-.825-6.621-1.426-13.259-2.02-19.904-1.166-12.597-2.644-25.139-4.25-37.687-1.623-12.695-3.115-25.372-4.23-38.124-.377-4.11-.82-8.211-1.27-12.313l-.24-2.26c-.406-3.793-.406-3.793-1.186-7.52-.651-2.748-.896-5.455-1.16-8.267l-.354-3.691-.372-3.95c-.93-9.735-2.006-19.432-3.312-29.125-3.114-23.988-3.114-23.988.593-30.445 4.026-5.152 8.278-7.243 14.721-8.243q2.112-.229 4.225-.437l2.314-.244c2.486-.26 4.972-.509 7.459-.756l5.15-.526c10.17-1.029 20.344-1.959 30.537-2.724l3.224-.242c19.701-1.379 19.701-1.379 25.886 3.34"/><path fill="#93c0e8" d="M316.713 90.314C330.383 101.468 338.92 115.303 341 133c.733 9.297-1.47 17.235-5.098 25.738-.829 2.078-1.418 4.081-1.902 6.262a134 134 0 0 0 3.125 2.5l1.758 1.406c2.126 1.335 2.126 1.335 4.84.871 5 .34 7.8 3.187 11.59 6.286l2.267 1.8a771 771 0 0 1 4.422 3.538c3.15 2.52 6.395 4.916 9.627 7.33L373 190v2c.566.26 1.132.52 1.715.79 2.498 1.323 4.613 2.853 6.848 4.585l2.316 1.773c3.354 2.928 4.997 4.738 5.496 9.227-.528 5.107-2.04 8.172-5.5 11.938-3.91 2.294-7.35 3.017-11.875 2.687-3.062-1.562-3.062-1.562-6-4a2651 2651 0 0 0-4.375-3.125c-2.086-1.508-2.086-1.508-3.625-2.875v-2l-1.562-.687c-3.333-1.795-6.585-3.813-9.438-6.313v-2h-2v-2l-1.71-.781c-2.54-1.352-4.659-2.938-6.915-4.719l-2.352-1.844C332 191 332 191 330 189c-.125-3.125-.125-3.125 0-6h-2v-2c-2.716-.886-4.204-1.29-7-1-2.669 1.519-5.015 3.294-7.46 5.148-10.877 7.932-24.813 9.327-37.837 7.352-19.57-4.12-34.99-14.452-46.015-31.25a56.73 56.73 0 0 1-5.063-43.125c5.387-15.125 14.235-28.176 28.918-35.371A90 90 0 0 1 261 80l2.031-.684c18.034-5.028 39.029-.246 53.682 10.998"/><path fill="#b4cfe5" d="m280.063 98.75 2.353.227c4.795.536 8.32 1.627 12.584 4.023l2.875.813c4.538 1.724 9.887 4.71 12.125 9.187l6-1 5 8 2-3h2c4.677 13.322 5.448 21.963-.562 34.875C319.514 161.496 311.91 167.012 302 171c-10.792 3.083-24 1.864-34-3-5.2-2.891-10.04-6.056-14.5-10l-2.5-2-3 1v3h2c1.691 1.68 1.691 1.68 3.563 3.875l1.878 2.18C257 168 257 168 258 170c-2.929-.628-5.361-1.586-8-3v-2h-2v-2h-2l1 4h-2v-4h-4l-1-2-3 3 1 2.813c1 3.187 1 3.187 1 6.187-11.677-14.086-17.593-27.502-16.228-45.99 1.056-9.326 5.044-18.25 10.228-26.01l2-1c-.859 4.11-1.71 8.146-3.062 12.125-2.886 8.849-2.399 17.42-.063 26.25l.527 2.152c1.037 4.14 1.037 4.14 3.598 7.473l-.048-2.048c-.062-3.067-.101-6.134-.14-9.202l-.076-3.223-.029-3.105-.048-2.857c.402-3.025 1.433-4.24 3.341-6.565l.813-3.312c1.438-4.467 3.599-7.649 7.187-10.688a108 108 0 0 1 4-1q1.025-1.988 2-4c2.125-1.25 2.125-1.25 4-2l1 2 2.563-1.437c6.518-2.963 12.578-2.621 19.5-1.813"/><path fill="#aec1d7" d="M331 108h2c7.207 13.671 10.574 27.889 6 43a180 180 0 0 1-3.098 7.738c-.829 2.078-1.418 4.081-1.902 6.262a134 134 0 0 0 3.125 2.5l1.758 1.406c2.126 1.335 2.126 1.335 4.84.871 5 .34 7.8 3.187 11.59 6.286l2.267 1.8a771 771 0 0 1 4.422 3.538c3.15 2.52 6.395 4.916 9.627 7.33L373 190v2c.566.26 1.132.52 1.715.79 2.498 1.323 4.613 2.853 6.848 4.585l2.316 1.773c3.354 2.928 4.997 4.738 5.496 9.227-.528 5.107-2.04 8.172-5.5 11.938-3.91 2.294-7.35 3.017-11.875 2.687-3.062-1.562-3.062-1.562-6-4a2651 2651 0 0 0-4.375-3.125c-2.086-1.508-2.086-1.508-3.625-2.875v-2l-1.562-.687c-3.333-1.795-6.585-3.813-9.438-6.313v-2h-2v-2l-1.71-.781c-2.54-1.352-4.659-2.938-6.915-4.719l-2.352-1.844C332 191 332 191 330 189c-.125-3.125-.125-3.125 0-6h-2v-2c-2.737-.892-4.184-1.307-7-1-3.605 1.998-6.796 4.415-10 7l-2-1c3.173-3.536 5.167-5.586 10-6v-2h5v-3l-3 1c.337-2.922.554-4.555 2.672-6.668l2.078-1.52c4.593-3.765 7.435-8.14 9.25-13.812l-1-3c-.125-3.625-.125-3.625 0-7l1-1c.183-5.113-.153-9.959-.879-15.02C334 126 334 126 335 123c-.38-5.023-1.638-8.585-4-13z"/><path fill="#97bbe2" d="M311 87c2.857 2.507 3.488 4.213 4 8h5l3 9c-3.482-1.258-6.065-2.773-9-5h-2v3c-3.241-1.08-5.535-2.403-8.125-4.562-4.494-3.388-9.416-3.33-14.875-3.438 2.5 2.91 5.197 4.168 8.688 5.688l3.011 1.324L303 102v2h2l-1 3c-10-4-10-4-12.29-5.055-3.75-1.307-7.461-1.759-11.397-2.195l-2.425-.269c-7.647-.735-14.037-.106-20.888 3.519v-3c-3.33 2.59-3.33 2.59-6.437 5.438C249 107 249 107 245.938 109.5c-4.44 3.779-5.4 7.02-6.938 12.5l-1.05 1.87c-1.21 2.715-1.177 4.804-1.145 7.77l.02 3.243.05 3.367.027 3.414q.036 4.168.098 8.336c-3.86-3.566-5.107-6.708-6.25-11.75l-.523-2.055c-2.004-8.363-1.23-15.902.773-24.195l.813-3.504c2.878-11.309 6.937-16.503 16.542-22.926 4.056-2.408 8.164-4.122 12.645-5.57l2.031-.684c15.39-4.29 34.936-1.68 47.969 7.684"/><path fill="#a7c5f1" d="M102 215h1c3.003 19.825 5.18 39.696 7.205 59.64 1.159 11.396 2.405 22.76 3.91 34.116.84 6.468 1.33 12.898 1.576 19.416.254 3.143.673 6.097 1.22 9.195 1.243 7.18 1.98 14.397 2.721 21.641 1.336 13.023 2.814 26.018 4.555 38.992l.506 3.771c.652 4.776 1.32 9.51 2.307 14.229h2v-3h5v3l-2 1 4 1v4l2-1c.407-2.322.744-4.657 1-7h-3c-.369-15.745-.369-15.745 2-23 2.478 3.75 2.004 6.762 1.563 11.125-.697 4.592-.697 4.592.437 8.875a95 95 0 0 1 .063 5.125l-.028 2.758L140 421l1.828-.992c2.547-1.182 4.396-1.162 7.172-1.008v-2c4.123-1.842 8.266-2.77 12.688-3.562.705-.13 1.41-.258 2.137-.39C178.379 410.46 178.379 410.46 183 412a115 115 0 0 0 6.5-.312c1.145-.08 2.29-.158 3.469-.239 3.14-.296 6.201-.825 9.3-1.41 5.619-1.058 11.24-1.718 16.918-2.351 10.56-1.242 20.858-3.208 31.235-5.504 5.055-1.116 10.133-1.957 15.25-2.735 2.28-.214 2.28-.214 3.328-1.449 11.098-2.657 25.584-5.666 37-4l2 2q-8.236 1.415-16.473 2.826-2.79.477-5.577.957c-10.524 1.809-21.051 3.582-31.605 5.212-6.082.943-12.13 2.027-18.173 3.196l-2.045.395-4.379.855c-20.187 3.951-40.477 7.29-60.8 10.461a2085 2085 0 0 0-19.823 3.223l-3.12.518-2.935.49-2.6.434c-1.711.3-3.41.666-5.095 1.085-2.375.348-2.375.348-5.437-1.214-7.25-6.016-8.835-13.486-9.981-22.504l-.25-1.968c-.825-6.621-1.426-13.259-2.02-19.904-1.166-12.597-2.644-25.139-4.25-37.687-1.623-12.695-3.115-25.372-4.23-38.124-.377-4.11-.82-8.211-1.27-12.313l-.24-2.26c-.4-3.774-.4-3.774-1.181-7.482-.695-2.958-.947-5.894-1.235-8.919l-.19-1.98q-.3-3.18-.591-6.36l-.203-2.186C102.827 246.825 101.765 231 102 215"/><path fill="#83baf1" d="M251.34 155.7c2.856 1.396 4.846 3.01 7.222 5.113 8.269 6.817 17.623 10.01 28.188 10.75l3.547.253L293 172v1l-2.082.148-2.73.227c-.894.07-1.787.14-2.708.21-2.724.281-2.724.281-5.48 2.415l16 1v1l-13 1 1 2c5.726.087 11.374.17 17.063-.562C305 180 305 180 308 181v-2c3.62-1.316 6.096-2 10-2-1.48 3.902-3.512 4.907-7 7l-.875 2c-2.115 3.76-6.425 4.52-10.352 5.629-15.646 3.644-31.643.805-45.773-6.629-7.72-4.864-15.094-10.066-17.613-19.23L236 164l5-4v3h4v4h2l-1-4h2v2h2l1 2a101 101 0 0 0 6 2l-1.531-1.46-1.969-1.915-1.969-1.898C250 162 250 162 250 160h-2l-1-4c2-1 2-1 4.34-.3"/><path fill="#b4d2f4" d="M331 108h2c7.207 13.671 10.574 27.889 6 43a180 180 0 0 1-3.098 7.738c-.829 2.078-1.418 4.081-1.902 6.262a134 134 0 0 0 3.125 2.5l1.758 1.406c2.126 1.335 2.126 1.335 4.84.871 5 .34 7.8 3.187 11.59 6.286l2.267 1.8a771 771 0 0 1 4.422 3.538c3.15 2.52 6.395 4.916 9.627 7.33L373 190v2c.566.26 1.132.52 1.715.79 2.498 1.323 4.613 2.853 6.848 4.585l2.316 1.773c3.354 2.928 4.997 4.738 5.496 9.227-.424 4.103-.812 6.362-3.375 9.625-3.002.809-5.9.987-9 1 1.875-5.875 1.875-5.875 3-7 .04-2 .043-4 0-6l-1.68-.734-2.195-1.016-2.18-.984c-2.303-1.5-2.77-2.838-3.945-5.266l-3-1v-2l-5-1v-3l-3.437-.875L355 189l-1-2c-2.017-1.134-2.017-1.134-4-2v-3h-3v-2h-3c-1.125-6.75-1.125-6.75 0-9l-2.375 1.5C339 174 339 174 337 174v3h2c-.75 1.938-.75 1.938-2 4l-2 .375-2 .625c-1.305 2.996-1.305 2.996-2 6h-1v-5h-2v-2c-2.737-.892-4.184-1.307-7-1-3.605 1.998-6.796 4.415-10 7l-2-1c3.173-3.536 5.167-5.586 10-6v-2h5v-3l-3 1c.337-2.922.554-4.555 2.672-6.668l2.078-1.52c4.593-3.765 7.435-8.14 9.25-13.812l-1-3c-.125-3.625-.125-3.625 0-7l1-1c.183-5.113-.153-9.959-.879-15.02C334 126 334 126 335 123c-.38-5.023-1.638-8.585-4-13z"/><path fill="#86b7ed" d="M309.266 85.754c2.907 2.089 4.519 3.405 5.421 6.933L315 95h5l3 9c-3.482-1.258-6.065-2.773-9-5h-2v3c-3.241-1.08-5.535-2.403-8.125-4.562-4.494-3.388-9.416-3.33-14.875-3.438 2.5 2.91 5.197 4.168 8.688 5.688l3.011 1.324L303 102v2h2l-1 3-8-4v-2c-8.951-1.783-17.942-2.932-27-4l3-2-2.312.188c-3.176-.222-3.645-.906-5.688-3.188 8.794-4.059 17.597-3.71 27-2l-1-3c-12.687-1.112-24.07-1.64-36 3.688-2.975 1.301-4.802 1.603-8 1.312 1.375-2 1.375-2 3-4h2l1-3c3.563-1.187 3.563-1.187 7-2v-2c16.476-5.978 35.167-4.17 50.266 4.754"/><path fill="#bcd4f4" d="M391 241c1.938 1 1.938 1 4 3 1.145 5.737.862 10.37-.5 16.063l-.535 2.376q-.61 2.705-1.238 5.405c-.836 3.63-1.644 7.266-2.45 10.902q-.918 4.128-1.84 8.254l-.446 2.005c-1.614 7.218-3.325 14.38-5.314 21.504-1.062 3.907-1.93 7.85-2.802 11.803a3892 3892 0 0 1-6.843 29.884 1503 1503 0 0 0-1.169 5.064c-5.737 25.036-5.737 25.036-11.863 29.74-2.867.952-5.775 1.417-8.754 1.887l-2.594.446q-2.718.464-5.44.905c-2.743.444-5.482.91-8.222 1.381-8.636 1.464-17.236 2.85-25.99 3.381v-2l2.076-.304c3.144-.468 6.284-.957 9.424-1.446l3.266-.477c6.496-1.03 11.526-2.492 17.234-5.773 2.645-1.322 4.678-1.097 7.625-1.062l3.04.027L354 384v-2l-2.437-.687L349 380c-.812-2.625-.812-2.625-1-5l6-2 3 6h4c2.372-6.577 4.021-13.16 5.438-20q.65-3.064 1.304-6.129l.644-3.024c1.953-9.056 4.153-18.054 6.426-27.034 7.997-31.097 7.997-31.097 13.723-62.657.465-3.156.465-3.156 1.527-6.219 1.016-3.183 1.24-5.617.938-8.937l-2-2z"/><path fill="#6b9fe9" d="M355 241c-.945 1.906-.945 1.906-3 4-3.032.722-5.794 1.17-8.875 1.5l-2.927.356A896 896 0 0 1 330 248l-3.742.404q-7.416.8-14.833 1.585c-16.142 1.704-32.252 3.654-48.363 5.636l-3.757.46c-11.507 1.414-23.004 2.842-34.474 4.53-4.493.61-8.999.97-13.518 1.322a268 268 0 0 0-24.148 3.098c-4.114.71-7.968 1.111-12.165.965l-1-3c3.13-1.785 5.778-2.397 9.346-2.806l3.26-.386 3.53-.394 3.683-.43q4.917-.57 9.836-1.127c3.392-.387 6.783-.782 10.175-1.176q6.048-.704 12.096-1.401a3961 3961 0 0 0 29.637-3.53c16.656-2.028 33.314-4.016 50.003-5.754l2.542-.265q6.236-.65 12.473-1.286c8.143-.837 16.228-1.785 24.315-3.076 3.393-.403 6.69-.43 10.104-.369"/><path fill="#6d9de6" d="M163 275c2 1 2 1 4 4v4h-2l-.168 1.896q-.379 4.24-.77 8.479l-.263 2.984-.264 2.852-.238 2.634C163 304 163 304 162 306c-.532 3.369-.962 6.747-1.402 10.129-.435 2.813-.94 5.504-1.575 8.27-1.037 4.529-1.773 9.07-2.46 13.664l-.786 4.98a742 742 0 0 0-1.124 7.307 464 464 0 0 1-1.028 6.525l-.586 3.805c-1.232 3.937-3.076 5.53-6.039 8.32-.651-12.387 1.33-23.717 3.813-35.812.72-3.59 1.431-7.18 2.144-10.77.175-.875.35-1.75.532-2.652 1.303-6.552 2.436-13.121 3.506-19.715a257 257 0 0 1 3.13-16.113l.512-2.33c1.232-5.477 1.232-5.477 2.363-6.608"/><path fill="#c1d4ec" d="M234 100c1.26 3.783.483 5.059-.875 8.75-3.622 10.39-3.83 19.497-1.25 30.063q.55 2.378 1.098 4.757l.535 2.302c3.04 13.158 3.04 13.158 1.492 20.128h2c1.688 2.375 1.688 2.375 3 5l-1 2c-11.677-14.086-17.593-27.502-16.228-45.99.997-8.8 4.806-20.588 11.228-27.01"/><path fill="#93bdeb" d="M311 87c8.184 4.953 19.19 12.76 21.625 22.5L333 112l1.563 3.438c1.668 4.134 2.087 7.25.875 11.562-.617 2.818.071 5.164.562 8 .087 2.674.046 5.324 0 8-2.008-3.467-2.648-6.83-3.375-10.75-1.166-5.738-2.788-10.163-5.625-15.25v-2l-5 1c-2-3-2-3-2-6h-3a88 88 0 0 1-3-5l-1.687-1.562C311 102 311 102 311 98c5.027.457 8.149 2.992 12 6l-1.5-2.312C320 99 320 99 320 96l-2.437.063C315 96 315 96 314 95a100 100 0 0 1 0-5l-3-1z"/><path fill="#8aa9e6" d="M377.605 236.781c5.574-.166 8.682.006 13.395 3.219l-1 3c-3.435.625-6.49 1-10 1a429 429 0 0 0-6.437.438c-1.113.08-2.225.162-3.372.246-2.799.277-5.44.749-8.191 1.316-2.368.24-4.736.436-7.11.621L353 247l-1 2-2.23-.035-2.957-.028-2.918-.035c-2.768.094-5.194.524-7.895 1.098q-2.903.317-5.812.563l-2.958.253L325 251l1-3 2.307-.288c3.464-.444 6.922-.922 10.38-1.4l3.631-.45c6.738-.958 10.049-1.662 14.682-6.862 2.84-.695 5.192-1.101 8.063-1.312l2.268-.21c3.421-.295 6.847-.489 10.274-.697"/><path fill="#b5d6ef" d="M391 241c1.938 1 1.938 1 4 3 1.145 5.737.863 10.371-.5 16.063l-.535 2.372a971 971 0 0 1-1.238 5.4 943 943 0 0 0-2 8.93q-.91 4.145-1.83 8.289l-.906 4.102c-1.642 7.437-3.41 14.674-5.991 21.844h-2l-4 17h-1c.545-8.284 2.298-16.111 4.267-24.146a1889 1889 0 0 0 2.725-11.334l.535-2.242a484 484 0 0 0 3.91-17.966l.459-2.312c.631-3.269 1.177-6.53 1.635-9.828.469-3.172.469-3.172 1.531-6.235 1.016-3.183 1.24-5.617.938-8.937l-2-2z"/><path fill="#8aafe9" d="m275 396 1 2-3.437.438c-3.37.174-3.37.174-4.563 1.562-1.294.33-2.6.61-3.91.867l-2.472.49-2.68.518-2.779.541-5.595 1.083c-2.112.413-4.22.848-6.326 1.29-11.047 2.252-22.22 3.529-33.409 4.854l-2.09.25q-2.857.34-5.715.674c-3.063.347-3.063.347-6.024 1.433a65 65 0 0 1-4.187.063L189 412v-2c9.15-2.477 18.062-4.476 27.5-5.508 3.125-.44 6.051-1.155 9.099-1.952 5.358-1.204 10.837-1.806 16.276-2.54 7.412-1.006 14.748-2.082 22.07-3.616 3.73-.697 7.278-.506 11.055-.384"/><path fill="#97c1f4" d="m240 160 1 3h4v4l1.773.824c2.188 1.156 3.93 2.438 5.852 3.988 4.466 3.43 9.28 5.829 14.375 8.188l-1 3h-7l1 4c-9.179-2.599-17.544-8.803-22.23-17.176-.83-1.968-1.475-3.703-1.77-5.824 1.938-2.25 1.938-2.25 4-4"/><path fill="#b0cff1" d="M102 215h1c3.492 23.056 5.897 46.205 8.227 69.403A1387 1387 0 0 0 113 301h-1l-1 6h-1c-1.557-6.698-2.349-13.253-2.754-20.117-.147-2.72-.147-2.72-.716-4.643-.704-2.974-.96-5.92-1.249-8.963l-.19-1.98q-.3-3.18-.591-6.36l-.203-2.186C102.827 246.825 101.765 231 102 215"/><path fill="#8cb0dc" d="M284 89c.887-.015 1.774-.03 2.688-.047 8.946.16 15.812 4.604 23.312 9.047v2h2v2c-3.241-1.08-5.535-2.403-8.125-4.562-4.494-3.388-9.416-3.33-14.875-3.438 2.5 2.91 5.197 4.168 8.688 5.688l3.011 1.324L303 102v2h2l-1 3-8-4v-2c-8.951-1.783-17.942-2.932-27-4l3-2-2.312.188c-3.176-.222-3.645-.906-5.688-3.188 6.855-3.164 12.523-3.343 20-3"/><path fill="#a4bfe8" d="M138 391c2.478 3.75 2.004 6.762 1.563 11.125-.697 4.592-.697 4.592.437 8.875a95 95 0 0 1 .063 5.125l-.028 2.758L140 421l1.828-.992c2.547-1.182 4.396-1.162 7.172-1.008v-2c4.123-1.842 8.266-2.77 12.688-3.562.705-.13 1.41-.258 2.137-.39C178.379 410.46 178.379 410.46 183 412c1.666.039 3.334.045 5 0-3.453 1.984-6.814 2.706-10.707 3.473l-1.95.387q-2.038.404-4.078.8-3.091.601-6.181 1.217c-6.014 1.186-12.012 2.269-18.084 3.123a90 90 0 0 0-4 1v2c-9.015 2.433-9.015 2.433-13.125.625L128 423c2.313-2.5 2.313-2.5 5-5h3v4l2-1c.407-2.322.744-4.657 1-7h-3c-.369-15.745-.369-15.745 2-23"/><path fill="#5e98e7" d="M251 256v1c-14.405 2.09-28.762 4.105-43.276 5.276-6.917.583-13.726 1.56-20.562 2.76-4.113.71-7.967 1.11-12.162.964l-1-3c3.858-2.414 8.068-2.742 12.488-3.29l2.557-.327c2.755-.348 5.51-.68 8.268-1.008l2.831-.344c17.03-2.036 33.718-2.655 50.856-2.031"/><path fill="#c5d4e6" d="M333 186c5.996 1.11 10 4.543 14 9v2l1.625.313c3.072.889 5.63 2.04 8.375 3.687a70 70 0 0 1 1 4 132 132 0 0 0 5 3 249 249 0 0 1 3 4l3 1a107 107 0 0 1 4 6h-5v-2l-2.312-.812c-2.578-1.14-3.958-2.002-5.688-4.188v-2l-1.687-.75C356 208 356 208 353.5 205.875c-2.512-2.275-2.512-2.275-6.5-1.875v-2h-2v-2l-1.562-.687c-6.86-3.694-6.86-3.694-9.438-6.313-.937-3.812-.937-3.812-1-7"/><path fill="#6292d5" d="m275.125 78.75 2.379-.023c4.281.014 7.593.298 11.496 2.273v2l3.25.25c4.024.805 5.232 1.627 7.75 4.75-7.875-.875-7.875-.875-9-2-11.23-1.75-25.559-3.298-36 2a89 89 0 0 0-4 4c-2.75.25-2.75.25-5 0 1.375-2 1.375-2 3-4h2l1-3c3.563-1.187 3.563-1.187 7-2v-2c5.504-1.85 10.338-2.308 16.125-2.25"/><path fill="#77b2f6" d="M322 248v2c-3.019 2.012-4.013 2.304-7.465 2.598l-2.659.238-2.813.226-2.86.252c-6.036.527-12.076 1.016-18.121 1.44-2.14.133-2.14.133-4.082 1.246-2.244.271-4.494.49-6.746.684l-2.057.18q-3.317.29-6.635.574a7324 7324 0 0 0-11.31.994 727 727 0 0 0-17.19 1.755c-6.053.676-11.97 1.013-18.062.813v-1l29.766-3.783c13.548-1.72 27.094-3.445 40.633-5.234 5.924-.778 11.852-1.496 17.789-2.17l2.22-.254c3.231-.354 6.336-.559 9.592-.559"/><path fill="#8face2" d="m146 360 2 1c.351 9.375-.64 17.948-2.5 27.125-1.54 7.652-2.8 14.837-2.49 22.664C143 413 143 413 142 416h2l1 3-5 2c-.09-1.048-.09-1.048-.184-2.117l-.254-2.758c-.08-.905-.162-1.81-.246-2.742-.186-2.394-.186-2.394-1.316-4.383-.019-10.756 2.439-21.326 4.563-31.812l.998-5.026Q144.77 366.078 146 360"/><path fill="#a7cdf2" d="m111 300 2 1c.598 2.816.598 2.816 1.063 6.563l.253 2.022c.661 5.536 1 11.072 1.29 16.637.283 5.008 1.013 9.82 1.914 14.747 2.406 15.18 2.406 15.18.48 19.031-.07 2.207-.084 4.417-.062 6.625l.027 3.602L118 373h-1q-1.42-11.173-2.79-22.353-.635-5.193-1.295-10.383a2105 2105 0 0 1-1.481-11.99l-.48-3.692c-1-8.41-.839-16.165.046-24.582"/><path fill="#b9d1ee" d="M322 117h3c4.165 11.862 5.84 20.374.633 32.07l-1.508 3.055-1.492 3.07c-1.606 2.758-3.277 4.674-5.633 6.805l-2-1c1.375-2 1.375-2 3-4h2a43 43 0 0 0 1.098-10.082l-.01-2.822-.026-2.909-.013-2.966q-.018-3.61-.049-7.221l2-1-.473-1.828-.59-2.422-.597-2.39c-.355-2.464-.109-4.016.66-6.36"/><path fill="#a9c3ea" d="M363 372c.688 1.625.688 1.625 1 4-1.446 3.544-2.913 6.654-6 9-3.128 1.008-5.978 1.106-9.25 1.063l-2.703-.028L344 386v2h5v1q-7.58 1.288-15.161 2.563-2.58.435-5.156.874-3.709.629-7.417 1.25l-2.324.398c-3.384.564-6.5.915-9.942.915v-2l2.076-.304c3.144-.468 6.284-.957 9.424-1.446l3.266-.477c6.496-1.03 11.526-2.492 17.234-5.773 2.645-1.322 4.678-1.097 7.625-1.062l3.04.027L354 384v-2l-2.437-.687L349 380c-.812-2.625-.812-2.625-1-5l6-2 3 6h4z"/><path fill="#7fa4e8" d="M355 241c-2.384 3.79-2.384 3.79-5.09 4.714l-2.418.298-2.716.356c-.957.106-1.915.21-2.901.32l-2.975.362c-21.886 2.564-21.886 2.564-30.314 1.403L305 248l-1 1c-1.91.264-3.829.461-5.75.625l-3.172.29c-2.898.08-5.276-.22-8.078-.915v-1l1.69-.176q8.811-.921 17.622-1.85 3.275-.345 6.551-.687c16.163-1.665 16.163-1.665 32.248-3.942 3.316-.396 6.552-.4 9.889-.345"/><path fill="#e6eefc" d="M228 113h1l-.016 2q-.029 4.532-.047 9.063l-.025 3.146c-.014 4.288.024 8.355.65 12.603.497 3.619.13 6.537-.5 10.125l-.59 3.465L228 156c-5.876-11.368-7.183-24.732-3.5-37.062A91 91 0 0 1 226 115h2z"/><path fill="#b6ccdf" d="M333.438 170.813 335 172v2h2v3h2c-.75 1.938-.75 1.938-2 4l-2 .375-2 .625c-1.305 2.996-1.305 2.996-2 6h-1v-5h-2v-2c-2.737-.892-4.184-1.307-7-1-3.605 1.998-6.796 4.415-10 7l-2-1c3.173-3.536 5.167-5.586 10-6v-2h5v-5c6.4-3.2 6.4-3.2 9.438-2.187"/><path fill="#9cb8de" d="M289 94c6.858-.955 11.211-.411 16.875 3.75A236 236 0 0 1 311 102l2.758 2.078C316 106 316 106 317 109c-1.687.75-1.687.75-4 1-2.75-1.937-2.75-1.937-5-4v2h2v2c-3.688-.498-5.605-1.1-8-4h2l1-2h-2l-1-2c-3.063-1.35-6.18-2.505-9.312-3.684L290 97z"/><path fill="#c9d6eb" d="M121 199c-2.063 2.063-3.123 2.527-5.812 3.438l-2.153.804q-2.454.914-4.91 1.82c-3.47 3.164-3.558 7.426-4.125 11.938h-1c-.186 10.363.394 20.66 1 31-2.527-3.79-2.703-7.268-3.125-11.687l-.249-2.552c-.5-5.519-.884-11.033-1.001-16.573l-.086-3.77c.652-4.837 2.811-7.928 6.398-11.168 5.206-3.155 9.083-3.453 15.063-3.25"/><path fill="#a3c2f3" d="m306 394 2 2c-36.877 7.163-36.877 7.163-52 6v-1l2.59-.402 3.348-.536 3.34-.527c2.626-.253 2.626-.253 3.722-1.535 11.098-2.657 25.584-5.666 37-4"/><path fill="#86afdd" d="M310 166h3c-.125 1.813-.125 1.813-1 4-5.036 3-5.036 3-8 3v2c-4.81 2.5-9.406 2.298-14.687 2.25l-2.627.023-2.51-.007-2.284-.007C280 177 280 177 278 175c4.048-1.862 7.707-2.423 12.125-2.875C300.83 171.017 300.83 171.017 310 166"/><path fill="#77a8e8" d="M318 177c-1.473 3.882-3.48 4.976-7 7l-2 3c-2.063.616-2.063.616-4.57.95l-2.715.38-2.84.357-2.863.393q-3.504.478-7.012.92v-2l1.938-.375L293 187l1-2h-8v-1l3.797-.402 4.953-.536 2.5-.263 2.422-.264 2.222-.238c2.087-.294 4.072-.748 6.106-1.297v-2c3.62-1.316 6.096-2 10-2"/><path fill="#77abf3" d="M162 296h1c.125 7.75.125 7.75-1 10-.532 3.369-.962 6.747-1.402 10.129-.435 2.813-.94 5.504-1.575 8.27-1.037 4.528-1.774 9.07-2.46 13.664-.982 6.344-1.992 12.68-3.125 19l-.692 3.91C152 364 152 364 150 366c-1.27-3.81-.505-6.681.258-10.508l.434-2.273c.47-2.45.952-4.897 1.433-7.344q.488-2.52.973-5.041a3898 3898 0 0 1 3.32-16.954 3600 3600 0 0 1 4.12-20.605q.737-3.637 1.462-7.275"/><path fill="#b3c8e4" d="M102 215h1c2.397 16.64 4.608 33.24 6 50l-3-1v-3h-2c-1.292-15.316-2.226-30.624-2-46"/><path fill="#b0d2ef" d="m332 163 1.46 1.277 1.915 1.66 1.898 1.653c1.683 1.48 1.683 1.48 3.727 2.41l2.563-.375c5.18.565 8.95 3.563 12.437 7.375v4l4 2-3 1c-2.086-1.363-2.086-1.363-4.375-3.312-3.104-2.63-5.772-4.347-9.625-5.688l1-4-2.25 1.5C339 174 339 174 335 174v-2l-2-1 1-3-4-2z"/><path fill="#c6daf4" d="M329 216h3c1.546 8.33 2.449 16.544 3 25l20-1v1c-8.024 1.184-15.865 2.285-24 2-1.016-3.048-1.198-5.347-1.316-8.543l-.127-3.252-.12-3.393-.13-3.427q-.16-4.192-.307-8.385"/><path fill="#95b2e9" d="m335 384 3 1c-3.657 4.665-6.536 5.707-12.354 6.506l-2.709.307-2.72.365c-3.793.493-7.383.822-11.217.822l-1 3-9-3 2-3c3.105-.318 5.017.006 8 1 1.9-.085 3.797-.237 5.688-.437l3.011-.31L320 390l1-3c1.207.03 1.207.03 2.438.063 2.496.233 2.496.233 3.562-1.063l7-1z"/><path fill="#98b3de" d="m391 240-1 3c-3.435.625-6.49 1-10 1q-3.282.23-6.562.5c-3.165.259-6.263.5-9.438.5 1-2 1-2 4-3 2.733-.228 5.45-.417 8.188-.562l2.271-.131q2.77-.158 5.541-.307v-3l-3.113.438c-8.008 1.086-15.785 1.871-23.887 1.562v-1c27.232-3.614 27.232-3.614 34 1"/><path fill="#a5c6f3" d="M326 112h7c2.477 5.161 4.06 9.228 2.438 15-.617 2.818.071 5.164.562 8 .087 2.674.046 5.324 0 8-1.99-3.438-2.61-6.735-3.312-10.625-1.154-5.705-2.825-10.341-5.7-15.387C326 115 326 115 326 112"/><path fill="#bdddf9" d="M385 281h1l-.254 2.738-.308 3.575-.317 3.55c-.307 3.167-.307 3.167.879 6.137-.453 3.102-.453 3.102-1.25 6.625l-.766 3.54L383 310l-3 1a93 93 0 0 0-2.187 8.563l-.538 2.443A639 639 0 0 0 376 328h-1c.564-9.995 3.14-19.454 5.563-29.125l1.287-5.21A4183 4183 0 0 1 385 281"/><path fill="#8bc5f6" d="M258 169c1.809.809 1.809.809 4 2q2.521 1.055 5.063 2.063l2.597 1.035c3.548 1.368 6.443 2.058 10.227 2.218l2.842.127 2.959.12 2.994.13q3.658.159 7.318.307v1l-13 1v2c-11.07-1.444-19.027-2.571-27-11z"/><path fill="#cddef3" d="M229 143h2c1.283 3.85 1.066 6.947 1 11l3 1c1.67 3.616.657 7.206 0 11h2c1.688 2.375 1.688 2.375 3 5l-1 2a750 750 0 0 1-3.812-4.625l-2.145-2.602c-4.127-5.602-5.456-9.156-4.73-16.148l.363-3.773z"/><path fill="#95b7ea" d="M251 402c-10.342 6.895-27.941 6.194-40.167 7.642l-2.092.25q-2.857.341-5.717.675c-3.063.347-3.063.347-6.024 1.433a65 65 0 0 1-4.187.063L189 412v-2a333 333 0 0 1 5.125-1.562l2.883-.88c2.992-.558 2.992-.558 5.676-.07 4.874.752 9.397-.051 14.254-.738l3.09-.417c7.013-.976 13.91-2.21 20.816-3.782 3.44-.6 6.672-.643 10.156-.551"/><path fill="#a9ccee" d="m239 121 1 2-1 3a94 94 0 0 0-.062 5.113l.023 3.033.078 6.297c.039 5.01-.16 9.613-1.039 14.557.845 3.289.845 3.289 2 6l-5 5c-1.133-4.531-1.133-4.531-.469-6.875.574-2.6.174-4.304-.469-6.875l-.59-2.422L233 148l2-1 1 1-.048-2.048c-.062-3.067-.101-6.134-.14-9.202l-.076-3.223-.029-3.105-.048-2.857c.397-2.988 1.358-4.342 3.341-6.565"/><path fill="#c6cedb" d="m386 204 3 1c.309 5.149.258 8.853-3 13-3.002.809-5.9.987-9 1 1.317-4.61 3.075-8.189 6-12l3-1z"/><path fill="#b3cdeb" d="M186 416c-4.452 2.066-8.817 2.74-13.625 3.438l-5.059.765-2.632.393c-4.461.672-8.916 1.383-13.371 2.091l-4.825.762L143 424v-2c3.68-1.623 7.044-2.353 11-3q3.252-.741 6.5-1.5c18.03-3.905 18.03-3.905 25.5-1.5"/><path fill="#96b3e7" d="M362 245v1l-1.934.148-2.503.227-2.497.21L353 247l-1 2-2.23-.035-2.957-.028-2.918-.035c-2.768.094-5.194.524-7.895 1.098q-2.903.317-5.812.563l-2.958.253L325 251l1-3q4.687-.723 9.375-1.437l2.637-.409c17.586-2.67 17.586-2.67 23.988-1.154"/><path fill="#c2e7fd" d="M111 277h1l2 7 1.027 3.172c1.002 3.94 1.202 7.236 1.168 11.293l-.008 2.055a916 916 0 0 1-.062 6.418q-.016 2.192-.027 4.384-.035 5.34-.098 10.678h-1c-2.459-15.04-4.4-29.735-4-45"/><path fill="#88b1e2" d="M270 78c14.462-.637 27.148.656 40 8-3.522 1.174-5.394.662-9 0h-4c-2.14-.656-2.14-.656-4.25-1.5l-2.14-.844L289 83v-2c-4.1-.933-8.12-1.288-12.312-1.562l-3.801-.254L270 79z"/><path fill="#80aff5" d="M322 248v2c-3.063 2.042-4.12 2.31-7.64 2.598l-2.747.24-2.863.225q-2.79.234-5.578.472l-2.685.225c-2.176.21-4.317.49-6.475.826-3.004.413-5.106.206-8.012-.586l1-2c10.948-2.668 23.751-4 35-4"/><path fill="#b2c9eb" d="m121 402 2 4 2-1 2 11h2v-3h5v3l-2 1v3l-5 2c-4.666-6.377-6.327-11.983-6-20"/><path fill="#82a6e5" d="m146 360 2 1c.693 10.896-1.359 20.495-4 31l-2-1c-.875-10.596 1.73-20.727 4-31"/><path fill="#cddced" d="M351 202c6.243 1.27 11.437 4.749 15 10l3 1a107 107 0 0 1 4 6h-5v-2l-2.312-.812c-2.578-1.14-3.958-2.002-5.688-4.188v-2l-1.687-.75c-2.737-1.48-4.99-3.185-7.313-5.25z"/><path fill="#79a0d8" d="M270 80c-3.762 4.64-6.98 5.769-12.703 7.242-2.875.949-4.263 2.573-6.297 4.758-2.75.25-2.75.25-5 0 1.375-2 1.375-2 3-4h2l1-3c3.563-1.187 3.563-1.187 7-2v-2c7.429-2.429 7.429-2.429 11-1"/><path fill="#adcce9" d="M380 311h2c-1.519 7.92-3.295 15.771-5.125 23.625l-.84 3.621Q375.02 342.623 374 347l-2-2c.446-6.712 2.417-13.296 4-19.812l.828-3.467c2.041-8.46 2.041-8.46 3.172-10.721"/><path fill="#7dbbef" d="m259 166 2.563 1.813c5.14 3.41 10.299 5.438 16.437 6.187v-2l-2-1 17 1v1l-2.082.113-2.73.2-2.708.175c-2.855.59-3.517 1.473-5.48 3.512-6.426-.113-12.338-1.96-18-5-2.625-2.75-2.625-2.75-4-5z"/><path fill="#cbdff6" d="M321 131h3c2.658 5.317 1.495 13.814.188 19.5-1.592 4.691-3.507 8.17-7.188 11.5l-2-1c1.375-2 1.375-2 3-4h2a43 43 0 0 0 1.098-10.082l-.01-2.822-.026-2.909-.013-2.966q-.018-3.61-.049-7.221"/><path fill="#b8d1e9" d="M323 207c3.135.336 4.025 1.027 6.25 3.375C331 213 331 213 331 216h-2l.5 3c.894 6.949.576 14.009.5 21h-1l-.12-1.924c-.192-2.902-.41-5.801-.63-8.701l-.187-3.027c-.48-6.04-1.268-9.612-5.063-14.348l-1-3z"/><path fill="#abd5f5" d="M259 161h5l1 3c2.093.923 2.093.923 4.625 1.5 3.1.801 5.7 1.66 8.59 3.082 4.5 1.984 8.884 1.749 13.723 1.606l2.65-.042A607 607 0 0 0 301 170c-6.31 4.207-17.257 2.727-24.54 1.313-6.45-2.001-12.225-5.017-17.46-9.313z"/><path fill="#71aff3" d="m215 260.938 3.438.027L221 261v1l-3.469.427q-6.405.793-12.81 1.6-2.764.346-5.53.686-3.99.492-7.976.998l-2.476.3c-4.754.61-9.165 1.55-13.739 2.989l-.375-1.937L174 265l-2-1h3v2l2.168-.351q4.916-.795 9.832-1.587l3.41-.552c16.518-2.657 16.518-2.657 24.59-2.572"/><path fill="#b0cff2" d="M324 176c2.438.375 2.438.375 5 1l1 2 3 1-2 8h-1v-5h-2v-2c-2.737-.892-4.184-1.307-7-1-3.605 1.998-6.796 4.415-10 7l-2-1c3.173-3.536 5.167-5.586 10-6v-2h5z"/><path fill="#a4c0e7" d="m308 106 1.688.938c2.449 1.125 4.668 1.587 7.312 2.062l3 1c1.188 3.063 1.188 3.063 2 6h2l-2 5c-2.275-2.167-4.236-4.396-6-7v-2l-3 2c-2.125-.187-2.125-.187-4-1l-1-3h2v-2h-2z"/><path fill="#b4cff6" d="M122 377c2.388 2.388 2.313 3.229 2.563 6.5.247 3.376.247 3.376 1.437 6.5a80 80 0 0 1-.437 5.125l-.31 2.758L125 400l2 1v8l-2-1c-1.883-6.996-2.347-14.497-3.187-21.687l-.292-2.432A163 163 0 0 1 121 378z"/><path fill="#c7d7ee" d="m151 195 2 3c-10.355 1.213-20.553 2.375-31 2v-2z"/><path fill="#72a1e8" d="M163 275c2 1 2 1 4 4v4h-2l-1 3a617 617 0 0 1-2.062 5.188l-1.098 2.73L160 296h-2q.962-4.97 1.938-9.937l.552-2.866.537-2.724.492-2.524C162 276 162 276 163 275"/><path fill="#aec7e2" d="M187 195c3.56-.324 5.42-.395 8.422 1.652l2.328 2.286 2.57 2.468L203 204c2.712 2.395 5.438 4.774 8.164 7.152C213 213 213 213 213 215c-5.331-1.676-8.096-4.936-11.812-8.965-4.419-4.634-8.294-7.509-14.188-10.035z"/><path fill="#95b1db" d="M180 412c-2.426 2.426-3.675 2.497-7.016 3.07l-3.043.528-3.191.527c-1.038.182-2.075.364-3.145.55-4.91.835-9.605 1.584-14.605 1.325 7.495-4.997 22.324-8.892 31-6"/><path fill="#bedbf6" d="M241 117h1c.087 3.562.14 7.124.188 10.688l.076 3.052c.093 9.38.093 9.38-3.264 13.26h-1c-.554-19.005-.554-19.005 3-27"/><path fill="#659ee3" d="m283 80 6 1v2l3.25.25c4.024.805 5.232 1.627 7.75 4.75-7.875-.875-7.875-.875-9-2a86 86 0 0 0-4.691-.535l-2.862-.264-3.01-.263-3.021-.276Q273.708 84.325 270 84v-1h13z"/><path fill="#bcd0f2" d="M364 374h1c.424 4.24.254 6.537-1.812 10.313-3.695 3.958-9 4.441-14.188 4.687-2.844-.465-2.844-.465-5-1v-2l2.957-.332 3.856-.48 3.832-.458c3.338-.726 4.448-.998 6.355-3.73.977-1.802.977-1.802 1.688-3.687z"/><path fill="#69abed" d="m292.313 172.875 2.533.027c2.051.024 4.103.06 6.154.098-4.979 3.32-8.694 4.277-14.687 4.25l-3.45.016C280 177 280 177 278 175c4.739-2.452 9.12-2.232 14.313-2.125"/><path fill="#75a1d3" d="M283 96c5.514-.337 9.004.559 13.938 3l3.464 1.688L303 102v2h2l-1 3-8-4v-2l-2.336-.402-3.039-.535-3.023-.528C285 99 285 99 283 98z"/><path fill="#a2cbf1" d="M309 187c-2.293 2.293-3.73 2.68-6.812 3.563l-2.583.753c-4.932 1.295-9.298 1.798-14.418 1.746l-3.519-.027L279 193v-1l1.863-.148 2.45-.227c.8-.07 1.6-.14 2.425-.21 2.534-.31 2.534-.31 5.262-2.415 5.954-1.536 11.865-2.273 18-2"/><path fill="#6dabec" d="m262 184 2.422.621c7.541 1.85 14.825 2.974 22.578 3.379v2c-5.772 1.312-10.54.582-16.328-.527-2.712-.56-2.712-.56-5.672-.473v-2l-3-1z"/><path fill="#6696eb" d="M156 314h1c1.584 5.95.333 11.215-.812 17.125l-.542 2.996c-.805 4.297-1.519 8.022-3.646 11.879-.114-6.766.12-13.288 1-20h1z"/><path fill="#95b8dc" d="M328 140h2c.375 4.377-.729 6.33-3 10l-.875 3.5c-1.98 6.157-7.258 9.539-12.125 13.5l-2-2 1.758-1.328C321.426 157.447 326.41 149.877 328 140"/><path fill="#d9e2f3" d="M228 113h1l-1 15-2-2c-1.94 1.94-1.4 5.473-1.562 8.063l-.254 3.91L224 141h-1c-.307-9.152-.494-17.348 3-26h2z"/><path fill="#88b4eb" d="M172 265h2l2 5-1.207 1.39c-2.704 3.133-5.373 6.249-7.793 9.61-2-1-2-1-3.125-4.062L163 274l3-3 2 3 2.563-2.812 1.44-1.583L173 268z"/><path fill="#b8d8f9" d="M374 328h1c-.441 4.668-.89 9.305-1.625 13.938-.602 3.097-.602 3.097.625 6.062l-3 1c-.806 2.106-.806 2.106-1.187 4.563l-.481 2.503L369 358h-2c1.107-6.747 2.504-13.408 4.063-20.062l.528-2.274c1.284-5.414 1.284-5.414 2.409-7.664"/><path fill="#90beeb" d="M251.25 155.625c3.426 1.713 5.881 3.84 8.75 6.375-3.875 1-3.875 1-5 1l-1 3a91 91 0 0 1-4-4v-2h-2l-1-4c2-1 2-1 4.25-.375"/><path fill="#7fb3e9" d="m243 173 5 1v2l2.25.188c3.569 1.054 4.672 2.811 6.75 5.812-7.759-.034-7.759-.034-10.71-2.332C243 175.761 243 175.761 243 173"/><path fill="#dce9f8" d="M228 136c2.785 3.92 1.811 7.786 1.125 12.25l-.316 2.258A559 559 0 0 1 228 156c-4.262-8.343-4.262-8.343-3.625-12.375L225 142l1 2 .438-3.437C227 137 227 137 228 136"/><path fill="#a5c3f0" d="m334 388 3 1-1 2c-2.161.594-2.161.594-4.988 1.07l-3.08.528-3.245.527c-1.058.182-2.117.364-3.208.55-4.24.713-8.169 1.325-12.479 1.325v-2l2.187-.351q4.876-.789 9.75-1.587l3.444-.552 3.271-.537 3.031-.492c2.269-.25 2.269-.25 3.317-1.481"/><path fill="#89aee6" d="M318 177c-1.473 3.882-3.48 4.976-7 7l-2 3h-4v-3h4l-1-5c3.62-1.316 6.096-2 10-2"/><path fill="#d9e7f7" d="m386 204 2 1a340 340 0 0 1-.375 4.313c-.07.8-.14 1.6-.21 2.425C387 214 387 214 385 217l-3-1v-8l4-2z"/><path fill="#a6cef2" d="M343 173c3.375.563 5.959 1.48 9 3h3l.25 2.375c.478 2.772.478 2.772 2.813 3.938L360 183l-3 1c-2.086-1.363-2.086-1.363-4.375-3.312-3.104-2.63-5.772-4.347-9.625-5.688z"/><path fill="#b8ccec" d="m355 374 1 6c-3.623 1.208-4.641.543-8-1l1-5c3-1 3-1 6 0"/><path fill="#b5c9de" d="M348 203c6.996 1.312 11.796 6.595 16 12 2.117 1.312 2.117 1.312 4 2v2l2 1c-3.384-.617-5.52-1.87-8.25-3.937l-2.14-1.59L358 213v-2l-1.625-.687c-3.178-1.757-5.656-3.903-8.375-6.313z"/><path fill="#7face5" d="m274.438 83.875 2.505.027c2.02.024 4.038.06 6.057.098v1l-3.656.332-4.844.48-2.398.213c-4.092.42-7.625 1.055-11.446 2.612-3.64 1.357-4.242 1.49-7.656.363 6.983-4.655 13.285-5.296 21.438-5.125"/><path fill="#aac2e8" d="m391 240-3 1-1.715-.96c-3.294-1.499-6.34-.994-9.848-.665q-2.142.17-4.285.332l-2.125.163c-4.339.279-8.682.213-13.027.13v-1c27.232-3.614 27.232-3.614 34 1"/><path fill="#d7e4f3" d="M329 216h3c1.69 5.283 1.292 10.671 0 16h-2z"/><path fill="#ccdff4" d="M184 194v1c-20.532 2.383-20.532 2.383-30 2v-1h8v-2q3.812-.293 7.625-.562l2.16-.17c4.252-.293 8.01-.163 12.215.732"/><path fill="#99baed" d="M146 382h3l-1 7-3 1 .07 2.012c.18 8.77.18 8.77-2.07 12.988-1.02-3.058-1.002-4.1-.477-7.16l.407-2.404.445-2.498.422-2.51c1.059-6.14 1.059-6.14 2.203-8.428"/><path fill="#8bb1f2" d="m149 364 2 2a86 86 0 0 1-.75 8l-.266 2.234c-.723 5.505-.723 5.505-2.984 7.766-1.31-4.304-.458-7.937.438-12.25l.447-2.258q.548-2.748 1.115-5.492"/><path fill="#c0dff9" d="M385 281h1l-.254 2.738-.308 3.575-.317 3.55c-.307 3.167-.307 3.167.879 6.137l-3 2c-.79 1.954-.79 1.954-1.187 4.125L381 307l-2-1z"/><path fill="#93cdf9" d="M258 169c1.828.805 1.828.805 4 2q2.37 1.075 4.75 2.125l2.422 1.07L271 175v2c-10.494-1.235-10.494-1.235-13.812-5.125L256 170z"/><path fill="#77ace7" d="M300 87c5.403 1.42 10.598 4.613 15 8v2c-3.795-1.45-7.368-3.184-11-5a384 384 0 0 0-7-3z"/><path fill="#a6c5ee" d="M197 412v1l-5 1v2h-18v-1c7.78-1.86 14.983-3.415 23-3"/><path fill="#a4c1e6" d="M371 348h2c-.48 5.569-1.3 10.67-3 16h-2c.48-5.569 1.3-10.67 3-16"/><path fill="#bed7f1" d="M228 134h2c2.553 6.84 4.564 12.662 4 20h-2l-.367-2.09A371 371 0 0 0 228 134"/><path fill="#89b0ed" d="M322 248v2c-3.314 2.21-4.345 2.225-8.187 2.125l-2.731-.055L309 252l-1-2q2.374-.506 4.75-1l2.672-.562C318 248 318 248 322 248"/><path fill="#c9dbed" d="M325 177h4l1 2 3 1-2 8h-1v-5h-2v-2h-2z"/><path fill="#9ebdec" d="M326 248h15l-1 2c-2.55.312-5.004.513-7.562.625l-2.155.117c-1.76.095-3.522.177-5.283.258z"/><path fill="#afcef8" d="M143 368h2q-.676 4.376-1.375 8.75l-.383 2.5-.39 2.422-.35 2.222c-.538 2.257-1.39 4.076-2.502 6.106-1.25-7.625-1.25-7.625 1-11v-4h2z"/><path fill="#a8cae8" d="M388 280c1.38 3.767.596 6.448-.437 10.25l-.872 3.266L386 296l-2-2c.242-2.82.242-2.82.875-6.125l.617-3.32L386 282h2z"/><path fill="#accbf1" d="M334 144h4l2 2c-.835 2.504-1.794 4.668-3 7h-2c-1.478-2.957-1.06-5.742-1-9"/><path fill="#a0b1ce" d="M385 218c-1.827 2.463-3.23 3.834-6.27 4.488-2.245.237-4.475.416-6.73.512 3.168-4.752 7.495-5.324 13-5"/><path fill="#68a3e3" d="M287 173h14c-4.836 3.224-7.27 3.092-13 3z"/><path fill="#bcd7f4" d="M234 157h2l-1 9h2c1.688 2.375 1.688 2.375 3 5l-1 2c-7-7.235-7-7.235-7-13z"/><path fill="#b0cfeb" d="m383 296 2 2c-.312 2.813-.312 2.813-1 6l-.562 2.875L383 309l-3 1q.465-2.657.938-5.312l.527-2.989C382 299 382 299 383 296"/><path fill="#a5c2ed" d="m325 241.688 2.563.011C330 242 330 242 334 244l-18 1c4.535-3.401 4.535-3.401 9-3.312"/><path fill="#95caf3" d="M250 181h12l1 2h-4l1 4c-4.853-1.323-6.233-2.233-10-6"/><path fill="#89b0d9" d="m278.688 94.875 3.574.055L285 95l-2 1v2l-14-1c3.632-2.421 5.383-2.21 9.688-2.125"/><path fill="#a4c5e6" d="M376 331c1.38 3.767.596 6.448-.437 10.25l-.872 3.266L374 347l-2-2c.31-5.263 1.795-9.303 4-14"/><path fill="#8eb0eb" d="M290 392c3 1 3 1 6 3-3.674.853-7.045 1.108-10.812 1.063l-2.958-.028L280 396l1-2h8z"/><path fill="#afcaf0" d="M138 391c2.213 3.485 2.046 5.634 1.25 9.625l-.547 2.914C138 406 138 406 136 408c-.253-6.069.302-11.162 2-17"/><path fill="#b4cbe7" d="M234 100c1.285 3.855.405 5.403-.937 9.188l-1.153 3.292L231 115c-1.148-3.968-.87-6.937 0-11 1.563-2.437 1.563-2.437 3-4"/><path fill="#a7c5ea" d="M322 96c4.595 3.55 7.765 6.477 10 12-3.593-1.198-4.42-2.468-6.687-5.437l-1.887-2.434C322 98 322 98 322 96"/><path fill="#afcbf6" d="M136 414h3v7l-3 1v-4l-2-1z"/><path fill="#a7c3f1" d="m300.938 393.813 2.714-.043C306 394 306 394 308 396c-1.414.224-2.832.428-4.25.625l-2.39.352c-2.682.026-4.087-.611-6.36-1.977 1.666-1.666 3.66-1.171 5.938-1.187"/><path fill="#abbfde" d="M363 372c1.26 2.98.991 4.023-.187 7.125-1.807 2.865-2.681 3.795-5.813 4.875v-4l4-1z"/><path fill="#75a4eb" d="m149 344 2 2c-.023 2.383-.023 2.383-.375 5.125l-.336 2.758L150 356h-3z"/><path fill="#9ebbe8" d="M137 406c2.46 3.69 3.125 5.274 3.063 9.625l-.028 2.477L140 420h-1v-6h-3z"/><path fill="#bccce1" d="m319 205-1 2c-3.701.841-7.213 1.111-11 1v-2c4.053-.982 7.839-1.082 12-1"/><path fill="#c0d4ed" d="m383 199 5 4c-1.377 2.754-3.367 3.515-6 5z"/><path fill="#d0dced" d="M336 190c3.786.54 5.554 2.117 8 5v2c-3.337-1.173-5.774-2.189-8-5z"/><path fill="#a5c4e2" d="M229 122c1.977 2.965 2.313 3.991 2.625 7.375l.223 2.395c.165 2.417.23 4.808.152 7.23-3.518-5.277-3.106-10.864-3-17"/><path fill="#9cb5e1" d="M142 408h1l-1 8h2l1 3-5 2z"/><path fill="#8ecbfe" d="M244 259h13l-2 3h-3v-2l-8 1z"/><path fill="#cad7e8" d="M381 209h1c.25 6.625.25 6.625-2 10h-3c1.11-3.487 2.263-6.775 4-10"/><path fill="#aacde9" d="M205 207q2.007 1.426 4 2.875l2.25 1.617L213 213v2c-2.972-1.125-5.334-2.223-8-4z"/><path fill="#81a9d7" d="m300 101 3 1v2h2l-1 3-8-4z"/><path fill="#b1cfeb" d="m391 241 4 3-1 6c-2-2-2-2-3-5l-2-2z"/><path fill="#baceeb" d="m374 192 8 6-1 2h-2v-2l-1.937-.75C375 196 375 196 374 192"/><path fill="#8daed4" d="m344 171-2 7h-2v-2h-2c1.127-3.38 2.212-5 6-5"/><path fill="#cadbf6" d="M364 374h1c.125 6.75.125 6.75-1 9l-4-1z"/><path fill="#8ec0eb" d="m274.125 188.938 3.32.59L280 190v1c-1.958.054-3.916.093-5.875.125l-3.305.07C268 191 268 191 266 189c2.91-1.455 4.958-.635 8.125-.062"/><path fill="#bbdaf8" d="m329 167 5 1v3h-7z"/><path fill="#92b5e1" d="m305 104 3 1v3h2v2c-3.688-.498-5.605-1.1-8-4h2z"/><path fill="#c0dff5" d="M390 259h3v7h-4c-.043-2-.04-4 0-6z"/><path fill="#e5f0fb" d="M385 207h2v6l-4 1c-.125-2.375-.125-2.375 0-5z"/><path fill="#9cc1e5" d="M299 82c4.128.607 7.332 2.038 11 4-4.25 1.417-6.719.193-11-1z"/><path fill="#9cbef2" d="M165 271c1.625 1.688 1.625 1.688 3 4-.812 2.75-.812 2.75-2 5l-3-6z"/><path fill="#8fc0ec" d="M246 163h2v2h2l1 2 3 2c-4 0-4 0-7-1z"/><path fill="#a9bde9" d="M366 366h3l-2 10h-1z"/><path fill="#becddc" d="m348 197 1.688.875c2.397 1.166 4.828 2.159 7.312 3.125v3c-4.419-1.35-6.343-3.261-9-7"/><path fill="#7eb4e9" d="M304 173v2c-3.83 1.802-6.781 2.196-11 2 3.389-2.26 6.848-4 11-4"/><path fill="#b1dcfc" d="M160 274h3l-2 10h-1z"/><path fill="#93b8e5" d="M236 164c1.938.688 1.938.688 4 2 .75 2.625.75 2.625 1 5l-3-1c-1.187-3.062-1.187-3.062-2-6"/><path fill="#aacbeb" d="m314 161 2 2-7 5-2-1z"/></svg>
