<?xml version="1.0" encoding="UTF-8"?>
<svg version="1.1" xmlns="http://www.w3.org/2000/svg" width="409" height="446">
<path d="M0 0 C3.30261134 2.00115856 5.84060519 4.449257 8.4375 7.3125 C10.31417767 9.13398127 12.19692634 10.94896329 14.08203125 12.76171875 C15.4375 14.3125 15.4375 14.3125 15.4375 16.3125 C16.0975 16.3125 16.7575 16.3125 17.4375 16.3125 C17.4375 16.9725 17.4375 17.6325 17.4375 18.3125 C18.0975 18.3125 18.7575 18.3125 19.4375 18.3125 C19.4375 18.9725 19.4375 19.6325 19.4375 20.3125 C20.0975 20.3125 20.7575 20.3125 21.4375 20.3125 C21.4375 20.9725 21.4375 21.6325 21.4375 22.3125 C22.0975 22.3125 22.7575 22.3125 23.4375 22.3125 C25.09375 23.921875 25.09375 23.921875 26.9375 26.0625 C27.5459375 26.75859375 28.154375 27.4546875 28.78125 28.171875 C30.31726963 30.15710792 31.4098966 32.03122045 32.4375 34.3125 C33.0975 34.3125 33.7575 34.3125 34.4375 34.3125 C34.4375 34.9725 34.4375 35.6325 34.4375 36.3125 C35.0975 36.3125 35.7575 36.3125 36.4375 36.3125 C36.4375 36.9725 36.4375 37.6325 36.4375 38.3125 C37.0975 38.3125 37.7575 38.3125 38.4375 38.3125 C38.4375 38.9725 38.4375 39.6325 38.4375 40.3125 C39.0975 40.3125 39.7575 40.3125 40.4375 40.3125 C41.84765625 41.7109375 41.84765625 41.7109375 43.5 43.6875 C46.23211527 46.91946173 49.04562249 50.03538728 51.9375 53.125 C60.07582378 62.13975865 65.83734712 70.78833057 65.75 83.0625 C65.74262817 84.27292969 65.74262817 84.27292969 65.73510742 85.5078125 C65.62125007 91.2812562 64.97600555 96.07237207 62.4375 101.3125 C62.08558594 102.14007813 61.73367188 102.96765625 61.37109375 103.8203125 C59.00117627 109.06072409 56.34602459 112.84562145 52.12109375 116.734375 C50.20999716 118.4545907 50.20999716 118.4545907 48 121.3125 C45.41997244 124.33302007 42.69336247 126.75645116 39.68359375 129.328125 C34.0531141 134.30253137 28.73623556 139.65560886 23.9375 145.4375 C23.1125 146.38625 22.2875 147.335 21.4375 148.3125 C20.7775 148.3125 20.1175 148.3125 19.4375 148.3125 C19.4375 148.9725 19.4375 149.6325 19.4375 150.3125 C18.7775 150.3125 18.1175 150.3125 17.4375 150.3125 C17.4375 150.9725 17.4375 151.6325 17.4375 152.3125 C16.7775 152.3125 16.1175 152.3125 15.4375 152.3125 C15.4375 152.9725 15.4375 153.6325 15.4375 154.3125 C14.7775 154.3125 14.1175 154.3125 13.4375 154.3125 C13.4375 154.9725 13.4375 155.6325 13.4375 156.3125 C12.7775 156.3125 12.1175 156.3125 11.4375 156.3125 C11.4375 156.9725 11.4375 157.6325 11.4375 158.3125 C10.0625 159.9375 10.0625 159.9375 8.4375 161.3125 C7.7775 161.3125 7.1175 161.3125 6.4375 161.3125 C6.4375 161.9725 6.4375 162.6325 6.4375 163.3125 C5.7775 163.3125 5.1175 163.3125 4.4375 163.3125 C4.2209375 163.85390625 4.004375 164.3953125 3.78125 164.953125 C1.97250003 168.12895344 -0.47973799 170.51978081 -3.0625 173.0625 C-3.56136719 173.56910156 -4.06023437 174.07570312 -4.57421875 174.59765625 C-8.30908861 178.3125 -8.30908861 178.3125 -10.5625 178.3125 C-10.8925 179.3025 -11.2225 180.2925 -11.5625 181.3125 C-15.8910729 180.83605287 -17.93439748 178.27378788 -20.875 175.25 C-21.35702881 174.75773926 -21.83905762 174.26547852 -22.33569336 173.75830078 C-25.77417078 170.21813405 -29.05967027 166.56283391 -32.22265625 162.7734375 C-33.51889013 161.18559189 -33.51889013 161.18559189 -35.5625 160.3125 C-35.5625 159.6525 -35.5625 158.9925 -35.5625 158.3125 C-36.2225 158.3125 -36.8825 158.3125 -37.5625 158.3125 C-37.5625 157.6525 -37.5625 156.9925 -37.5625 156.3125 C-38.2225 156.3125 -38.8825 156.3125 -39.5625 156.3125 C-39.5625 155.6525 -39.5625 154.9925 -39.5625 154.3125 C-40.2225 154.3125 -40.8825 154.3125 -41.5625 154.3125 C-41.5625 153.6525 -41.5625 152.9925 -41.5625 152.3125 C-42.2225 152.3125 -42.8825 152.3125 -43.5625 152.3125 C-43.5625 151.6525 -43.5625 150.9925 -43.5625 150.3125 C-44.2225 150.3125 -44.8825 150.3125 -45.5625 150.3125 C-45.5625 149.6525 -45.5625 148.9925 -45.5625 148.3125 C-46.5525 147.9825 -47.5425 147.6525 -48.5625 147.3125 C-48.5625 146.6525 -48.5625 145.9925 -48.5625 145.3125 C-49.2225 145.3125 -49.8825 145.3125 -50.5625 145.3125 C-50.5625 144.6525 -50.5625 143.9925 -50.5625 143.3125 C-51.2225 143.3125 -51.8825 143.3125 -52.5625 143.3125 C-54.3125 141.625 -54.3125 141.625 -55.5625 139.3125 C-54.38785156 134.96920114 -52.12528545 132.52659241 -48.9375 129.4375 C-47.60332031 128.14005859 -47.60332031 128.14005859 -46.2421875 126.81640625 C-43.28325832 124.05157592 -40.26603631 121.37876901 -37.15625 118.78515625 C-35.321759 117.20560003 -35.321759 117.20560003 -33.5625 114.3125 C-32.9025 114.3125 -32.2425 114.3125 -31.5625 114.3125 C-31.5625 113.6525 -31.5625 112.9925 -31.5625 112.3125 C-30.9025 112.3125 -30.2425 112.3125 -29.5625 112.3125 C-29.5625 111.6525 -29.5625 110.9925 -29.5625 110.3125 C-28.9025 110.3125 -28.2425 110.3125 -27.5625 110.3125 C-27.1603125 109.4153125 -27.1603125 109.4153125 -26.75 108.5 C-25.56332594 106.31402146 -24.46650887 104.89917406 -22.5625 103.3125 C-21.9025 103.3125 -21.2425 103.3125 -20.5625 103.3125 C-20.5625 102.6525 -20.5625 101.9925 -20.5625 101.3125 C-19.9025 101.3125 -19.2425 101.3125 -18.5625 101.3125 C-18.5625 100.6525 -18.5625 99.9925 -18.5625 99.3125 C-17.9025 99.3125 -17.2425 99.3125 -16.5625 99.3125 C-16.5625 98.6525 -16.5625 97.9925 -16.5625 97.3125 C-15.9025 97.3125 -15.2425 97.3125 -14.5625 97.3125 C-14.5625 96.6525 -14.5625 95.9925 -14.5625 95.3125 C-13.9025 95.3125 -13.2425 95.3125 -12.5625 95.3125 C-12.5625 94.6525 -12.5625 93.9925 -12.5625 93.3125 C-11.9025 93.3125 -11.2425 93.3125 -10.5625 93.3125 C-10.1603125 92.4153125 -10.1603125 92.4153125 -9.75 91.5 C-8.56332594 89.31402146 -7.46650887 87.89917406 -5.5625 86.3125 C-4.9025 86.3125 -4.2425 86.3125 -3.5625 86.3125 C-2.9025 84.3325 -2.2425 82.3525 -1.5625 80.3125 C-2.0678125 79.83039063 -2.573125 79.34828125 -3.09375 78.8515625 C-4.06828125 77.90410156 -4.06828125 77.90410156 -5.0625 76.9375 C-5.7121875 76.31101562 -6.361875 75.68453125 -7.03125 75.0390625 C-8.5625 73.3125 -8.5625 73.3125 -8.5625 71.3125 C-11.91188173 71.88522978 -13.42470413 72.8693386 -15.6875 75.375 C-17.1953125 77.03515625 -17.1953125 77.03515625 -18.5625 78.3125 C-19.2225 78.3125 -19.8825 78.3125 -20.5625 78.3125 C-20.5625 78.9725 -20.5625 79.6325 -20.5625 80.3125 C-21.2225 80.3125 -21.8825 80.3125 -22.5625 80.3125 C-22.94921875 81.18648437 -22.94921875 81.18648437 -23.34375 82.078125 C-24.66084017 84.4927903 -26.11338384 86.12990177 -28.0625 88.0625 C-28.6709375 88.67609375 -29.279375 89.2896875 -29.90625 89.921875 C-31.5625 91.3125 -31.5625 91.3125 -33.5625 91.3125 C-33.78779892 91.8634433 -34.01309784 92.4143866 -34.245224 92.98202515 C-35.96737838 96.0287955 -38.15320778 98.13423457 -40.63891602 100.60009766 C-41.15454102 101.11440842 -41.67016602 101.62871918 -42.20141602 102.15861511 C-43.9018575 103.85258065 -45.60915869 105.53945909 -47.31640625 107.2265625 C-48.49993288 108.40381728 -49.68294486 109.58158966 -50.86546326 110.75985718 C-53.97619615 113.85729833 -57.09244975 116.94912007 -60.21032715 120.03936768 C-65.20572435 124.9916105 -70.19438271 129.95061952 -75.17985344 134.91285324 C-76.92414743 136.64690502 -78.67180365 138.37751525 -80.41981506 140.1078186 C-81.48515033 141.16632804 -82.55037742 142.22494635 -83.61547852 143.28369141 C-84.5487648 144.20872467 -85.48205109 145.13375793 -86.44361877 146.08682251 C-88.59042017 148.12432438 -88.59042017 148.12432438 -89.5625 150.3125 C-90.2225 150.3125 -90.8825 150.3125 -91.5625 150.3125 C-91.789375 150.869375 -92.01625 151.42625 -92.25 152 C-93.93800036 154.97409588 -96.02926517 157.03258865 -98.5625 159.3125 C-99.2225 159.3125 -99.8825 159.3125 -100.5625 159.3125 C-100.5625 159.9725 -100.5625 160.6325 -100.5625 161.3125 C-101.2225 161.3125 -101.8825 161.3125 -102.5625 161.3125 C-102.5625 161.9725 -102.5625 162.6325 -102.5625 163.3125 C-103.2225 163.3125 -103.8825 163.3125 -104.5625 163.3125 C-104.5625 163.9725 -104.5625 164.6325 -104.5625 165.3125 C-105.2225 165.3125 -105.8825 165.3125 -106.5625 165.3125 C-106.5625 165.9725 -106.5625 166.6325 -106.5625 167.3125 C-107.2225 167.3125 -107.8825 167.3125 -108.5625 167.3125 C-108.5625 167.9725 -108.5625 168.6325 -108.5625 169.3125 C-109.2225 169.3125 -109.8825 169.3125 -110.5625 169.3125 C-110.77640381 169.85310059 -110.99030762 170.39370117 -111.21069336 170.95068359 C-113.04824755 174.1611765 -115.56479049 176.54122771 -118.19140625 179.1015625 C-118.7411058 179.64606049 -119.29080536 180.19055847 -119.85716248 180.7515564 C-121.60841176 182.48503779 -123.36621688 184.21166551 -125.125 185.9375 C-126.88645811 187.67134152 -128.64643623 189.40662183 -130.40354919 191.14486694 C-131.49591505 192.22497367 -132.59094296 193.30239603 -133.68885803 194.37686157 C-136.47801945 197.07563489 -136.47801945 197.07563489 -138.5625 200.3125 C-140.2125 200.3125 -141.8625 200.3125 -143.5625 200.3125 C-143.90308049 125.74109088 -143.90308049 125.74109088 -127.99853516 108.85595703 C-126.06764208 106.78062449 -124.25753739 104.61004989 -122.4375 102.4375 C-120.8671875 100.5703125 -120.8671875 100.5703125 -119.5625 99.3125 C-118.9025 99.3125 -118.2425 99.3125 -117.5625 99.3125 C-117.5625 98.6525 -117.5625 97.9925 -117.5625 97.3125 C-116.9025 97.3125 -116.2425 97.3125 -115.5625 97.3125 C-115.5625 96.6525 -115.5625 95.9925 -115.5625 95.3125 C-114.9025 95.3125 -114.2425 95.3125 -113.5625 95.3125 C-113.5625 94.6525 -113.5625 93.9925 -113.5625 93.3125 C-112.9025 93.3125 -112.2425 93.3125 -111.5625 93.3125 C-111.5625 92.6525 -111.5625 91.9925 -111.5625 91.3125 C-110.9025 91.3125 -110.2425 91.3125 -109.5625 91.3125 C-109.3046875 90.74015625 -109.046875 90.1678125 -108.78125 89.578125 C-107.44884058 87.10121005 -105.91193882 85.1783834 -104.0625 83.0625 C-103.14984375 82.00289062 -103.14984375 82.00289062 -102.21875 80.921875 C-100.5625 79.3125 -100.5625 79.3125 -98.5625 79.3125 C-98.5625 78.6525 -98.5625 77.9925 -98.5625 77.3125 C-97.9025 77.3125 -97.2425 77.3125 -96.5625 77.3125 C-96.5625 76.6525 -96.5625 75.9925 -96.5625 75.3125 C-95.9025 75.3125 -95.2425 75.3125 -94.5625 75.3125 C-94.18158203 74.43851563 -94.18158203 74.43851563 -93.79296875 73.546875 C-92.42929667 71.07061967 -90.92024797 69.50729374 -88.875 67.5625 C-85.34578006 64.14256374 -82.13844577 60.56713209 -79.0078125 56.78125 C-78.53085938 56.2965625 -78.05390625 55.811875 -77.5625 55.3125 C-76.9025 55.3125 -76.2425 55.3125 -75.5625 55.3125 C-75.5625 54.6525 -75.5625 53.9925 -75.5625 53.3125 C-74.9025 53.3125 -74.2425 53.3125 -73.5625 53.3125 C-73.29711426 52.7249292 -73.03172852 52.1373584 -72.75830078 51.53198242 C-71.52668446 49.24602408 -70.22068012 47.67219528 -68.4296875 45.80078125 C-67.48005127 44.80075073 -67.48005127 44.80075073 -66.51123047 43.78051758 C-65.82689941 43.06919678 -65.14256836 42.35787598 -64.4375 41.625 C-62.97896045 40.09394642 -61.52063305 38.56269072 -60.0625 37.03125 C-59.31484375 36.24878906 -58.5671875 35.46632812 -57.796875 34.66015625 C-54.98804546 31.70892102 -52.20786116 28.73164364 -49.42797852 25.75317383 C-46.15717357 22.25610444 -42.86274256 18.78177331 -39.5625 15.3125 C-38.59787842 14.29470459 -38.59787842 14.29470459 -37.61376953 13.25634766 C-35.7546021 11.30462325 -33.88029517 9.36885426 -32 7.4375 C-31.45263184 6.86040283 -30.90526367 6.28330566 -30.34130859 5.6887207 C-22.4850791 -2.28173313 -10.40698529 -4.86714521 0 0 Z " fill="#F67F2E" transform="translate(234.5625,77.6875)"/>
<path d="M0 0 C1.32 0 2.64 0 4 0 C4.36126629 74.19853889 4.36126629 74.19853889 -6.625 86.875 C-8 88 -8 88 -10 88 C-10.268125 88.58265625 -10.53625 89.1653125 -10.8125 89.765625 C-12.01480991 92.02786601 -13.33825913 93.80576318 -15 95.75 C-15.515625 96.36359375 -16.03125 96.9771875 -16.5625 97.609375 C-18 99 -18 99 -20 99 C-20 99.66 -20 100.32 -20 101 C-20.66 101 -21.32 101 -22 101 C-22 101.66 -22 102.32 -22 103 C-22.66 103 -23.32 103 -24 103 C-24 103.66 -24 104.32 -24 105 C-24.66 105 -25.32 105 -26 105 C-26.24878906 105.5775 -26.49757813 106.155 -26.75390625 106.75 C-28.17603049 109.31784817 -29.81623509 110.97749044 -31.9375 113 C-34.04313532 115.01511268 -35.91791777 116.88662023 -37.62890625 119.25 C-38.30759766 120.11625 -38.30759766 120.11625 -39 121 C-39.66 121 -40.32 121 -41 121 C-41 121.66 -41 122.32 -41 123 C-41.66 123 -42.32 123 -43 123 C-43 123.66 -43 124.32 -43 125 C-43.66 125 -44.32 125 -45 125 C-45.25394531 125.58265625 -45.50789062 126.1653125 -45.76953125 126.765625 C-47.13320333 129.24188033 -48.64225203 130.80520626 -50.6875 132.75 C-54.21671994 136.16993626 -57.42405423 139.74536791 -60.5546875 143.53125 C-61.03164063 144.0159375 -61.50859375 144.500625 -62 145 C-62.66 145 -63.32 145 -64 145 C-64 145.66 -64 146.32 -64 147 C-64.66 147 -65.32 147 -66 147 C-66.268125 147.5775 -66.53625 148.155 -66.8125 148.75 C-68.02929189 151.05550043 -69.30333879 153.02056192 -71 155 C-71.66 155 -72.32 155 -73 155 C-73.30744141 155.80050781 -73.30744141 155.80050781 -73.62109375 156.6171875 C-75.57832646 159.99937434 -78.2596965 162.43037488 -81.0625 165.125 C-85.0044894 168.69553366 -85.0044894 168.69553366 -88 173 C-88.66 173 -89.32 173 -90 173 C-90 173.66 -90 174.32 -90 175 C-90.66 175 -91.32 175 -92 175 C-92.268125 175.58265625 -92.53625 176.1653125 -92.8125 176.765625 C-94.01480991 179.02786601 -95.33825913 180.80576318 -97 182.75 C-97.515625 183.36359375 -98.03125 183.9771875 -98.5625 184.609375 C-100 186 -100 186 -102 186 C-102 186.66 -102 187.32 -102 188 C-102.66 188 -103.32 188 -104 188 C-104 188.66 -104 189.32 -104 190 C-104.66 190 -105.32 190 -106 190 C-106.20625 190.556875 -106.4125 191.11375 -106.625 191.6875 C-109.14949006 195.93323329 -113.36821898 199.26308212 -118 201 C-125.76690929 202.80625798 -133.96252787 203.14123127 -141 199 C-144.54598327 196.20860197 -147.77548577 193.15331044 -151 190 C-152.19496094 188.86304688 -152.19496094 188.86304688 -153.4140625 187.703125 C-157.50039535 183.7467462 -157.50039535 183.7467462 -159 182 C-159 181.34 -159 180.68 -159 180 C-159.639375 179.731875 -160.27875 179.46375 -160.9375 179.1875 C-163 178 -163 178 -164 175 C-164.66 175 -165.32 175 -166 175 C-167.62109375 173.35546875 -167.62109375 173.35546875 -169.4375 171.1875 C-171.97339332 168.17536735 -171.97339332 168.17536735 -174.72265625 165.36328125 C-176 164 -176 164 -176 162 C-176.66 162 -177.32 162 -178 162 C-178 161.34 -178 160.68 -178 160 C-178.66 160 -179.32 160 -180 160 C-181.375 158.63671875 -181.375 158.63671875 -183 156.6875 C-185.09740046 154.19601595 -187.20844312 151.78431241 -189.47265625 149.44140625 C-200.99063087 137.47174635 -204.51251891 126.83788428 -204.28515625 110.73046875 C-203.96682767 102.59629384 -200.80920687 96.4580778 -196 90 C-195.42636719 89.22011719 -194.85273438 88.44023437 -194.26171875 87.63671875 C-190.65110506 82.83004256 -190.65110506 82.83004256 -189 81 C-188.34 81 -187.68 81 -187 81 C-187 80.34 -187 79.68 -187 79 C-186.34 79 -185.68 79 -185 79 C-185 78.34 -185 77.68 -185 77 C-183.24316406 76.29174805 -183.24316406 76.29174805 -181 76 C-179.07714844 77.32348633 -179.07714844 77.32348633 -177.109375 79.33203125 C-176.40039062 80.04810547 -175.69140625 80.76417969 -174.9609375 81.50195312 C-173.86652344 82.64567383 -173.86652344 82.64567383 -172.75 83.8125 C-172.00492188 84.56337891 -171.25984375 85.31425781 -170.4921875 86.08789062 C-165 91.70581502 -165 91.70581502 -165 94 C-164.34 94 -163.68 94 -163 94 C-163 94.66 -163 95.32 -163 96 C-162.34 96 -161.68 96 -161 96 C-161 96.66 -161 97.32 -161 98 C-160.34 98 -159.68 98 -159 98 C-159 98.66 -159 99.32 -159 100 C-158.40670898 100.26425781 -157.81341797 100.52851563 -157.20214844 100.80078125 C-154.91844992 102.04440953 -153.5285341 103.29115225 -151.765625 105.1875 C-151.19199219 105.80367188 -150.61835938 106.41984375 -150.02734375 107.0546875 C-149.14755859 108.01761719 -149.14755859 108.01761719 -148.25 109 C-147.64800781 109.64195312 -147.04601562 110.28390625 -146.42578125 110.9453125 C-142 115.7424178 -142 115.7424178 -142 118 C-141.34 118 -140.68 118 -140 118 C-140 118.66 -140 119.32 -140 120 C-139.34 120 -138.68 120 -138 120 C-138 120.66 -138 121.32 -138 122 C-137.34 122 -136.68 122 -136 122 C-136 122.66 -136 123.32 -136 124 C-135.13375 124.37125 -135.13375 124.37125 -134.25 124.75 C-131.69890938 126.16727257 -130.02026893 127.91182287 -128 130 C-122.51138028 124.53467721 -117.02555908 119.06656183 -111.54317379 113.59498596 C-108.99667306 111.05367641 -106.44926235 108.51329395 -103.8996582 105.97509766 C-101.43351795 103.51992136 -98.96991699 101.06222208 -96.507967 98.60284424 C-95.12339044 97.22098095 -93.73627877 95.84165925 -92.34910583 94.46240234 C-87.88709145 90.00077967 -83.55894353 85.49194073 -79.46949768 80.68481445 C-78.03297055 79.03780153 -76.6323215 77.45488959 -75 76 C-74.34 76 -73.68 76 -73 76 C-73 75.34 -73 74.68 -73 74 C-72.34 74 -71.68 74 -71 74 C-71 73.34 -71 72.68 -71 72 C-70.34 72 -69.68 72 -69 72 C-69 71.34 -69 70.68 -69 70 C-68.34 70 -67.68 70 -67 70 C-67 69.34 -67 68.68 -67 68 C-66.34 68 -65.68 68 -65 68 C-64.67 67.01 -64.34 66.02 -64 65 C-63.34 65 -62.68 65 -62 65 C-62 64.34 -62 63.68 -62 63 C-61.34 63 -60.68 63 -60 63 C-60 62.34 -60 61.68 -60 61 C-59.34 61 -58.68 61 -58 61 C-58 60.34 -58 59.68 -58 59 C-57.34 59 -56.68 59 -56 59 C-55.74549072 58.41879395 -55.49098145 57.83758789 -55.22875977 57.23876953 C-53.86941324 54.76207419 -52.36088903 53.14865555 -50.33984375 51.1796875 C-49.62892578 50.47972656 -48.91800781 49.77976563 -48.18554688 49.05859375 C-47.44369141 48.33800781 -46.70183594 47.61742187 -45.9375 46.875 C-44.46526807 45.43712439 -42.99510844 43.99712292 -41.52734375 42.5546875 C-40.87499756 41.92030762 -40.22265137 41.28592773 -39.55053711 40.63232422 C-37.91114 39.06540833 -37.91114 39.06540833 -37 37 C-36.34 37 -35.68 37 -35 37 C-35 36.34 -35 35.68 -35 35 C-34.34 35 -33.68 35 -33 35 C-33 34.34 -33 33.68 -33 33 C-31.35546875 31.4140625 -31.35546875 31.4140625 -29.1875 29.625 C-26.93749143 27.76433718 -25.09649715 26.13127297 -23.36328125 23.7734375 C-22.68845703 22.89558594 -22.68845703 22.89558594 -22 22 C-21.34 22 -20.68 22 -20 22 C-19.79375 21.46890625 -19.5875 20.9378125 -19.375 20.390625 C-17.42038808 16.99226564 -14.77876283 14.48944072 -12 11.75 C-11.4534375 11.19570312 -10.906875 10.64140625 -10.34375 10.0703125 C-6.2533867 6 -6.2533867 6 -4 6 C-3.71125 5.38125 -3.4225 4.7625 -3.125 4.125 C-2 2 -2 2 0 0 Z " fill="#F15F39" transform="translate(350,151)"/>
<path d="M0 0 C0.96801157 3.20419333 1.04599979 5.9773108 0.9375 9.3125 C0.90630029 15.17024473 1.05273101 19.95553514 5.26953125 24.3828125 C6.17058594 25.24648437 7.07164062 26.11015625 8 27 C11.33333333 30.33333333 14.66666667 33.66666667 18 37 C18.87269531 37.86109375 19.74539062 38.7221875 20.64453125 39.609375 C22.44732 41.43907105 24.09691866 43.24195711 25.6875 45.25 C27.7042322 48.01742194 27.7042322 48.01742194 30 49 C28.40907948 53.13639336 25.39525082 56.23213248 22 59 C21.34 59 20.68 59 20 59 C20 59.66 20 60.32 20 61 C19.34 61 18.68 61 18 61 C17.61328125 61.87398437 17.61328125 61.87398437 17.21875 62.765625 C15.90165983 65.1802903 14.44911616 66.81740177 12.5 68.75 C11.8915625 69.36359375 11.283125 69.9771875 10.65625 70.609375 C9 72 9 72 7 72 C6.77470108 72.5509433 6.54940216 73.1018866 6.317276 73.66952515 C4.59512162 76.7162955 2.40929222 78.82173457 -0.07641602 81.28759766 C-0.59204102 81.80190842 -1.10766602 82.31621918 -1.63891602 82.84611511 C-3.3393575 84.54008065 -5.04665869 86.22695909 -6.75390625 87.9140625 C-7.93743288 89.09131728 -9.12044486 90.26908966 -10.30296326 91.44735718 C-13.41369615 94.54479833 -16.52994975 97.63662007 -19.64782715 100.72686768 C-24.64322435 105.6791105 -29.63188271 110.63811952 -34.61735344 115.60035324 C-36.36164743 117.33440502 -38.10930365 119.06501525 -39.85731506 120.7953186 C-40.92265033 121.85382804 -41.98787742 122.91244635 -43.05297852 123.97119141 C-43.9862648 124.89622467 -44.91955109 125.82125793 -45.88111877 126.77432251 C-48.02792017 128.81182438 -48.02792017 128.81182438 -49 131 C-49.66 131 -50.32 131 -51 131 C-51.226875 131.556875 -51.45375 132.11375 -51.6875 132.6875 C-53.37550036 135.66159588 -55.46676517 137.72008865 -58 140 C-58.66 140 -59.32 140 -60 140 C-60 140.66 -60 141.32 -60 142 C-60.66 142 -61.32 142 -62 142 C-62 142.66 -62 143.32 -62 144 C-62.66 144 -63.32 144 -64 144 C-64 144.66 -64 145.32 -64 146 C-64.66 146 -65.32 146 -66 146 C-66 146.66 -66 147.32 -66 148 C-66.66 148 -67.32 148 -68 148 C-68 148.66 -68 149.32 -68 150 C-68.66 150 -69.32 150 -70 150 C-70.21390381 150.54060059 -70.42780762 151.08120117 -70.64819336 151.63818359 C-72.48574755 154.8486765 -75.00229049 157.22872771 -77.62890625 159.7890625 C-78.1786058 160.33356049 -78.72830536 160.87805847 -79.29466248 161.4390564 C-81.04591176 163.17253779 -82.80371688 164.89916551 -84.5625 166.625 C-86.32395811 168.35884152 -88.08393623 170.09412183 -89.84104919 171.83236694 C-90.93341505 172.91247367 -92.02844296 173.98989603 -93.12635803 175.06436157 C-95.91551945 177.76313489 -95.91551945 177.76313489 -98 181 C-99.65 181 -101.3 181 -103 181 C-103.34058049 106.42859088 -103.34058049 106.42859088 -87.43603516 89.54345703 C-85.50514208 87.46812449 -83.69503739 85.29754989 -81.875 83.125 C-80.3046875 81.2578125 -80.3046875 81.2578125 -79 80 C-78.34 80 -77.68 80 -77 80 C-77 79.34 -77 78.68 -77 78 C-76.34 78 -75.68 78 -75 78 C-75 77.34 -75 76.68 -75 76 C-74.34 76 -73.68 76 -73 76 C-73 75.34 -73 74.68 -73 74 C-72.34 74 -71.68 74 -71 74 C-71 73.34 -71 72.68 -71 72 C-70.34 72 -69.68 72 -69 72 C-68.7421875 71.42765625 -68.484375 70.8553125 -68.21875 70.265625 C-66.88634058 67.78871005 -65.34943882 65.8658834 -63.5 63.75 C-62.58734375 62.69039062 -62.58734375 62.69039062 -61.65625 61.609375 C-60 60 -60 60 -58 60 C-58 59.34 -58 58.68 -58 58 C-57.34 58 -56.68 58 -56 58 C-56 57.34 -56 56.68 -56 56 C-55.34 56 -54.68 56 -54 56 C-53.61908203 55.12601563 -53.61908203 55.12601563 -53.23046875 54.234375 C-51.86679667 51.75811967 -50.35774797 50.19479374 -48.3125 48.25 C-44.78328006 44.83006374 -41.57594577 41.25463209 -38.4453125 37.46875 C-37.96835938 36.9840625 -37.49140625 36.499375 -37 36 C-36.34 36 -35.68 36 -35 36 C-35 35.34 -35 34.68 -35 34 C-34.34 34 -33.68 34 -33 34 C-32.73823975 33.41605469 -32.47647949 32.83210938 -32.20678711 32.23046875 C-30.9314567 29.87331346 -29.54355179 28.24332568 -27.69140625 26.3125 C-27.03172852 25.61898437 -26.37205078 24.92546875 -25.69238281 24.2109375 C-24.98952148 23.48132813 -24.28666016 22.75171875 -23.5625 22 C-22.10977653 20.48002686 -20.65795825 18.95918809 -19.20703125 17.4375 C-18.49240723 16.68855469 -17.7777832 15.93960938 -17.04150391 15.16796875 C-15.20807533 13.22096495 -13.4123885 11.24959391 -11.63671875 9.25 C-10.89603149 8.41855469 -10.89603149 8.41855469 -10.14038086 7.5703125 C-8.83277375 6.09348565 -7.53329164 4.60947616 -6.234375 3.125 C-4.04025478 1.03828427 -2.96066911 0.32594522 0 0 Z " fill="#F35D3E" transform="translate(194,97)"/>
<path d="M0 0 C3.07003234 1.18718386 5.13937345 2.88297709 7.453125 5.1875 C8.071875 5.80367187 8.690625 6.41984375 9.328125 7.0546875 C9.96234375 7.69664062 10.5965625 8.33859375 11.25 9 C11.8996875 9.64195312 12.549375 10.28390625 13.21875 10.9453125 C13.83234375 11.56148437 14.4459375 12.17765625 15.078125 12.8125 C15.91972168 13.65748047 15.91972168 13.65748047 16.77832031 14.51953125 C18 16 18 16 18 18 C18.66 18 19.32 18 20 18 C20 18.66 20 19.32 20 20 C20.66 20 21.32 20 22 20 C22 20.66 22 21.32 22 22 C22.66 22 23.32 22 24 22 C24 22.66 24 23.32 24 24 C24.59329102 24.26425781 25.18658203 24.52851563 25.79785156 24.80078125 C28.08155008 26.04440953 29.4714659 27.29115225 31.234375 29.1875 C31.80800781 29.80367188 32.38164062 30.41984375 32.97265625 31.0546875 C33.85244141 32.01761719 33.85244141 32.01761719 34.75 33 C35.35199219 33.64195312 35.95398438 34.28390625 36.57421875 34.9453125 C41 39.7424178 41 39.7424178 41 42 C41.66 42 42.32 42 43 42 C43 42.66 43 43.32 43 44 C43.66 44 44.32 44 45 44 C45 44.66 45 45.32 45 46 C45.66 46 46.32 46 47 46 C47 46.66 47 47.32 47 48 C47.598125 48.2475 48.19625 48.495 48.8125 48.75 C51.31626919 50.18072525 52.48072388 51.5691582 54 54 C54 54.66 54 55.32 54 56 C54.66 56 55.32 56 56 56 C59.48360054 59.19330049 62.49147296 62.71580305 65.5390625 66.3203125 C66.76007923 67.72415526 68.05939057 69.05939057 69.375 70.375 C77.17526209 78.17526209 84.10888982 85.77277743 86 97 C86.99 96.67 87.98 96.34 89 96 C89.33 93.03 89.66 90.06 90 87 C90.33 87 90.66 87 91 87 C91 89.97 91 92.94 91 96 C92.98 96.495 92.98 96.495 95 97 C94.34 97 93.68 97 93 97 C93 97.66 93 98.32 93 99 C92.34 99 91.68 99 91 99 C90.731875 99.58265625 90.46375 100.1653125 90.1875 100.765625 C88.98519009 103.02786601 87.66174087 104.80576318 86 106.75 C85.484375 107.36359375 84.96875 107.9771875 84.4375 108.609375 C83 110 83 110 81 110 C81 110.66 81 111.32 81 112 C80.34 112 79.68 112 79 112 C79 112.66 79 113.32 79 114 C78.34 114 77.68 114 77 114 C76.79375 114.556875 76.5875 115.11375 76.375 115.6875 C73.85050994 119.93323329 69.63178102 123.26308212 65 125 C57.23309071 126.80625798 49.03747213 127.14123127 42 123 C38.45401673 120.20860197 35.22451423 117.15331044 32 114 C30.80503906 112.86304688 30.80503906 112.86304688 29.5859375 111.703125 C25.49960465 107.7467462 25.49960465 107.7467462 24 106 C24 105.34 24 104.68 24 104 C23.360625 103.731875 22.72125 103.46375 22.0625 103.1875 C20 102 20 102 19 99 C18.34 99 17.68 99 17 99 C15.37890625 97.35546875 15.37890625 97.35546875 13.5625 95.1875 C11.02660668 92.17536735 11.02660668 92.17536735 8.27734375 89.36328125 C7 88 7 88 7 86 C6.34 86 5.68 86 5 86 C5 85.34 5 84.68 5 84 C4.34 84 3.68 84 3 84 C1.625 82.63671875 1.625 82.63671875 0 80.6875 C-2.09740046 78.19601595 -4.20844312 75.78431241 -6.47265625 73.44140625 C-17.99063087 61.47174635 -21.51251891 50.83788428 -21.28515625 34.73046875 C-20.96682767 26.59629384 -17.80920687 20.4580778 -13 14 C-12.42636719 13.22011719 -11.85273438 12.44023437 -11.26171875 11.63671875 C-7.65110506 6.83004256 -7.65110506 6.83004256 -6 5 C-5.34 5 -4.68 5 -4 5 C-4 4.34 -4 3.68 -4 3 C-3.34 3 -2.68 3 -2 3 C-2 2.34 -2 1.68 -2 1 C-1.34 0.67 -0.68 0.34 0 0 Z " fill="#E73A55" transform="translate(167,227)"/>
<path d="M0 0 C3.97452245 0.51156376 5.84683994 1.36283339 8.55078125 4.30859375 C9.16630859 4.97310547 9.78183594 5.63761719 10.41601562 6.32226562 C11.04185547 7.02029297 11.66769531 7.71832031 12.3125 8.4375 C12.95767578 9.13166016 13.60285156 9.82582031 14.26757812 10.54101562 C19 15.71412864 19 15.71412864 19 18 C19.763125 18.226875 20.52625 18.45375 21.3125 18.6875 C24.65895221 20.32181387 25.09686419 21.82810698 27 25 C28.96149152 26.83942445 31.00517882 28.55720917 33.05859375 30.29296875 C35.37159673 32.32673596 37.25834255 34.46008289 39 37 C39 37.66 39 38.32 39 39 C39.66 39 40.32 39 41 39 C41.33 39.99 41.66 40.98 42 42 C42.66 42.66 43.32 43.32 44 44 C43.57702637 44.41773682 43.15405273 44.83547363 42.71826172 45.26586914 C40.76776697 47.19533071 38.82137458 49.12888256 36.875 51.0625 C36.20984375 51.71927734 35.5446875 52.37605469 34.859375 53.05273438 C31.6330741 56.26322007 28.53860756 59.49059205 25.6328125 62.99609375 C24.76398438 63.98738281 23.89515625 64.97867188 23 66 C22.34 66 21.68 66 21 66 C21 66.66 21 67.32 21 68 C20.34 68 19.68 68 19 68 C19 68.66 19 69.32 19 70 C18.34 70 17.68 70 17 70 C17 70.66 17 71.32 17 72 C16.34 72 15.68 72 15 72 C15 72.66 15 73.32 15 74 C14.34 74 13.68 74 13 74 C13 74.66 13 75.32 13 76 C11.625 77.625 11.625 77.625 10 79 C9.34 79 8.68 79 8 79 C8 79.66 8 80.32 8 81 C7.34 81 6.68 81 6 81 C5.7834375 81.54140625 5.566875 82.0828125 5.34375 82.640625 C3.53500003 85.81645344 1.08276201 88.20728081 -1.5 90.75 C-1.99886719 91.25660156 -2.49773437 91.76320313 -3.01171875 92.28515625 C-6.74658861 96 -6.74658861 96 -9 96 C-9.495 97.485 -9.495 97.485 -10 99 C-14.3285729 98.52355287 -16.37189748 95.96128788 -19.3125 92.9375 C-19.79452881 92.44523926 -20.27655762 91.95297852 -20.77319336 91.44580078 C-24.21167078 87.90563405 -27.49717027 84.25033391 -30.66015625 80.4609375 C-31.95639013 78.87309189 -31.95639013 78.87309189 -34 78 C-34 77.34 -34 76.68 -34 76 C-34.66 76 -35.32 76 -36 76 C-36 75.34 -36 74.68 -36 74 C-36.66 74 -37.32 74 -38 74 C-38 73.34 -38 72.68 -38 72 C-38.66 72 -39.32 72 -40 72 C-40 71.34 -40 70.68 -40 70 C-40.66 70 -41.32 70 -42 70 C-42 69.34 -42 68.68 -42 68 C-42.66 68 -43.32 68 -44 68 C-44 67.34 -44 66.68 -44 66 C-44.99 65.67 -45.98 65.34 -47 65 C-47 64.34 -47 63.68 -47 63 C-47.66 63 -48.32 63 -49 63 C-49 62.34 -49 61.68 -49 61 C-49.66 61 -50.32 61 -51 61 C-52.75 59.3125 -52.75 59.3125 -54 57 C-52.82535156 52.65670114 -50.56278545 50.21409241 -47.375 47.125 C-46.48554688 46.26003906 -45.59609375 45.39507812 -44.6796875 44.50390625 C-41.72075832 41.73907592 -38.70353631 39.06626901 -35.59375 36.47265625 C-33.759259 34.89310003 -33.759259 34.89310003 -32 32 C-31.34 32 -30.68 32 -30 32 C-30 31.34 -30 30.68 -30 30 C-29.34 30 -28.68 30 -28 30 C-28 29.34 -28 28.68 -28 28 C-27.34 28 -26.68 28 -26 28 C-25.731875 27.401875 -25.46375 26.80375 -25.1875 26.1875 C-24.00082594 24.00152146 -22.90400887 22.58667406 -21 21 C-20.34 21 -19.68 21 -19 21 C-19 20.34 -19 19.68 -19 19 C-18.34 19 -17.68 19 -17 19 C-17 18.34 -17 17.68 -17 17 C-16.34 17 -15.68 17 -15 17 C-15 16.34 -15 15.68 -15 15 C-14.34 15 -13.68 15 -13 15 C-13 14.34 -13 13.68 -13 13 C-12.34 13 -11.68 13 -11 13 C-11 12.34 -11 11.68 -11 11 C-10.34 11 -9.68 11 -9 11 C-8.731875 10.401875 -8.46375 9.80375 -8.1875 9.1875 C-7.00082594 7.00152146 -5.90400887 5.58667406 -4 4 C-3.34 4 -2.68 4 -2 4 C-1.34 2.68 -0.68 1.36 0 0 Z " fill="#D23921" transform="translate(233,160)"/>
<path d="M0 0 C0.06316406 1.2065625 0.12632812 2.413125 0.19140625 3.65625 C0.73728126 15.10492455 0.73728126 15.10492455 6.93359375 24.2734375 C7.61550781 24.84320313 8.29742187 25.41296875 9 26 C10.55079226 27.55344319 12.09219245 29.11630829 13.625 30.6875 C15.99140135 33.02983625 18.36868966 35.36031035 20.75 37.6875 C22.50902842 39.49539032 24.09758621 41.30062743 25.6875 43.25 C27.7042322 46.01742194 27.7042322 46.01742194 30 47 C28.40907948 51.13639336 25.39525082 54.23213248 22 57 C21.34 57 20.68 57 20 57 C20 57.66 20 58.32 20 59 C19.34 59 18.68 59 18 59 C17.34 60.32 16.68 61.64 16 63 C15.01 63 14.02 63 13 63 C12.82984375 62.443125 12.6596875 61.88625 12.484375 61.3125 C11.18675266 57.22637009 9.77970217 53.3778921 7.8125 49.5625 C6 46 6 46 6 44 C5.34 44 4.68 44 4 44 C3.76925781 43.45472656 3.53851563 42.90945312 3.30078125 42.34765625 C1.55030842 38.30012027 -0.28036669 34.4633933 -2.5625 30.6875 C-6.37394252 23.98218445 -8.76903323 15.74229403 -8 8 C-6.50390625 5.6640625 -6.50390625 5.6640625 -4.5625 3.625 C-3.92441406 2.93664062 -3.28632813 2.24828125 -2.62890625 1.5390625 C-1 0 -1 0 0 0 Z " fill="#D54D20" transform="translate(194,99)"/>
<path d="M0 0 C1.32 0 2.64 0 4 0 C4.32507167 66.76471906 4.32507167 66.76471906 -1 79 C-1.99 79 -2.98 79 -4 79 C-3.79503906 77.96101563 -3.59007812 76.92203125 -3.37890625 75.8515625 C-3.10653653 74.44275361 -2.83441455 73.03389681 -2.5625 71.625 C-2.42779297 70.94566406 -2.29308594 70.26632813 -2.15429688 69.56640625 C-0.38483451 60.33067587 0.1557079 51.13125144 0.31640625 41.7421875 C0.33718735 40.71312286 0.35796844 39.68405823 0.37937927 38.62380981 C0.44415263 35.37426675 0.50341982 32.12465105 0.5625 28.875 C0.6057541 26.65624284 0.64937045 24.43749271 0.69335938 22.21875 C0.79975864 16.81257417 0.90165159 11.40632797 1 6 C-0.27475728 7.1039466 -1.54787661 8.20978475 -2.8203125 9.31640625 C-3.88403076 10.23981812 -3.88403076 10.23981812 -4.96923828 11.18188477 C-6.68025984 12.71374068 -8.28817278 14.27994326 -9.875 15.9375 C-12 18 -12 18 -14 18 C-14.31130859 18.80244141 -14.31130859 18.80244141 -14.62890625 19.62109375 C-16.54456452 22.94484271 -19.20540342 25.41486776 -21.9375 28.0625 C-22.47568359 28.59166016 -23.01386719 29.12082031 -23.56835938 29.66601562 C-25.04205208 31.1142685 -26.52082454 32.55734739 -28 34 C-28.76872437 34.82842407 -28.76872437 34.82842407 -29.55297852 35.67358398 C-31 37 -31 37 -33 37 C-33 33 -33 33 -31.35546875 31.21875 C-30.28232422 30.36796875 -30.28232422 30.36796875 -29.1875 29.5 C-26.91756245 27.68074222 -25.09506216 26.12886708 -23.36328125 23.78125 C-22.91339844 23.1934375 -22.46351563 22.605625 -22 22 C-21.34 22 -20.68 22 -20 22 C-19.79375 21.46890625 -19.5875 20.9378125 -19.375 20.390625 C-17.42038808 16.99226564 -14.77876283 14.48944072 -12 11.75 C-11.4534375 11.19570312 -10.906875 10.64140625 -10.34375 10.0703125 C-6.2533867 6 -6.2533867 6 -4 6 C-3.566875 5.071875 -3.566875 5.071875 -3.125 4.125 C-2 2 -2 2 0 0 Z " fill="#F78B3F" transform="translate(350,151)"/>
<path d="M0 0 C0.495 1.485 0.495 1.485 1 3 C0.32626343 3.66588135 0.32626343 3.66588135 -0.36108398 4.34521484 C-2.38915607 6.35253603 -4.41336416 8.36370999 -6.4375 10.375 C-7.14455078 11.07367188 -7.85160156 11.77234375 -8.58007812 12.4921875 C-9.25361328 13.1625 -9.92714844 13.8328125 -10.62109375 14.5234375 C-11.2442749 15.14138184 -11.86745605 15.75932617 -12.50952148 16.39599609 C-14.09048151 17.94660067 -14.09048151 17.94660067 -15 20 C-15.66 20 -16.32 20 -17 20 C-17.226875 20.556875 -17.45375 21.11375 -17.6875 21.6875 C-19.37550036 24.66159588 -21.46676517 26.72008865 -24 29 C-24.66 29 -25.32 29 -26 29 C-26 29.66 -26 30.32 -26 31 C-26.66 31 -27.32 31 -28 31 C-28 31.66 -28 32.32 -28 33 C-28.66 33 -29.32 33 -30 33 C-30 33.66 -30 34.32 -30 35 C-30.66 35 -31.32 35 -32 35 C-32 35.66 -32 36.32 -32 37 C-32.66 37 -33.32 37 -34 37 C-34 37.66 -34 38.32 -34 39 C-34.66 39 -35.32 39 -36 39 C-36.32085571 39.81090088 -36.32085571 39.81090088 -36.64819336 40.63818359 C-38.48574755 43.8486765 -41.00229049 46.22872771 -43.62890625 48.7890625 C-44.1786058 49.33356049 -44.72830536 49.87805847 -45.29466248 50.4390564 C-47.04591176 52.17253779 -48.80371688 53.89916551 -50.5625 55.625 C-52.32395811 57.35884152 -54.08393623 59.09412183 -55.84104919 60.83236694 C-56.93341505 61.91247367 -58.02844296 62.98989603 -59.12635803 64.06436157 C-61.91551945 66.76313489 -61.91551945 66.76313489 -64 70 C-65.65 70 -67.3 70 -69 70 C-69.02515492 64.3664582 -69.04306946 58.73295073 -69.05493164 53.09936523 C-69.05988881 51.19213286 -69.06665654 49.28490414 -69.07543945 47.37768555 C-69.1329428 34.54767384 -68.82129914 21.80467396 -68 9 C-67.01 9.33 -66.02 9.66 -65 10 C-65.33 10.66 -65.66 11.32 -66 12 C-66.2282468 14.44195895 -66.39995321 16.86088666 -66.52734375 19.30859375 C-66.56866928 20.05749374 -66.60999481 20.80639374 -66.65257263 21.57798767 C-67.14756304 31.06679272 -67.35130761 40.56401471 -67.5625 50.0625 C-67.60584657 51.9121158 -67.64946496 53.76172525 -67.69335938 55.61132812 C-67.79869279 60.07415209 -67.90039619 64.53704463 -68 69 C-67.34 69 -66.68 69 -66 69 C-66 67.68 -66 66.36 -66 65 C-65.38125 64.9175 -64.7625 64.835 -64.125 64.75 C-61.85214021 64.19418495 -61.85214021 64.19418495 -60.8125 62.125 C-60.16535941 60.43247845 -59.57301136 58.71903407 -59 57 C-58.21625 56.9175 -57.4325 56.835 -56.625 56.75 C-55.75875 56.5025 -54.8925 56.255 -54 56 C-53.29923088 54.68427022 -52.63784535 53.34735872 -52 52 C-48.44935337 47.42082853 -44.60775703 43.51644615 -40 40 C-38.31924297 38.34754384 -36.65428129 36.67896068 -35 35 C-34.21729736 34.20682373 -33.43459473 33.41364746 -32.62817383 32.59643555 C-31.82919678 31.784729 -31.03021973 30.97302246 -30.20703125 30.13671875 C-28.40898809 28.32017993 -26.6108072 26.50377743 -24.8125 24.6875 C-23.44061523 23.29047852 -23.44061523 23.29047852 -22.04101562 21.86523438 C-21.16767578 20.98544922 -20.29433594 20.10566406 -19.39453125 19.19921875 C-18.59893799 18.39315186 -17.80334473 17.58708496 -16.98364258 16.7565918 C-15 15 -15 15 -13 15 C-12.78601563 14.45859375 -12.57203125 13.9171875 -12.3515625 13.359375 C-10.51922057 10.1607203 -8.00203394 7.79035516 -5.375 5.25 C-4.859375 4.74339844 -4.34375 4.23679688 -3.8125 3.71484375 C-2.54616661 2.47196098 -1.2736856 1.23534724 0 0 Z " fill="#F34950" transform="translate(160,208)"/>
<path d="M0 0 C3.07003234 1.18718386 5.13937345 2.88297709 7.453125 5.1875 C8.071875 5.80367187 8.690625 6.41984375 9.328125 7.0546875 C9.96234375 7.69664062 10.5965625 8.33859375 11.25 9 C11.8996875 9.64195312 12.549375 10.28390625 13.21875 10.9453125 C13.83234375 11.56148437 14.4459375 12.17765625 15.078125 12.8125 C15.91972168 13.65748047 15.91972168 13.65748047 16.77832031 14.51953125 C18 16 18 16 18 18 C18.66 18 19.32 18 20 18 C20 18.66 20 19.32 20 20 C20.66 20 21.32 20 22 20 C21.67 21.32 21.34 22.64 21 24 C19.125 23.8125 19.125 23.8125 17 23 C16.7628125 22.29875 16.525625 21.5975 16.28125 20.875 C14.46436903 16.79809637 11.56638221 14.24590795 8.375 11.1875 C7.76398438 10.59001953 7.15296875 9.99253906 6.5234375 9.37695312 C5.02235161 7.91104894 3.51207138 6.45457007 2 5 C-1.03252188 6.3303967 -2.85318485 7.68646557 -4.9375 10.25 C-5.44796875 10.86746094 -5.9584375 11.48492187 -6.484375 12.12109375 C-6.98453125 12.74113281 -7.4846875 13.36117187 -8 14 C-12.66121113 19.77414075 -12.66121113 19.77414075 -16 22 C-16.04649906 23.99945939 -16.03772913 26.0003559 -16 28 C-16.53249359 30.39382251 -17.25125086 32.66015895 -18 35 C-18.33 35 -18.66 35 -19 35 C-19 37.97 -19 40.94 -19 44 C-18.67 44 -18.34 44 -18 44 C-17.67 46.97 -17.34 49.94 -17 53 C-16.67 53 -16.34 53 -16 53 C-16 54.98 -16 56.96 -16 59 C-15.34 59 -14.68 59 -14 59 C-14 59.99 -14 60.98 -14 62 C-14.66 62 -15.32 62 -16 62 C-16.64995297 60.58521865 -17.29478722 59.16808513 -17.9375 57.75 C-18.29714844 56.96109375 -18.65679687 56.1721875 -19.02734375 55.359375 C-22.70787447 46.43150129 -22.7427338 33.13163792 -19.25 24.1875 C-17.46215566 20.57443478 -15.40980581 17.23602494 -13 14 C-12.42636719 13.22011719 -11.85273438 12.44023437 -11.26171875 11.63671875 C-7.65110506 6.83004256 -7.65110506 6.83004256 -6 5 C-5.34 5 -4.68 5 -4 5 C-4 4.34 -4 3.68 -4 3 C-3.34 3 -2.68 3 -2 3 C-2 2.34 -2 1.68 -2 1 C-1.34 0.67 -0.68 0.34 0 0 Z " fill="#D02D45" transform="translate(167,227)"/>
<path d="M0 0 C1.32 0.33 2.64 0.66 4 1 C3.34 1 2.68 1 2 1 C1.79375 1.53625 1.5875 2.0725 1.375 2.625 C-0.53250426 5.91978009 -3.04819384 8.59363628 -6 11 C-6.66 11 -7.32 11 -8 11 C-8.268125 11.639375 -8.53625 12.27875 -8.8125 12.9375 C-10 15 -10 15 -13 16 C-13.70313198 17.31446858 -14.36628982 18.65069142 -15 20 C-16.43286133 21.64404297 -16.43286133 21.64404297 -18.08203125 23.2421875 C-18.68466797 23.83386719 -19.28730469 24.42554688 -19.90820312 25.03515625 C-20.53662109 25.64230469 -21.16503906 26.24945313 -21.8125 26.875 C-26.96442679 31.86538804 -26.96442679 31.86538804 -31.7109375 37.234375 C-33.64373458 39.56956328 -35.49182802 41.45006366 -37.8125 43.375 C-42.10562072 47.03028564 -46.06233069 50.96807797 -50 55 C-48.85123314 58.44630058 -47.80859085 58.91620679 -45 61 C-45 61.66 -45 62.32 -45 63 C-46.32 63 -47.64 63 -49 63 C-49 62.34 -49 61.68 -49 61 C-49.66 61 -50.32 61 -51 61 C-52.75 59.3125 -52.75 59.3125 -54 57 C-52.82535156 52.65670114 -50.56278545 50.21409241 -47.375 47.125 C-46.48554688 46.26003906 -45.59609375 45.39507812 -44.6796875 44.50390625 C-41.72075832 41.73907592 -38.70353631 39.06626901 -35.59375 36.47265625 C-33.759259 34.89310003 -33.759259 34.89310003 -32 32 C-31.34 32 -30.68 32 -30 32 C-30 31.34 -30 30.68 -30 30 C-29.34 30 -28.68 30 -28 30 C-28 29.34 -28 28.68 -28 28 C-27.34 28 -26.68 28 -26 28 C-25.731875 27.401875 -25.46375 26.80375 -25.1875 26.1875 C-24.00082594 24.00152146 -22.90400887 22.58667406 -21 21 C-20.34 21 -19.68 21 -19 21 C-19 20.34 -19 19.68 -19 19 C-18.34 19 -17.68 19 -17 19 C-17 18.34 -17 17.68 -17 17 C-16.34 17 -15.68 17 -15 17 C-15 16.34 -15 15.68 -15 15 C-14.34 15 -13.68 15 -13 15 C-13 14.34 -13 13.68 -13 13 C-12.34 13 -11.68 13 -11 13 C-11 12.34 -11 11.68 -11 11 C-10.34 11 -9.68 11 -9 11 C-8.731875 10.401875 -8.46375 9.80375 -8.1875 9.1875 C-7.00082594 7.00152146 -5.90400887 5.58667406 -4 4 C-3.34 4 -2.68 4 -2 4 C-1.34 2.68 -0.68 1.36 0 0 Z " fill="#D9432D" transform="translate(233,160)"/>
<path d="M0 0 C0.66 0 1.32 0 2 0 C2.495 1.485 2.495 1.485 3 3 C2.58226318 3.4125 2.16452637 3.825 1.73413086 4.25 C-1.60367621 7.55142143 -4.93345433 10.86080884 -8.25 14.18359375 C-8.88164062 14.81579834 -9.51328125 15.44800293 -10.1640625 16.09936523 C-12.57268806 18.59286923 -14.831044 21.19839654 -17.0703125 23.84375 C-24.02221227 31.61186473 -31.57956449 39.04537179 -39.546875 45.765625 C-41.13457795 47.08049325 -41.13457795 47.08049325 -43 49 C-45.125 48.625 -45.125 48.625 -47 48 C-45.88121617 46.82737096 -44.75476949 45.66204862 -43.625 44.5 C-42.99851562 43.8503125 -42.37203125 43.200625 -41.7265625 42.53125 C-40 41 -40 41 -38 41 C-38 40.34 -38 39.68 -38 39 C-37.34 39 -36.68 39 -36 39 C-36 38.34 -36 37.68 -36 37 C-35.34 37 -34.68 37 -34 37 C-34 36.34 -34 35.68 -34 35 C-33.34 35 -32.68 35 -32 35 C-32 34.34 -32 33.68 -32 33 C-31.34 33 -30.68 33 -30 33 C-29.67 32.01 -29.34 31.02 -29 30 C-28.34 30 -27.68 30 -27 30 C-27 29.34 -27 28.68 -27 28 C-26.34 28 -25.68 28 -25 28 C-25 27.34 -25 26.68 -25 26 C-24.34 26 -23.68 26 -23 26 C-23 25.34 -23 24.68 -23 24 C-22.34 24 -21.68 24 -21 24 C-20.74549072 23.41879395 -20.49098145 22.83758789 -20.22875977 22.23876953 C-18.86941324 19.76207419 -17.36088903 18.14865555 -15.33984375 16.1796875 C-14.62892578 15.47972656 -13.91800781 14.77976563 -13.18554688 14.05859375 C-12.44369141 13.33800781 -11.70183594 12.61742187 -10.9375 11.875 C-9.46526807 10.43712439 -7.99510844 8.99712292 -6.52734375 7.5546875 C-5.87499756 6.92030762 -5.22265137 6.28592773 -4.55053711 5.63232422 C-2.91114 4.06540833 -2.91114 4.06540833 -2 2 C-1.34 2 -0.68 2 0 2 C0 1.34 0 0.68 0 0 Z " fill="#F6733B" transform="translate(315,186)"/>
<path d="M0 0 C0.33 0 0.66 0 1 0 C1.42235683 52.54118943 1.42235683 52.54118943 -4 65 C-4.99 65 -5.98 65 -7 65 C-6.79503906 63.96101563 -6.59007812 62.92203125 -6.37890625 61.8515625 C-6.10653653 60.44275361 -5.83441455 59.03389681 -5.5625 57.625 C-5.42779297 56.94566406 -5.29308594 56.26632813 -5.15429688 55.56640625 C-2.73247031 42.92565296 -2.71782156 30.23578753 -2.52319336 17.40966797 C-2.48367295 14.91869882 -2.43216899 12.42820779 -2.37890625 9.9375 C-2.3704921 9.16986328 -2.36207794 8.40222656 -2.35340881 7.61132812 C-2.22690519 2.22690519 -2.22690519 2.22690519 0 0 Z " fill="#F58641" transform="translate(353,165)"/>
<path d="M0 0 C0.598125 0.226875 1.19625 0.45375 1.8125 0.6875 C0.8225 1.0175 -0.1675 1.3475 -1.1875 1.6875 C-1.1875 2.3475 -1.1875 3.0075 -1.1875 3.6875 C-1.8475 3.6875 -2.5075 3.6875 -3.1875 3.6875 C-3.1875 4.3475 -3.1875 5.0075 -3.1875 5.6875 C-3.8475 5.6875 -4.5075 5.6875 -5.1875 5.6875 C-5.56841797 6.56148438 -5.56841797 6.56148438 -5.95703125 7.453125 C-7.32070333 9.92938033 -8.82975203 11.49270626 -10.875 13.4375 C-14.40421994 16.85743626 -17.61155423 20.43286791 -20.7421875 24.21875 C-21.21914063 24.7034375 -21.69609375 25.188125 -22.1875 25.6875 C-22.8475 25.6875 -23.5075 25.6875 -24.1875 25.6875 C-24.1875 26.3475 -24.1875 27.0075 -24.1875 27.6875 C-24.8475 27.6875 -25.5075 27.6875 -26.1875 27.6875 C-26.455625 28.265 -26.72375 28.8425 -27 29.4375 C-28.21679189 31.74300043 -29.49083879 33.70806192 -31.1875 35.6875 C-31.8475 35.6875 -32.5075 35.6875 -33.1875 35.6875 C-33.588479 36.57743652 -33.588479 36.57743652 -33.99755859 37.48535156 C-35.20334993 39.71683245 -36.4233095 41.1539799 -38.2265625 42.921875 C-38.80664062 43.49550781 -39.38671875 44.06914062 -39.984375 44.66015625 C-40.88929688 45.53994141 -40.88929688 45.53994141 -41.8125 46.4375 C-42.42351562 47.03949219 -43.03453125 47.64148438 -43.6640625 48.26171875 C-45.16738624 49.74155305 -46.67684856 51.21514676 -48.1875 52.6875 C-49.1775 52.3575 -50.1675 52.0275 -51.1875 51.6875 C-45.21975806 44.42943548 -45.21975806 44.42943548 -43.1875 42.6875 C-42.5275 42.6875 -41.8675 42.6875 -41.1875 42.6875 C-41.1875 42.0275 -41.1875 41.3675 -41.1875 40.6875 C-40.5275 40.6875 -39.8675 40.6875 -39.1875 40.6875 C-38.91421875 40.09839844 -38.6409375 39.50929688 -38.359375 38.90234375 C-35.90199562 34.25789672 -32.26722721 30.58344385 -28.25 27.25 C-25.07834446 24.59616578 -22.5868551 21.74802272 -19.921875 18.60546875 C-18.34920475 16.86632215 -16.77740127 15.44368491 -14.9375 14 C-12.2293448 11.72268767 -10.91962959 9.71872678 -9.1875 6.6875 C-8.5275 6.6875 -7.8675 6.6875 -7.1875 6.6875 C-6.919375 6.089375 -6.65125 5.49125 -6.375 4.875 C-3.46022727 -0.49431818 -3.46022727 -0.49431818 0 0 Z " fill="#F24B46" transform="translate(310.1875,270.3125)"/>
<path d="M0 0 C4.23912402 0.48717206 5.91307946 1.49918754 8.5625 4.8125 C10.46401145 7.13334039 12.28385918 9.27658074 14.4375 11.375 C16 13 16 13 16 15 C16.66 15 17.32 15 18 15 C18 15.66 18 16.32 18 17 C18.845625 17.268125 19.69125 17.53625 20.5625 17.8125 C24 19 24 19 27.25 20.6875 C32.05892563 22.37062397 36.06315245 22.14790336 41 21 C41.99 20.34 42.98 19.68 44 19 C45.32 19 46.64 19 48 19 C48.495 17.515 48.495 17.515 49 16 C49.66 16.33 50.32 16.66 51 17 C51.268125 16.41347656 51.53625 15.82695312 51.8125 15.22265625 C53.00796745 12.98508723 54.31273879 11.32301441 56 9.4375 C57.87746278 7.33004803 59.42221686 5.36667471 61 3 C61.66 3.99 62.32 4.98 63 6 C62.67 6.66 62.34 7.32 62 8 C61.34 8 60.68 8 60 8 C60 8.66 60 9.32 60 10 C59.34 10 58.68 10 58 10 C58 10.66 58 11.32 58 12 C57.34 12 56.68 12 56 12 C55.79375 12.556875 55.5875 13.11375 55.375 13.6875 C52.85050994 17.93323329 48.63178102 21.26308212 44 23 C36.23309071 24.80625798 28.03747213 25.14123127 21 21 C17.45401673 18.20860197 14.22451423 15.15331044 11 12 C10.20335937 11.24203125 9.40671875 10.4840625 8.5859375 9.703125 C4.49960465 5.7467462 4.49960465 5.7467462 3 4 C3 3.34 3 2.68 3 2 C2.01 1.67 1.02 1.34 0 1 C0 0.67 0 0.34 0 0 Z " fill="#EF4765" transform="translate(188,329)"/>
<path d="M0 0 C1.20140625 0.01546875 2.4028125 0.0309375 3.640625 0.046875 C6.75 0.25 6.75 0.25 9.75 1.25 C10.245 2.735 10.245 2.735 10.75 4.25 C9.37328125 4.08951172 9.37328125 4.08951172 7.96875 3.92578125 C-0.40910646 3.1073562 -6.45131689 2.6143565 -13.296875 7.80078125 C-16.5910349 10.59338673 -19.56591795 13.58738392 -22.5 16.75 C-23.86125 17.9875 -23.86125 17.9875 -25.25 19.25 C-27.421875 18.90625 -27.421875 18.90625 -29.25 18.25 C-26.91286862 15.79567399 -24.55252296 13.36493639 -22.1875 10.9375 C-21.53072266 10.24720703 -20.87394531 9.55691406 -20.19726562 8.84570312 C-13.96227175 2.48785222 -9.19674182 -0.19906368 0 0 Z " fill="#FB9E3B" transform="translate(223.25,75.75)"/>
<path d="M0 0 C4.5032086 1.41529413 6.80350478 3.57518369 10 7 C11.87844687 8.81962285 13.75944167 10.63647802 15.64453125 12.44921875 C17 14 17 14 17 16 C17.66 16 18.32 16 19 16 C19 16.66 19 17.32 19 18 C19.66 18 20.32 18 21 18 C21 18.66 21 19.32 21 20 C21.66 20 22.32 20 23 20 C23 20.66 23 21.32 23 22 C23.66 22 24.32 22 25 22 C26.62109375 23.609375 26.62109375 23.609375 28.4375 25.75 C29.03433594 26.44609375 29.63117188 27.1421875 30.24609375 27.859375 C31.11427734 28.91898438 31.11427734 28.91898438 32 30 C32.58910156 30.68578125 33.17820312 31.3715625 33.78515625 32.078125 C34.18605469 32.71234375 34.58695312 33.3465625 35 34 C34.67 34.99 34.34 35.98 34 37 C33.67 36.01 33.34 35.02 33 34 C32.34 34 31.68 34 31 34 C31 33.34 31 32.68 31 32 C30.01 31.67 29.02 31.34 28 31 C26.31640625 29.29296875 26.31640625 29.29296875 24.5625 27.1875 C22.62032666 24.88734132 20.7217084 22.72884408 18.5625 20.625 C17 19 17 19 17 17 C16.01 16.67 15.02 16.34 14 16 C12.80743845 14.57555148 11.61894634 13.14718915 10.46484375 11.69140625 C8.38092024 9.28516924 6.00156555 7.31836449 3.55078125 5.296875 C2 4 2 4 0 2 C0 1.34 0 0.68 0 0 Z " fill="#F98B36" transform="translate(233,78)"/>
<path d="M0 0 C0.495 1.485 0.495 1.485 1 3 C0.32626343 3.66588135 0.32626343 3.66588135 -0.36108398 4.34521484 C-2.38915607 6.35253603 -4.41336416 8.36370999 -6.4375 10.375 C-7.14455078 11.07367188 -7.85160156 11.77234375 -8.58007812 12.4921875 C-9.59038086 13.49765625 -9.59038086 13.49765625 -10.62109375 14.5234375 C-11.55586548 15.450354 -11.55586548 15.450354 -12.50952148 16.39599609 C-14.09048151 17.94660067 -14.09048151 17.94660067 -15 20 C-15.66 20 -16.32 20 -17 20 C-17.226875 20.556875 -17.45375 21.11375 -17.6875 21.6875 C-19.37550036 24.66159588 -21.46676517 26.72008865 -24 29 C-24.66 29 -25.32 29 -26 29 C-26 29.66 -26 30.32 -26 31 C-26.66 31 -27.32 31 -28 31 C-28 31.66 -28 32.32 -28 33 C-28.66 33 -29.32 33 -30 33 C-30 33.66 -30 34.32 -30 35 C-32.475 35.495 -32.475 35.495 -35 36 C-30.77883845 30.96956668 -26.39019121 26.20760667 -21.75 21.5625 C-20.81414062 20.60827148 -20.81414062 20.60827148 -19.859375 19.63476562 C-19.26125 19.03470703 -18.663125 18.43464844 -18.046875 17.81640625 C-17.50901367 17.27443604 -16.97115234 16.73246582 -16.41699219 16.17407227 C-15 15 -15 15 -13 15 C-12.78601563 14.45859375 -12.57203125 13.9171875 -12.3515625 13.359375 C-10.51922057 10.1607203 -8.00203394 7.79035516 -5.375 5.25 C-4.859375 4.74339844 -4.34375 4.23679688 -3.8125 3.71484375 C-2.54616661 2.47196098 -1.2736856 1.23534724 0 0 Z " fill="#F55453" transform="translate(160,208)"/>
<path d="M0 0 C0.66 0.33 1.32 0.66 2 1 C1.04882866 2.1725131 0.08882991 3.33787015 -0.875 4.5 C-1.67550781 5.47453125 -1.67550781 5.47453125 -2.4921875 6.46875 C-2.98976563 6.9740625 -3.48734375 7.479375 -4 8 C-4.66 8 -5.32 8 -6 8 C-6 8.66 -6 9.32 -6 10 C-6.66 10 -7.32 10 -8 10 C-8 10.66 -8 11.32 -8 12 C-8.66 12 -9.32 12 -10 12 C-10 12.66 -10 13.32 -10 14 C-10.66 14 -11.32 14 -12 14 C-12 14.66 -12 15.32 -12 16 C-12.66 16 -13.32 16 -14 16 C-14 16.66 -14 17.32 -14 18 C-15.375 19.625 -15.375 19.625 -17 21 C-17.66 21 -18.32 21 -19 21 C-19 21.66 -19 22.32 -19 23 C-19.66 23 -20.32 23 -21 23 C-21.20625 23.53625 -21.4125 24.0725 -21.625 24.625 C-23.57996944 28.0017654 -26.18223695 30.30474839 -29 33 C-29.99 32.67 -30.98 32.34 -32 32 C-31.62488281 31.56429687 -31.24976563 31.12859375 -30.86328125 30.6796875 C-30.35152344 30.08414063 -29.83976563 29.48859375 -29.3125 28.875 C-28.75820312 28.23304688 -28.20390625 27.59109375 -27.6328125 26.9296875 C-26.27330723 25.32299945 -24.97242704 23.66693238 -23.6875 22 C-20.98715163 18.71790456 -17.66826797 16.40267729 -14.27734375 13.875 C-11.30053284 11.42410937 -8.97424007 8.63125027 -6.60546875 5.6015625 C-4.74333972 3.7439642 -3.49199171 3.61646755 -1 3 C-0.67 2.01 -0.34 1.02 0 0 Z " fill="#DB3426" transform="translate(260,218)"/>
<path d="M0 0 C0.99 0.33 1.98 0.66 3 1 C2.3503125 1.5878125 2.3503125 1.5878125 1.6875 2.1875 C-0.10089011 3.97122009 -0.10089011 3.97122009 -1.34375 6.33984375 C-5.56277028 13.11614755 -12.29171898 18.40761951 -18.37109375 23.4921875 C-20.2357874 25.10040045 -20.2357874 25.10040045 -22 28 C-22.66 27.67 -23.32 27.34 -24 27 C-21.71094117 22.90378947 -19.14344452 19.46584909 -16 16 C-15.34 16 -14.68 16 -14 16 C-14 15.34 -14 14.68 -14 14 C-13.34 14 -12.68 14 -12 14 C-12 13.34 -12 12.68 -12 12 C-11.34 12 -10.68 12 -10 12 C-9.75507813 11.42765625 -9.51015625 10.8553125 -9.2578125 10.265625 C-7.78889901 7.61975598 -6.04651756 5.85146861 -3.875 3.75 C-3.15054688 3.04359375 -2.42609375 2.3371875 -1.6796875 1.609375 C-1.12539062 1.07828125 -0.57109375 0.5471875 0 0 Z " fill="#F5693D" transform="translate(150,141)"/>
<path d="M0 0 C0.99 0.33 1.98 0.66 3 1 C2.67 1.66 2.34 2.32 2 3 C1.7717532 5.44195895 1.60004679 7.86088666 1.47265625 10.30859375 C1.43133072 11.05749374 1.39000519 11.80639374 1.34742737 12.57798767 C0.85243696 22.06679272 0.64869239 31.56401471 0.4375 41.0625 C0.39415343 42.9121158 0.35053504 44.76172525 0.30664062 46.61132812 C0.20130721 51.07415209 0.09960381 55.53704463 0 60 C0.66 60 1.32 60 2 60 C2 58.68 2 57.36 2 56 C2.9590625 55.8453125 2.9590625 55.8453125 3.9375 55.6875 C4.9584375 55.3471875 4.9584375 55.3471875 6 55 C6.33 54.01 6.66 53.02 7 52 C8.32 52.33 9.64 52.66 11 53 C9.95600254 54.34786992 8.88897934 55.67792729 7.8125 57 C7.22082031 57.7425 6.62914063 58.485 6.01953125 59.25 C3.48604881 61.44535809 2.25079303 61.14978456 -1 61 C-1.02515492 55.3664582 -1.04306946 49.73295073 -1.05493164 44.09936523 C-1.05988881 42.19213286 -1.06665654 40.28490414 -1.07543945 38.37768555 C-1.1329428 25.54767384 -0.82129914 12.80467396 0 0 Z " fill="#ED454B" transform="translate(92,217)"/>
<path d="M0 0 C1.32 0 2.64 0 4 0 C4.08075665 2.29109597 4.13907731 4.58299267 4.1875 6.875 C4.22230469 8.15117187 4.25710938 9.42734375 4.29296875 10.7421875 C4.19628906 11.81726563 4.09960938 12.89234375 4 14 C3.01 14.66 2.02 15.32 1 16 C1 12.7 1 9.4 1 6 C-0.093125 6.99 -1.18625 7.98 -2.3125 9 C-5.625 12 -5.625 12 -9 12 C-8.75 10.125 -8.75 10.125 -8 8 C-6.67532254 7.3162955 -5.34136367 6.65035814 -4 6 C-2.8499169 4.03327085 -2.8499169 4.03327085 -2 2 C-1.34 1.34 -0.68 0.68 0 0 Z " fill="#F48D46" transform="translate(350,151)"/>
<path d="M0 0 C-1.59758604 4.27379704 -4.85757324 6.81679278 -8.1875 9.75 C-12.70532254 13.79425493 -16.83384983 17.84152285 -20.53515625 22.671875 C-22 24 -22 24 -26 24 C-21.49599322 18.60368998 -16.73256402 13.5801873 -11.75 8.625 C-11.03070313 7.90183594 -10.31140625 7.17867187 -9.5703125 6.43359375 C-8.53777344 5.40298828 -8.53777344 5.40298828 -7.484375 4.3515625 C-6.86272461 3.73104004 -6.24107422 3.11051758 -5.60058594 2.47119141 C-3.6780678 0.70409344 -2.6346908 0 0 0 Z " fill="#F4664B" transform="translate(269,237)"/>
<path d="M0 0 C1.32 0.33 2.64 0.66 4 1 C3.34 1 2.68 1 2 1 C1.690625 1.804375 1.690625 1.804375 1.375 2.625 C-0.53250426 5.91978009 -3.04819384 8.59363628 -6 11 C-6.66 11 -7.32 11 -8 11 C-8.268125 11.639375 -8.53625 12.27875 -8.8125 12.9375 C-10 15 -10 15 -13 16 C-13.268125 16.5775 -13.53625 17.155 -13.8125 17.75 C-15.55133944 21.04464314 -18.07645336 22.71200698 -21 25 C-21.33 24.01 -21.66 23.02 -22 22 C-21.01 21.67 -20.02 21.34 -19 21 C-19 20.34 -19 19.68 -19 19 C-18.34 19 -17.68 19 -17 19 C-17 18.34 -17 17.68 -17 17 C-16.34 17 -15.68 17 -15 17 C-15 16.34 -15 15.68 -15 15 C-14.34 15 -13.68 15 -13 15 C-13 14.34 -13 13.68 -13 13 C-12.34 13 -11.68 13 -11 13 C-11 12.34 -11 11.68 -11 11 C-10.34 11 -9.68 11 -9 11 C-8.731875 10.401875 -8.46375 9.80375 -8.1875 9.1875 C-7.00082594 7.00152146 -5.90400887 5.58667406 -4 4 C-3.34 4 -2.68 4 -2 4 C-1.34 2.68 -0.68 1.36 0 0 Z " fill="#D55039" transform="translate(233,160)"/>
<path d="M0 0 C0.33 0 0.66 0 1 0 C1.44353623 12.02836128 1.69275599 22.7080559 -3 34 C-3.99 34 -4.98 34 -6 34 C-5.69255859 32.44152344 -5.69255859 32.44152344 -5.37890625 30.8515625 C-3.90291748 23.25190693 -2.53929651 15.73611542 -2 8 C-1.67 8 -1.34 8 -1 8 C-0.67 5.36 -0.34 2.72 0 0 Z " fill="#F47638" transform="translate(352,196)"/>
<path d="M0 0 C0.66 0.99 1.32 1.98 2 3 C1 6 1 6 -1.4375 7.4375 C-4.29750089 9.18140298 -4.59226768 10.09655209 -6 13 C-7.64639965 14.35827971 -9.31295807 15.69254251 -11 17 C-11.66 17.99 -12.32 18.98 -13 20 C-13.33 19.01 -13.66 18.02 -14 17 C-14.66 16.67 -15.32 16.34 -16 16 C-10.72 10.72 -5.44 5.44 0 0 Z " fill="#DE5341" transform="translate(237,266)"/>
<path d="M0 0 C0.33 0 0.66 0 1 0 C1 2.97 1 5.94 1 9 C2.32 9.33 3.64 9.66 5 10 C4.34 10 3.68 10 3 10 C3 10.66 3 11.32 3 12 C2.34 12 1.68 12 1 12 C0.7525 12.5775 0.505 13.155 0.25 13.75 C-1.16683317 16.3002997 -2.87627537 18.01785701 -5 20 C-5.99 19.67 -6.98 19.34 -8 19 C-6.125 13.25 -6.125 13.25 -5 11 C-4.33484375 10.72414063 -3.6696875 10.44828125 -2.984375 10.1640625 C-0.78073016 9.17948782 -0.78073016 9.17948782 -0.390625 6.8359375 C-0.34421875 6.02382813 -0.2978125 5.21171875 -0.25 4.375 C-0.19328125 3.55773437 -0.1365625 2.74046875 -0.078125 1.8984375 C-0.05234375 1.27195312 -0.0265625 0.64546875 0 0 Z " fill="#E63C47" transform="translate(257,314)"/>
<path d="M0 0 C0.99 0 1.98 0 3 0 C4.13127933 2.26255865 4.12890585 3.51787909 4.1328125 6.02734375 C4.13410156 6.81947266 4.13539063 7.61160156 4.13671875 8.42773438 C4.13285156 9.25595703 4.12898438 10.08417969 4.125 10.9375 C4.12886719 11.76185547 4.13273437 12.58621094 4.13671875 13.43554688 C4.13542969 14.22896484 4.13414062 15.02238281 4.1328125 15.83984375 C4.13168457 16.56550537 4.13055664 17.29116699 4.12939453 18.03881836 C4 20 4 20 3 23 C2.34 23 1.68 23 1 23 C0.67 23.99 0.34 24.98 0 26 C0.08378906 24.7934375 0.16757812 23.586875 0.25390625 22.34375 C0.35716289 20.72919169 0.46000536 19.11460686 0.5625 17.5 C0.61857422 16.70851562 0.67464844 15.91703125 0.73242188 15.1015625 C1.05189484 9.90480221 0.79686914 5.14718438 0 0 Z " fill="#F37440" transform="translate(296,150)"/>
<path d="M0 0 C0.99 0.99 1.98 1.98 3 3 C2.67 3.66 2.34 4.32 2 5 C1.34 5 0.68 5 0 5 C0 5.66 0 6.32 0 7 C-0.66 7 -1.32 7 -2 7 C-2 7.66 -2 8.32 -2 9 C-2.66 9 -3.32 9 -4 9 C-4.20625 9.556875 -4.4125 10.11375 -4.625 10.6875 C-7.77089285 15.9783198 -12.18349812 18.47663046 -18 20 C-18 19.01 -18 18.02 -18 17 C-16.02 16.67 -14.04 16.34 -12 16 C-11.67 15.01 -11.34 14.02 -11 13 C-10.34 13.33 -9.68 13.66 -9 14 C-8.73316406 13.41347656 -8.46632812 12.82695312 -8.19140625 12.22265625 C-6.62827881 9.30652669 -4.55686485 7.11743843 -2.33984375 4.68359375 C-0.78521084 2.92781556 -0.78521084 2.92781556 0 0 Z " fill="#F55469" transform="translate(248,332)"/>
<path d="M0 0 C0 3.43344882 -0.33204625 3.73756719 -2.5546875 6.13671875 C-3.08707031 6.71357422 -3.61945313 7.29042969 -4.16796875 7.88476562 C-4.73128906 8.47966797 -5.29460937 9.07457031 -5.875 9.6875 C-6.43058594 10.29400391 -6.98617187 10.90050781 -7.55859375 11.52539062 C-8.99275882 13.06150237 -10.49222135 14.53607641 -12 16 C-12.66 16 -13.32 16 -14 16 C-14 16.66 -14 17.32 -14 18 C-14.99 17.67 -15.98 17.34 -17 17 C-16.34 16.67 -15.68 16.34 -15 16 C-15 15.34 -15 14.68 -15 14 C-14.34 14 -13.68 14 -13 14 C-12.73960937 13.41347656 -12.47921875 12.82695312 -12.2109375 12.22265625 C-9.50532193 7.2565425 -4.63948776 3.15485167 0 0 Z " fill="#F67A45" transform="translate(174,117)"/>
<path d="M0 0 C4.49183595 1.41171987 6.81517883 3.58214314 10 7 C10.54398438 7.51304688 11.08796875 8.02609375 11.6484375 8.5546875 C13.1565326 9.97781949 14.58399858 11.48520778 16 13 C16 13.99 16 14.98 16 16 C15.34 16 14.68 16 14 16 C12.8212517 14.58550205 11.6468951 13.16700814 10.5 11.7265625 C8.40058977 9.31005386 6.01545543 7.32982133 3.55078125 5.296875 C2 4 2 4 0 2 C0 1.34 0 0.68 0 0 Z " fill="#FB9A33" transform="translate(233,78)"/>
<path d="M0 0 C-1.40276226 3.14051252 -3.09615863 5.36749893 -5.4375 7.875 C-8.3417305 11.10595643 -10.30586194 14.01379281 -12 18 C-12.66 17.01 -13.32 16.02 -14 15 C-6.1875 0 -6.1875 0 0 0 Z " fill="#F66955" transform="translate(109,187)"/>
<path d="M0 0 C1.24652344 -0.00257812 2.49304688 -0.00515625 3.77734375 -0.0078125 C7.0625 0.125 7.0625 0.125 10.0625 1.125 C10.3925 2.115 10.7225 3.105 11.0625 4.125 C10.12148437 4.0528125 9.18046875 3.980625 8.2109375 3.90625 C6.34308594 3.76703125 6.34308594 3.76703125 4.4375 3.625 C2.59285156 3.48578125 2.59285156 3.48578125 0.7109375 3.34375 C-2.51787857 3.15015931 -5.70428675 3.08520661 -8.9375 3.125 C-8.9375 2.465 -8.9375 1.805 -8.9375 1.125 C-5.97950997 -0.35399501 -3.2891424 -0.00678874 0 0 Z " fill="#FAA84B" transform="translate(222.9375,75.875)"/>
<path d="M0 0 C0.66 0.33 1.32 0.66 2 1 C1.04882866 2.1725131 0.08882991 3.33787015 -0.875 4.5 C-1.67550781 5.47453125 -1.67550781 5.47453125 -2.4921875 6.46875 C-2.98976563 6.9740625 -3.48734375 7.479375 -4 8 C-4.66 8 -5.32 8 -6 8 C-6 8.66 -6 9.32 -6 10 C-6.66 10 -7.32 10 -8 10 C-8 10.66 -8 11.32 -8 12 C-8.66 12 -9.32 12 -10 12 C-10 12.66 -10 13.32 -10 14 C-10.66 14 -11.32 14 -12 14 C-12 14.66 -12 15.32 -12 16 C-12.66 16 -13.32 16 -14 16 C-14.33 16.66 -14.66 17.32 -15 18 C-14.44391235 13.95658303 -12.3722646 11.78727191 -9.6875 8.8125 C-8.90761719 7.93207031 -8.12773437 7.05164063 -7.32421875 6.14453125 C-4.97951201 3.98109596 -3.97834968 3.65089761 -1 3 C-0.67 2.01 -0.34 1.02 0 0 Z " fill="#DF3221" transform="translate(260,218)"/>
<path d="M0 0 C0.33 0 0.66 0 1 0 C1.34634841 4.32935512 0.34635845 6.8577816 -1.75 10.625 C-2.51570313 12.03652344 -2.51570313 12.03652344 -3.296875 13.4765625 C-4.98252543 15.97410878 -6.49037934 17.37420227 -9 19 C-9 15 -9 15 -7.63671875 13.54296875 C-6.82654297 12.77919922 -6.82654297 12.77919922 -6 12 C-4.7951851 9.73972655 -4.7951851 9.73972655 -3.8125 7.3125 C-3.46832031 6.50425781 -3.12414062 5.69601563 -2.76953125 4.86328125 C-2.51558594 4.24839844 -2.26164062 3.63351563 -2 3 C-1.34 3 -0.68 3 0 3 C0 2.01 0 1.02 0 0 Z " fill="#F35D30" transform="translate(297,173)"/>
<path d="M0 0 C0.33 1.32 0.66 2.64 1 4 C0.01 4 -0.98 4 -2 4 C-5.44186399 7.52381313 -7.55443866 9.95030484 -8 15 C-8.45375 14.525625 -8.9075 14.05125 -9.375 13.5625 C-10.93258204 11.90972192 -10.93258204 11.90972192 -13 11 C-11.59419724 9.34487752 -10.17493734 7.70117794 -8.75 6.0625 C-7.96109375 5.14597656 -7.1721875 4.22945313 -6.359375 3.28515625 C-4.08748967 1.08473751 -3.07680978 0.33167445 0 0 Z " fill="#E76C39" transform="translate(194,97)"/>
<path d="M0 0 C0.99 0.33 1.98 0.66 3 1 C-1.74144487 7.04942966 -1.74144487 7.04942966 -4 9 C-4.66 9 -5.32 9 -6 9 C-6.268125 9.639375 -6.53625 10.27875 -6.8125 10.9375 C-8 13 -8 13 -11 14 C-11.33 13.34 -11.66 12.68 -12 12 C-11.34 12 -10.68 12 -10 12 C-9.75507813 11.42765625 -9.51015625 10.8553125 -9.2578125 10.265625 C-7.78889901 7.61975598 -6.04651756 5.85146861 -3.875 3.75 C-3.15054688 3.04359375 -2.42609375 2.3371875 -1.6796875 1.609375 C-1.12539062 1.07828125 -0.57109375 0.5471875 0 0 Z " fill="#F5774A" transform="translate(150,141)"/>
<path d="M0 0 C0.66 0.33 1.32 0.66 2 1 C-0.45350738 5.51961885 -3.27697829 10.04326264 -8.3125 11.8125 C-8.869375 11.874375 -9.42625 11.93625 -10 12 C-9.67 10.35 -9.34 8.7 -9 7 C-7.824375 6.87625 -7.824375 6.87625 -6.625 6.75 C-3.87359896 6.28389075 -3.87359896 6.28389075 -2.8125 4.0625 C-2.544375 3.381875 -2.27625 2.70125 -2 2 C-1.34 1.34 -0.68 0.68 0 0 Z " fill="#F04D5A" transform="translate(110,258)"/>
<path d="M0 0 C0.33 0.99 0.66 1.98 1 3 C-2.63 6.63 -6.26 10.26 -10 14 C-10.99 13.67 -11.98 13.34 -13 13 C-8.71 8.71 -4.42 4.42 0 0 Z " fill="#F55F4E" transform="translate(160,208)"/>
<path d="M0 0 C0.33 0.66 0.66 1.32 1 2 C-1.31368001 6.62736002 -3.99408067 10.08821849 -8.75 12.25 C-9.4925 12.4975 -10.235 12.745 -11 13 C-9.46356148 9.31930113 -7.21849055 7.01224796 -4.375 4.25 C-3.55773437 3.45078125 -2.74046875 2.6515625 -1.8984375 1.828125 C-0.95871094 0.92320312 -0.95871094 0.92320312 0 0 Z " fill="#F66447" transform="translate(181,186)"/>
<path d="M0 0 C-0.33 0.99 -0.66 1.98 -1 3 C-1.99 3.33 -2.98 3.66 -4 4 C-5.38478033 5.76052865 -6.52839374 7.60772977 -7.71875 9.50390625 C-8.1415625 9.99761719 -8.564375 10.49132812 -9 11 C-9.99 11 -10.98 11 -12 11 C-11.75 9.125 -11.75 9.125 -11 7 C-9.67532254 6.3162955 -8.34136367 5.65035814 -7 5 C-6.31731862 3.67479497 -5.6492959 2.34187818 -5 1 C-2 0 -2 0 0 0 Z " fill="#F89554" transform="translate(353,152)"/>
<path d="M0 0 C2.86697492 1.28519565 4.97607712 2.57129254 7 5 C7 5.66 7 6.32 7 7 C7.66 7 8.32 7 9 7 C9 7.66 9 8.32 9 9 C9.66 9 10.32 9 11 9 C11 9.66 11 10.32 11 11 C11.66 11.33 12.32 11.66 13 12 C11.68 12 10.36 12 9 12 C8.34 10.68 7.68 9.36 7 8 C6.34 8 5.68 8 5 8 C0 2.52380952 0 2.52380952 0 0 Z " fill="#EA455D" transform="translate(201,262)"/>
<path d="M0 0 C1.32 0.66 2.64 1.32 4 2 C3.21625 2.763125 2.4325 3.52625 1.625 4.3125 C-1.07257717 6.90891805 -1.07257717 6.90891805 -3 10 C-3.33 9.01 -3.66 8.02 -4 7 C-4.66 6.67 -5.32 6.34 -6 6 C-4.02 4.02 -2.04 2.04 0 0 Z " fill="#D1423B" transform="translate(227,276)"/>
<path d="M0 0 C0.66 0.33 1.32 0.66 2 1 C0.71937515 2.7074998 -0.61767557 4.37373596 -2 6 C-2.66 6 -3.32 6 -4 6 C-4.28875 6.639375 -4.5775 7.27875 -4.875 7.9375 C-6 10 -6 10 -8 11 C-8.66 10.34 -9.32 9.68 -10 9 C-8.71142987 7.68445979 -7.41904109 6.37265903 -6.125 5.0625 C-5.04605469 3.96615234 -5.04605469 3.96615234 -3.9453125 2.84765625 C-2 1 -2 1 0 0 Z " fill="#F64C47" transform="translate(147,222)"/>
<path d="M0 0 C0.66 0.66 1.32 1.32 2 2 C-3.0940919 8.70459519 -3.0940919 8.70459519 -6.875 9.9375 C-7.57625 9.958125 -8.2775 9.97875 -9 10 C-9.33 9.34 -9.66 8.68 -10 8 C-9.05125 7.7525 -8.1025 7.505 -7.125 7.25 C-3.9323374 6.32970141 -3.9323374 6.32970141 -2.75 4 C-2.5025 3.34 -2.255 2.68 -2 2 C-1.34 1.34 -0.68 0.68 0 0 Z " fill="#ED5D39" transform="translate(284,193)"/>
<path d="M0 0 C0.66 0.99 1.32 1.98 2 3 C1.01 3.33 0.02 3.66 -1 4 C-1 4.66 -1 5.32 -1 6 C-1.66 6 -2.32 6 -3 6 C-3.433125 6.928125 -3.433125 6.928125 -3.875 7.875 C-5 10 -5 10 -7 12 C-7.99 11.67 -8.98 11.34 -10 11 C-6.83451967 7.11098131 -3.59634744 3.49359465 0 0 Z " fill="#F15554" transform="translate(287,292)"/>
<path d="M0 0 C0.33 0.66 0.66 1.32 1 2 C1.66 2 2.32 2 3 2 C3 2.66 3 3.32 3 4 C3.66 4 4.32 4 5 4 C5 4.66 5 5.32 5 6 C5.66 6 6.32 6 7 6 C7 6.66 7 7.32 7 8 C7.66 8 8.32 8 9 8 C9.33 8.99 9.66 9.98 10 11 C5.75153925 10.52794881 3.73180712 8.11122478 1 5 C1 4.34 1 3.68 1 3 C0.34 2.67 -0.32 2.34 -1 2 C-0.67 1.34 -0.34 0.68 0 0 Z " fill="#FA8F2A" transform="translate(249,92)"/>
<path d="M0 0 C2.85541213 0.08398271 4.56239033 0.60956385 6.703125 2.51953125 C9.83700878 5.99755648 9.83700878 5.99755648 11 8 C10.67 8.99 10.34 9.98 10 11 C8.82737096 9.88121617 7.66204862 8.75476949 6.5 7.625 C5.8503125 6.99851562 5.200625 6.37203125 4.53125 5.7265625 C3 4 3 4 3 2 C2.01 1.67 1.02 1.34 0 1 C0 0.67 0 0.34 0 0 Z " fill="#EC3D65" transform="translate(188,329)"/>
<path d="M0 0 C-0.57575664 3.35250701 -1.59306263 4.93818629 -4.0625 7.25 C-4.88427734 8.03117187 -4.88427734 8.03117187 -5.72265625 8.828125 C-6.14417969 9.21484375 -6.56570313 9.6015625 -7 10 C-7.99 9.67 -8.98 9.34 -10 9 C-2.6 0 -2.6 0 0 0 Z " fill="#EE5157" transform="translate(269,313)"/>
<path d="M0 0 C1.875 0.25 1.875 0.25 4 1 C5 2.8125 5 2.8125 6 5 C7.29470975 6.37086915 8.62150897 7.71340837 10 9 C9.67 9.99 9.34 10.98 9 12 C7.86966702 10.75482035 6.74594964 9.50363348 5.625 8.25 C4.99851563 7.55390625 4.37203125 6.8578125 3.7265625 6.140625 C2.12494817 4.15491312 1.03479932 2.32045907 0 0 Z " fill="#DB2C4D" transform="translate(161,299)"/>
<path d="M0 0 C2 1.625 2 1.625 4 4 C4.25 7.25 4.25 7.25 4 10 C4.66 10 5.32 10 6 10 C6 10.99 6 11.98 6 13 C5.34 13 4.68 13 4 13 C3.32404685 11.58774074 2.65959941 10.16997095 2 8.75 C1.62875 7.96109375 1.2575 7.1721875 0.875 6.359375 C0 4 0 4 0 0 Z " fill="#D02045" transform="translate(147,276)"/>
<path d="M0 0 C0.99 0.33 1.98 0.66 3 1 C2.04578192 2.14926266 1.08647955 3.29430541 0.125 4.4375 C-0.40867187 5.07558594 -0.94234375 5.71367187 -1.4921875 6.37109375 C-3 8 -3 8 -5 9 C-4.67 7.35 -4.34 5.7 -4 4 C-3.34 4 -2.68 4 -2 4 C-2 3.34 -2 2.68 -2 2 C-1.34 2 -0.68 2 0 2 C0 1.34 0 0.68 0 0 Z " fill="#F56D52" transform="translate(121,171)"/>
<path d="M0 0 C0.99 0.33 1.98 0.66 3 1 C2.67 1.66 2.34 2.32 2 3 C1.34 3 0.68 3 0 3 C-0.66 4.32 -1.32 5.64 -2 7 C-2.99 7 -3.98 7 -5 7 C-3.47793991 4.37098712 -2.15634036 2.15634036 0 0 Z " fill="#F15A45" transform="translate(242,261)"/>
<path d="M0 0 C0.66 0.33 1.32 0.66 2 1 C-0.31 3.64 -2.62 6.28 -5 9 C-5.66 8.67 -6.32 8.34 -7 8 C-5.08864614 4.46399535 -3.37357234 2.21027154 0 0 Z " fill="#F4724F" transform="translate(133,160)"/>
<path d="M0 0 C2.97 0.33 5.94 0.66 9 1 C9.33 1.99 9.66 2.98 10 4 C8.72125 3.896875 7.4425 3.79375 6.125 3.6875 C5.04605469 3.60048828 5.04605469 3.60048828 3.9453125 3.51171875 C2 3 2 3 0 0 Z " fill="#FAA23E" transform="translate(224,76)"/>
<path d="M0 0 C3.48539917 0.64544429 6.02819057 2.10134397 9 4 C8.67 4.66 8.34 5.32 8 6 C4.74456771 5.65120368 3.98126893 4.97866739 1.75 2.4375 C1.1725 1.633125 0.595 0.82875 0 0 Z " fill="#D9362D" transform="translate(215,253)"/>
<path d="M0 0 C0 0.99 0 1.98 0 3 C-1.98 3.99 -1.98 3.99 -4 5 C-4 5.66 -4 6.32 -4 7 C-4.99 6.67 -5.98 6.34 -7 6 C-3.375 1.125 -3.375 1.125 0 0 Z " fill="#F48347" transform="translate(183,108)"/>
<path d="M0 0 C0.33 0.99 0.66 1.98 1 3 C-0.28965176 4.37562854 -1.62689293 5.70766393 -3 7 C-3.66 7 -4.32 7 -5 7 C-4.75 4.625 -4.75 4.625 -4 2 C-1.9375 0.6875 -1.9375 0.6875 0 0 Z " fill="#E13336" transform="translate(256,323)"/>
<path d="M0 0 C2.3125 0.1875 2.3125 0.1875 5 1 C6.8125 3.5625 6.8125 3.5625 8 6 C4.74456771 5.65120368 3.98126893 4.97866739 1.75 2.4375 C1.1725 1.633125 0.595 0.82875 0 0 Z " fill="#D5422F" transform="translate(208,246)"/>
<path d="M0 0 C0.33 0 0.66 0 1 0 C1 2.97 1 5.94 1 9 C2.98 9.495 2.98 9.495 5 10 C4.34 10 3.68 10 3 10 C3 10.66 3 11.32 3 12 C2.01 12 1.02 12 0 12 C0 8.04 0 4.08 0 0 Z " fill="#EA444D" transform="translate(257,314)"/>
<path d="M0 0 C0.66 0.33 1.32 0.66 2 1 C-1.44615385 5.8 -1.44615385 5.8 -4.25 6.8125 C-5.11625 6.9053125 -5.11625 6.9053125 -6 7 C-6 6.34 -6 5.68 -6 5 C-5.34 5 -4.68 5 -4 5 C-4 4.34 -4 3.68 -4 3 C-3.34 3 -2.68 3 -2 3 C-2 2.34 -2 1.68 -2 1 C-1.34 0.67 -0.68 0.34 0 0 Z " fill="#C94C3B" transform="translate(224,170)"/>
<path d="M0 0 C0.99 0.66 1.98 1.32 3 2 C1.35 3.98 -0.3 5.96 -2 8 C-2.6875 6.25 -2.6875 6.25 -3 4 C-1.5625 1.75 -1.5625 1.75 0 0 Z " fill="#F7652D" transform="translate(344,231)"/>
<path d="M0 0 C0.66 0.33 1.32 0.66 2 1 C0.02 3.31 -1.96 5.62 -4 8 C-4.33 6.68 -4.66 5.36 -5 4 C-4.0409375 3.8453125 -4.0409375 3.8453125 -3.0625 3.6875 C-2.381875 3.460625 -1.70125 3.23375 -1 3 C-0.67 2.01 -0.34 1.02 0 0 Z " fill="#E12014" transform="translate(260,218)"/>
<path d="M0 0 C0.33 0 0.66 0 1 0 C0.67 2.31 0.34 4.62 0 7 C-0.66 7 -1.32 7 -2 7 C-2.33 7.99 -2.66 8.98 -3 10 C-2.67 7.36 -2.34 4.72 -2 2 C-1.34 2 -0.68 2 0 2 C0 1.34 0 0.68 0 0 Z " fill="#F35E52" transform="translate(95,206)"/>
<path d="M0 0 C1.32 0.66 2.64 1.32 4 2 C2.35 3.65 0.7 5.3 -1 7 C-1.66 6.67 -2.32 6.34 -3 6 C-2.01 4.02 -1.02 2.04 0 0 Z " fill="#CA301D" transform="translate(273,202)"/>
<path d="M0 0 C0.33 0.99 0.66 1.98 1 3 C-0.3125 4.5 -0.3125 4.5 -2 6 C-2.99 6 -3.98 6 -5 6 C-3.63016497 2.83884224 -3.0109362 2.0072908 0 0 Z " fill="#DA3729" transform="translate(194,200)"/>
<path d="M0 0 C0.66 0 1.32 0 2 0 C2.33 0.99 2.66 1.98 3 3 C1.68 3.99 0.36 4.98 -1 6 C-1.66 5.34 -2.32 4.68 -3 4 C-2.67 3.34 -2.34 2.68 -2 2 C-1.34 2 -0.68 2 0 2 C0 1.34 0 0.68 0 0 Z " fill="#F76D30" transform="translate(315,186)"/>
<path d="M0 0 C0.66 0.33 1.32 0.66 2 1 C1.67 2.32 1.34 3.64 1 5 C-0.65 5.33 -2.3 5.66 -4 6 C-2.84826645 3.53199953 -1.95216435 1.95216435 0 0 Z " fill="#F98534" transform="translate(334,167)"/>
<path d="M0 0 C1.32 0.33 2.64 0.66 4 1 C3.34 1 2.68 1 2 1 C1.34 2.32 0.68 3.64 0 5 C-1.32 4.67 -2.64 4.34 -4 4 C-3.34 4 -2.68 4 -2 4 C-1.34 2.68 -0.68 1.36 0 0 Z " fill="#D96139" transform="translate(233,160)"/>
<path d="M0 0 C1.32 0.33 2.64 0.66 4 1 C4 1.66 4 2.32 4 3 C5.32 3.66 6.64 4.32 8 5 C7.67 5.66 7.34 6.32 7 7 C5.82780457 6.21654285 4.66236332 5.42297164 3.5 4.625 C2.8503125 4.18414062 2.200625 3.74328125 1.53125 3.2890625 C1.0259375 2.86367187 0.520625 2.43828125 0 2 C0 1.34 0 0.68 0 0 Z " fill="#DE394D" transform="translate(187,248)"/>
<path d="M0 0 C0.33 0.99 0.66 1.98 1 3 C0.01 4.485 0.01 4.485 -1 6 C-2.32 6 -3.64 6 -5 6 C-5 5.34 -5 4.68 -5 4 C-3.37373596 2.61767557 -1.7074998 1.28062485 0 0 Z " fill="#DE3F2C" transform="translate(244,233)"/>
<path d="M0 0 C1.32 0.33 2.64 0.66 4 1 C3.34 2.32 2.68 3.64 2 5 C0.68 4.67 -0.64 4.34 -2 4 C-1.34 2.68 -0.68 1.36 0 0 Z " fill="#C74322" transform="translate(220,145)"/>
<path d="M0 0 C0.33 1.32 0.66 2.64 1 4 C0.01 4 -0.98 4 -2 4 C-2.99 4.495 -2.99 4.495 -4 5 C-4.66 4.34 -5.32 3.68 -6 3 C-3.8614515 0.8614515 -2.86724686 0.57344937 0 0 Z " fill="#EC692D" transform="translate(194,97)"/>
</svg>
