<svg xmlns="http://www.w3.org/2000/svg" width="800" height="540.185" viewBox="0 0 800 540.185"><g transform="translate(-558.37 -161)"><path fill="#ed9da0" d="m594.051 682.556 16.715 2.456 18.1-50.1-19.704-10.657Z"/><path fill="#090814" d="M651.378 690.597a14.5 14.5 0 0 1 .1 4.842 5.734 5.734 0 0 1-6.507 4.839l-51.766-7.611a3.91 3.91 0 0 1-3.3-4.439l.317-2.155s-1.609-6.854 4.838-14.063c0 0 7.25 8.352 18.481 0l3.726-4.942 16.971 17.358 11.375 3.129c2.489.685 4.789.655 5.77 3.042Z"/><path fill="#ed9da0" d="M725.267 690.162h16.98l8.077-65.5h-25.061Z"/><path fill="#090814" d="M783.444 689.777a14.6 14.6 0 0 1 .808 4.8 5.763 5.763 0 0 1-5.763 5.763h-52.588a3.93 3.93 0 0 1-3.932-3.932v-2.189s-2.6-6.58 2.754-14.69c0 0 6.656 6.35 16.6-3.6l2.933-5.314 21.232 15.528 11.768 1.448c2.575.317 4.857-.049 6.182 2.181Z"/><path fill="#ed9da0" d="M684.188 315.545s16.173-10.794 20.892-3.634 2.981 32.8 2.981 32.8l-23.873-5.717Z"/><path fill="#090814" d="M645.904 472.943s-5.222 62.783-6.343 76.237a95.7 95.7 0 0 1-5.605 24.664 23.2 23.2 0 0 0-2.242 8.969s-14.356 24.116-23.387 41.766a126.7 126.7 0 0 0-11.607 34.18s22.232 4.1 25.6 2.98 7.7-25.547 45.274-86.773l26.907-56.056s15.7 50.45 19.059 56.056c0 0 5.869 82.828 8.111 88.434s30.443-1.661 30.443-1.661l-4.921-84.531-10.09-95.295-51.571-15.7Z"/><path fill="#e6e6e6" d="m739.341 357.47-28.027-16.981s-.777-10.544-8.762-11.041c-4.009-.249-10.025-.63-19.054-1.212-1.908-.123-3.2 10.316-5.382 10.174l-29.586 7.847 4.484 76.236s-6.727 30.27-4.484 35.876-5.606 7.848-3.363 8.969 0 8.969 0 8.969 43.723 22.422 91.931 5.606l-4.484-14.574c1.241-3.873-1.121-33.633-7.848-53.813l3.363-7.848Z"/><path fill="#ed9da0" d="M738.935 395.656s-10.09 42.6 2.242 42.6 41.481-48.208 41.481-48.208l-10.086-12.329-18.11 25.144-.948-12.812Z"/><circle cx="9.816" cy="9.816" r="9.816" fill="#ed9da0" transform="translate(770.154 372.271)"/><path fill="#f2f2f2" d="M558.37 699.493h251.182v1.692H558.37z"/><circle cx="23.543" cy="23.543" r="23.543" fill="#ed9da0" transform="translate(672.852 278.283)"/><path fill="#090814" d="m676.618 314.704-1.353-1.375c-.086-.2-9.291-20.176-1.8-32.5 3.467-5.7 9.771-8.924 18.737-9.571 14.028-1.014 23.63 2.313 28.545 9.884a8.487 8.487 0 0 1-7.153 13.074h-.189l-2.578-3.347-.15.326a5.33 5.33 0 0 1-5.587 2.882c-.427-.031-.805.338-1.109 1.127a2 2 0 0 1-1.5 1.39c-1.855.361-4.5-1.975-5.682-3.14a1.9 1.9 0 0 1-.885 1.3c-1.247.72-3.188-.22-3.745-.52-4.438.943-7.311.691-8.541-.749-.834 5.9-2.625 16.529-4.772 17.118a1.07 1.07 0 0 1-1.172-.512c-.517-.671-.979-1.006-1.268-.912-.7.222-.356 2.523-.415 4.007Z"/><path fill="#e6e6e6" d="m727.008 358.591 11.184-1.817a54.6 54.6 0 0 1 15.723 28.726c3.363 17.938 4.484 21.3 4.484 21.3l-26.907 6.727-14.574-28.027Z"/><path fill="#fff" d="m670.475 469.538 6.91-87.615 176.375 13.912-6.91 87.615z"/><path fill="#c2410c" d="m846.808 387.318-158.785-12.526a14.107 14.107 0 0 0-15.171 12.956l-6.106 77.358a14.115 14.115 0 0 0 12.958 15.178l158.785 12.527a14.107 14.107 0 0 0 15.171-12.956l5.8-73.526.117-1.5.185-2.338a14.107 14.107 0 0 0-12.954-15.173m-4.689 67.306-1.006 12.745a8.544 8.544 0 0 1-9.168 7.823l-21.243-1.674a8.544 8.544 0 0 1-7.823-9.168l1.006-12.745a8.547 8.547 0 0 1 9.168-7.823l21.236 1.676a8.554 8.554 0 0 1 7.831 9.166Zm-165.463-6.645a7.81 7.81 0 0 1 8.39-7.167l28.32 2.235a7.81 7.81 0 1 1-1.215 15.571h-.015l-28.32-2.235a7.8 7.8 0 0 1-7.163-8.409Zm6.063-63.035-.194-.792.815-.075c.318-.034 7.852-.711 13.716 3.478s7.662 11.538 7.74 11.846l.186.794-.813.082a21.5 21.5 0 0 1-3.465-.023 20.5 20.5 0 0 1-10.253-3.463c-5.863-4.189-7.661-11.538-7.732-11.847"/><path fill="#c2410c" d="m818.295 463.077-9.2-.726a2.486 2.486 0 0 0-.391 4.956l9.2.726a2.486 2.486 0 0 0 .391-4.956m16.992 1.344-9.2-.726a2.486 2.486 0 0 0-.391 4.956l9.2.726a2.486 2.486 0 1 0 .391-4.956m-16.489-7.716-9.2-.726a2.486 2.486 0 1 0-.391 4.956l9.2.726a2.486 2.486 0 1 0 .391-4.956m16.992 1.34-9.2-.726a2.486 2.486 0 0 0-.391 4.956l9.2.726a2.486 2.486 0 1 0 .391-4.956m-16.488-7.712-9.2-.726a2.486 2.486 0 0 0-.391 4.956l9.2.726a2.486 2.486 0 1 0 .391-4.956m16.988 1.34-9.2-.726a2.486 2.486 0 0 0-.391 4.956l9.2.726a2.486 2.486 0 0 0 .391-4.956"/><path fill="#fff" d="m670.372 413.662.118-1.506 186.393 14.64-.118 1.506z"/><path fill="#3f3d56" d="m859.579 404.826-.117 1.5-6.487-.509-69.113-5.426.125-1.5 69.107 5.431Z"/><path fill="#ed9da0" d="M631.714 388.86s-10.09 42.6 2.242 42.6 41.481-48.208 41.481-48.208l-10.086-12.329-9.726 13.5-8.385 11.641-.948-12.812Z"/><circle cx="9.816" cy="9.816" r="9.816" fill="#ed9da0" transform="translate(662.933 365.475)"/><path fill="#e6e6e6" d="m656.697 352.985-6.727-6.727s-13.453 7.848-14.574 15.7-6.727 32.512-6.727 32.512l20.741 1.682 6.727-10.09Z"/><g transform="translate(806.41 179.122)"><rect width="241.624" height="48.325" fill="#f2f2f2" rx="16"/><path fill="#090814" d="M12.081 2.265a9.816 9.816 0 0 0-9.816 9.816v24.163a9.816 9.816 0 0 0 9.816 9.816h217.462a9.816 9.816 0 0 0 9.816-9.816V12.081a9.816 9.816 0 0 0-9.816-9.816zm0-2.265h217.462a12.08 12.08 0 0 1 12.081 12.081v24.163a12.08 12.08 0 0 1-12.081 12.081H12.081A12.08 12.08 0 0 1 0 36.244V12.081A12.08 12.08 0 0 1 12.081 0"/><path fill="#c2410c" d="M24.342 8.349h18.975a6.325 6.325 0 0 1 6.325 6.325v18.975a6.325 6.325 0 0 1-6.325 6.327H24.342a6.325 6.325 0 0 1-6.325-6.327V14.674a6.325 6.325 0 0 1 6.325-6.325"/><path fill="#fff" d="M33.259 34.702v-2.049a6.23 6.23 0 0 1-3.917-1.463 4.9 4.9 0 0 1-1.538-3.624h2.78a2.46 2.46 0 0 0 .831 1.785 3.43 3.43 0 0 0 1.845.766v-4.9l-.846-.234a6.9 6.9 0 0 1-3.072-1.603 3.78 3.78 0 0 1-1.1-2.826 4.44 4.44 0 0 1 .65-2.4 4.8 4.8 0 0 1 1.78-1.672 6.5 6.5 0 0 1 2.588-.766v-2.094h1.266v2.08a6.2 6.2 0 0 1 2.663.731 4.8 4.8 0 0 1 1.777 1.669 4.5 4.5 0 0 1 .68 2.328h-2.735a2.23 2.23 0 0 0-.729-1.5 3 3 0 0 0-1.657-.7v4.622l.707.187a10.2 10.2 0 0 1 2.221.859 4.9 4.9 0 0 1 1.732 1.504 4 4 0 0 1 .669 2.383 4.47 4.47 0 0 1-1.4 3.381 6.04 6.04 0 0 1-3.926 1.486v2.05Zm1.266-4.6a3.22 3.22 0 0 0 1.82-.775 2.03 2.03 0 0 0 .692-1.563 1.6 1.6 0 0 0-.686-1.392 6 6 0 0 0-1.824-.8Zm-1.266-7.591v-4.268a2.77 2.77 0 0 0-1.6.731 1.9 1.9 0 0 0-.575 1.4 1.61 1.61 0 0 0 .669 1.392 5.3 5.3 0 0 0 1.506.749Z"/><path fill="#c2410c" d="M65.458 10.985h94.883a5.271 5.271 0 0 1 0 10.542H65.458a5.271 5.271 0 0 1 0-10.542m0 15.813h52.713a5.271 5.271 0 0 1 0 10.542H65.458a5.271 5.271 0 0 1 0-10.542"/><circle cx="8.424" cy="8.424" r="8.424" fill="#c2410c" transform="translate(230.818 38.851)"/><path fill="#090814" d="M213.784 32.068a1.69 1.69 0 0 1-1.352-.68l-4.145-5.526a1.69 1.69 0 0 1 2.7-2.028l2.711 3.615 6.964-10.446a1.69 1.69 0 0 1 2.813 1.875l-8.288 12.436a1.69 1.69 0 0 1-1.359.755Z"/></g><g transform="translate(953.649 262.74)"><rect width="241.624" height="48.325" fill="#f2f2f2" rx="16"/><path fill="#090814" d="M12.081 2.265a9.816 9.816 0 0 0-9.816 9.816v24.163a9.816 9.816 0 0 0 9.816 9.816h217.462a9.816 9.816 0 0 0 9.816-9.816V12.081a9.816 9.816 0 0 0-9.816-9.816zm0-2.265h217.462a12.08 12.08 0 0 1 12.081 12.081v24.163a12.08 12.08 0 0 1-12.081 12.081H12.081A12.08 12.08 0 0 1 0 36.244V12.081A12.08 12.08 0 0 1 12.081 0"/><path fill="#c2410c" d="M24.342 8.349h18.975a6.325 6.325 0 0 1 6.325 6.325v18.975a6.325 6.325 0 0 1-6.325 6.327H24.342a6.325 6.325 0 0 1-6.325-6.327V14.674a6.325 6.325 0 0 1 6.325-6.325"/><path fill="#fff" d="M33.259 34.702v-2.049a6.23 6.23 0 0 1-3.917-1.463 4.9 4.9 0 0 1-1.538-3.624h2.78a2.46 2.46 0 0 0 .831 1.785 3.43 3.43 0 0 0 1.845.766v-4.9l-.846-.234a6.9 6.9 0 0 1-3.072-1.603 3.78 3.78 0 0 1-1.1-2.826 4.44 4.44 0 0 1 .65-2.4 4.8 4.8 0 0 1 1.78-1.672 6.5 6.5 0 0 1 2.588-.766v-2.094h1.266v2.08a6.2 6.2 0 0 1 2.663.731 4.8 4.8 0 0 1 1.777 1.669 4.5 4.5 0 0 1 .68 2.328h-2.735a2.23 2.23 0 0 0-.729-1.5 3 3 0 0 0-1.657-.7v4.622l.707.187a10.2 10.2 0 0 1 2.221.859 4.9 4.9 0 0 1 1.732 1.504 4 4 0 0 1 .669 2.383 4.47 4.47 0 0 1-1.4 3.381 6.04 6.04 0 0 1-3.926 1.486v2.05Zm1.266-4.6a3.22 3.22 0 0 0 1.82-.775 2.03 2.03 0 0 0 .692-1.563 1.6 1.6 0 0 0-.686-1.392 6 6 0 0 0-1.824-.8Zm-1.266-7.591v-4.268a2.77 2.77 0 0 0-1.6.731 1.9 1.9 0 0 0-.575 1.4 1.61 1.61 0 0 0 .669 1.392 5.3 5.3 0 0 0 1.506.749Z"/><path fill="#c2410c" d="M65.458 10.985h94.883a5.271 5.271 0 0 1 0 10.542H65.458a5.271 5.271 0 0 1 0-10.542m0 15.813h52.713a5.271 5.271 0 0 1 0 10.542H65.458a5.271 5.271 0 0 1 0-10.542"/><circle cx="8.424" cy="8.424" r="8.424" fill="#c2410c" transform="translate(230.818 38.851)"/><path fill="#090814" d="M213.784 32.068a1.69 1.69 0 0 1-1.352-.68l-4.145-5.526a1.69 1.69 0 0 1 2.7-2.028l2.711 3.615 6.964-10.446a1.69 1.69 0 0 1 2.813 1.875l-8.288 12.436a1.69 1.69 0 0 1-1.359.755Z"/></g><g transform="translate(1110.705 161)"><rect width="241.624" height="48.325" fill="#f2f2f2" rx="16"/><path fill="#090814" d="M12.081 2.265a9.816 9.816 0 0 0-9.816 9.816v24.163a9.816 9.816 0 0 0 9.816 9.816h217.462a9.816 9.816 0 0 0 9.816-9.816V12.081a9.816 9.816 0 0 0-9.816-9.816zm0-2.265h217.462a12.08 12.08 0 0 1 12.081 12.081v24.163a12.08 12.08 0 0 1-12.081 12.081H12.081A12.08 12.08 0 0 1 0 36.244V12.081A12.08 12.08 0 0 1 12.081 0"/><path fill="#c2410c" d="M24.342 8.349h18.975a6.325 6.325 0 0 1 6.325 6.325v18.975a6.325 6.325 0 0 1-6.325 6.327H24.342a6.325 6.325 0 0 1-6.325-6.327V14.674a6.325 6.325 0 0 1 6.325-6.325"/><path fill="#fff" d="M33.259 34.702v-2.049a6.23 6.23 0 0 1-3.917-1.463 4.9 4.9 0 0 1-1.538-3.624h2.78a2.46 2.46 0 0 0 .831 1.785 3.43 3.43 0 0 0 1.845.766v-4.9l-.846-.234a6.9 6.9 0 0 1-3.072-1.603 3.78 3.78 0 0 1-1.1-2.826 4.44 4.44 0 0 1 .65-2.4 4.8 4.8 0 0 1 1.78-1.672 6.5 6.5 0 0 1 2.588-.766v-2.094h1.266v2.08a6.2 6.2 0 0 1 2.663.731 4.8 4.8 0 0 1 1.777 1.669 4.5 4.5 0 0 1 .68 2.328h-2.735a2.23 2.23 0 0 0-.729-1.5 3 3 0 0 0-1.657-.7v4.622l.707.187a10.2 10.2 0 0 1 2.221.859 4.9 4.9 0 0 1 1.732 1.504 4 4 0 0 1 .669 2.383 4.47 4.47 0 0 1-1.4 3.381 6.04 6.04 0 0 1-3.926 1.486v2.05Zm1.266-4.6a3.22 3.22 0 0 0 1.82-.775 2.03 2.03 0 0 0 .692-1.563 1.6 1.6 0 0 0-.686-1.392 6 6 0 0 0-1.824-.8Zm-1.266-7.591v-4.268a2.77 2.77 0 0 0-1.6.731 1.9 1.9 0 0 0-.575 1.4 1.61 1.61 0 0 0 .669 1.392 5.3 5.3 0 0 0 1.506.749Z"/><path fill="#c2410c" d="M65.458 10.985h94.883a5.271 5.271 0 0 1 0 10.542H65.458a5.271 5.271 0 0 1 0-10.542m0 15.813h52.713a5.271 5.271 0 0 1 0 10.542H65.458a5.271 5.271 0 0 1 0-10.542"/><circle cx="8.424" cy="8.424" r="8.424" fill="#c2410c" transform="translate(230.818 38.851)"/><path fill="#090814" d="M213.784 32.068a1.69 1.69 0 0 1-1.352-.68l-4.145-5.526a1.69 1.69 0 0 1 2.7-2.028l2.711 3.615 6.964-10.446a1.69 1.69 0 0 1 2.813 1.875l-8.288 12.436a1.69 1.69 0 0 1-1.359.755Z"/></g></g></svg>