<svg xmlns="http://www.w3.org/2000/svg" width="666.667" height="666.667" viewBox="0 0 500 500"><g fill="#233447" stroke="solid" stroke-linecap="round" stroke-linejoin="round" stroke-width=".05"><path d="M160.2 208.7c-.6.3-1 .9-.6 1.4.3.5 0 .9-.6.9s-.8.4-.5 1c.4.6-.1.7-1.1.3-1.3-.5-1.5-.3-.9.7.6.9.4 1.1-.5.5-.7-.4-1.6-.2-2.1.6-.7 1.1-.9 1.1-.9.1 0-2.1-15.4-.5-21 2.1-2.5 1.1-5.5 1.9-6.8 1.8s-3.3.6-4.5 1.6c-1.4 1.3-1.8 1.4-1.3.3.4-.9.2-.8-.7.2-.8 1-1.8 1.8-2.3 1.8-.5.1-8 7.2-16.7 15.8L84 253.5l6 6.2c3.3 3.5 6.4 6.3 6.8 6.3s8.6-7.9 18.1-17.5l17.3-17.5 4.5 4c6 5.3 10.3 6.1 16.2 2.9 7-3.7 9.3-9 8.9-20.6-.2-6.7-.6-8.9-1.6-8.6"/><path d="M126.6 214.8c-.2.4-.1 1.4.4 2.2.7 1.1.9.9.7-.8-.1-2.4-.3-2.6-1.1-1.4m25.5 42.2c-10.5 10.4-19.5 19-19.9 19s-3.2-2.5-6.2-5.5-5.9-5.5-6.5-5.5c-.5.1-3.6 2.7-6.9 5.9l-5.8 5.8 7.9 8c7.1 7.1 8.6 8.2 13.3 9.2 9.9 2.1 11 1.4 34.3-21.7 11.4-11.4 20.7-21.1 20.7-21.7s-2.6-3.7-5.8-6.8l-5.8-5.8z"/></g></svg>