<?xml version="1.0" standalone="no"?>
<!DOCTYPE svg PUBLIC "-//W3C//DTD SVG 20010904//EN"
 "http://www.w3.org/TR/2001/REC-SVG-20010904/DTD/svg10.dtd">
<svg version="1.0" xmlns="http://www.w3.org/2000/svg"
 width="1120.000000pt" height="1120.000000pt" viewBox="0 0 1120.000000 1120.000000"
 preserveAspectRatio="xMidYMid meet">

<g transform="translate(0.000000,1120.000000) scale(0.100000,-0.100000)"
fill="#000000" stroke="none">
<path d="M5470 9233 l-95 -98 98 95 c90 88 102 100 94 100 -1 0 -45 -44 -97
-97z"/>
<path d="M5725 9210 c49 -49 92 -90 95 -90 2 0 -36 41 -85 90 -49 50 -92 90
-95 90 -2 0 36 -40 85 -90z"/>
<path d="M5280 9043 l-85 -88 88 85 c81 79 92 90 84 90 -1 0 -41 -39 -87 -87z"/>
<path d="M5910 9025 c47 -49 86 -91 88 -94 1 -2 4 -2 7 0 2 3 -37 45 -88 95
l-92 89 85 -90z"/>
<path d="M6035 8900 c10 -11 20 -20 23 -20 3 0 -3 9 -13 20 -10 11 -20 20 -23
20 -3 0 3 -9 13 -20z"/>
<path d="M4950 8723 l-65 -66 73 63 c39 35 72 65 72 66 0 13 -23 -5 -80 -63z"/>
<path d="M6200 8735 c13 -14 26 -25 28 -25 3 0 -5 11 -18 25 -13 14 -26 25
-28 25 -3 0 5 -11 18 -25z"/>
<path d="M6335 8600 c38 -38 72 -70 74 -70 3 0 -26 32 -64 70 -38 39 -72 70
-74 70 -3 0 26 -31 64 -70z"/>
<path d="M4829 8603 l-24 -28 28 24 c25 23 32 31 24 31 -2 0 -14 -12 -28 -27z"/>
<path d="M4769 8544 c-13 -14 -17 -23 -9 -19 13 5 46 45 37 45 -2 0 -14 -11
-28 -26z"/>
<path d="M6046 8489 c-397 -42 -827 -168 -1142 -334 -270 -142 -429 -258 -632
-461 -154 -154 -171 -169 -100 -82 22 26 37 52 33 58 -3 5 0 7 8 4 10 -3 18 5
25 26 8 21 17 30 29 28 12 -2 18 3 17 14 -1 10 4 14 12 11 8 -3 14 -1 14 5 0
19 -32 36 -72 38 -35 2 -39 0 -35 -18 4 -16 3 -17 -9 -7 -11 9 -14 7 -15 -12
-1 -18 -3 -19 -6 -6 -3 12 -10 16 -24 12 -14 -5 -17 -3 -13 9 4 11 0 16 -11
16 -9 0 -14 4 -10 9 3 5 1 12 -4 15 -13 8 -42 -4 -35 -15 3 -5 -2 -9 -10 -9
-9 0 -16 -7 -16 -16 0 -8 -4 -13 -9 -10 -5 3 -11 -3 -14 -14 -3 -11 -12 -20
-21 -20 -9 0 -16 -5 -16 -12 0 -6 -3 -8 -6 -5 -10 10 122 152 473 508 101 102
183 191 183 198 0 8 -11 10 -32 7 -18 -3 -64 -8 -103 -11 -512 -46 -1011 -320
-1305 -716 -282 -380 -405 -825 -387 -1399 6 -187 22 -315 62 -475 13 -55 27
-111 30 -125 l6 -25 -15 25 c-8 14 -18 46 -21 73 -4 26 -11 47 -15 47 -4 0 -6
10 -2 22 3 13 1 19 -5 15 -6 -4 -8 3 -5 18 2 15 0 25 -7 25 -7 0 -9 5 -5 12 5
7 3 8 -6 3 -7 -4 -16 -2 -21 6 -6 11 -11 11 -21 1 -9 -9 -9 -12 0 -12 21 0 13
-15 -15 -28 -17 -8 -23 -8 -16 -1 11 11 8 21 -15 58 -1 3 -12 -5 -23 -18 -21
-22 -46 -23 -41 -2 1 7 -2 10 -7 7 -5 -3 -12 -21 -15 -40 -6 -29 -10 -33 -29
-29 l-22 6 23 -22 c22 -22 22 -23 4 -49 -23 -33 -36 -64 -33 -77 1 -5 -5 -2
-15 7 -11 11 -22 14 -33 8 -9 -5 -24 -11 -34 -14 -21 -7 -23 -26 -2 -26 24 0
18 -27 -7 -34 -36 -9 -39 -7 -28 14 7 14 7 20 0 20 -9 0 -12 -6 -14 -39 -1
-16 -73 -44 -88 -35 -19 12 -73 10 -86 -3 -11 -10 -8 -12 15 -7 24 5 28 2 29
-18 1 -17 -4 -24 -18 -25 -26 -2 -70 -31 -64 -42 3 -5 -3 -26 -13 -47 -10 -21
-16 -45 -13 -54 5 -13 3 -13 -11 -1 -9 7 -14 18 -10 25 4 7 1 6 -9 -1 -8 -7
-19 -9 -23 -5 -5 4 -5 1 0 -7 6 -10 2 -12 -16 -7 -23 7 -23 6 4 -18 15 -14 25
-26 21 -26 -16 0 -52 43 -47 56 3 8 10 11 16 7 6 -4 7 -1 2 7 -6 10 -11 9 -21
-4 -6 -9 -15 -13 -18 -8 -3 5 1 15 9 22 8 7 15 17 15 22 0 5 -7 2 -16 -6 -8
-9 -19 -16 -23 -16 -12 0 -30 22 -27 34 2 6 1 8 -1 3 -3 -4 -9 -5 -14 -1 -5 3
-2 18 6 34 19 36 19 41 0 34 -9 -4 -15 -11 -14 -18 3 -25 -2 -37 -11 -31 -6 4
-8 15 -5 25 3 11 0 20 -10 24 -9 3 -13 2 -10 -4 15 -25 -15 -6 -54 34 -28 29
-41 49 -36 58 6 10 5 11 -6 0 -11 -10 -3 -23 46 -74 33 -34 62 -65 65 -68 3
-3 174 -177 382 -385 l376 -380 1 -100 c9 -617 266 -1130 734 -1464 294 -210
729 -341 1131 -341 l108 0 302 -298 c355 -352 504 -496 516 -500 5 -2 177 164
383 367 l374 371 69 0 c183 0 434 46 674 122 278 88 629 312 802 511 283 326
424 690 454 1177 l6 105 474 475 473 475 -272 276 c-149 151 -347 352 -439
446 l-168 170 0 49 c0 89 -28 297 -55 414 -60 261 -169 509 -313 709 -74 104
-263 301 -357 373 -289 219 -671 363 -1087 408 -112 12 -436 11 -552 -1z
m-1771 -708 c3 -5 1 -12 -5 -16 -6 -4 -8 -10 -6 -14 3 -4 -5 -8 -17 -8 -15 -2
-17 1 -9 6 7 4 12 12 11 17 -4 24 14 34 26 15z m2220 -96 c228 -27 431 -79
620 -160 113 -48 288 -147 341 -191 35 -31 15 -21 -46 21 -51 35 -206 125
-215 125 -4 0 -38 14 -77 31 -42 18 -76 28 -86 23 -37 -15 -63 -12 -92 13 -17
14 -34 22 -38 18 -4 -4 -1 -10 6 -12 21 -8 13 -21 -13 -19 -23 1 -37 16 -15
16 6 0 10 5 10 11 0 7 -9 6 -23 -4 -21 -14 -24 -13 -35 1 -9 13 -9 11 -2 -12
9 -24 8 -27 -5 -22 -13 4 -14 2 -5 -14 6 -11 15 -20 21 -20 6 0 7 -5 4 -10 -4
-7 -13 -6 -27 1 -19 10 -20 9 -14 -15 4 -16 2 -26 -4 -26 -6 0 -9 4 -6 9 3 5
-1 12 -10 15 -9 3 -12 2 -8 -5 3 -6 -4 -21 -16 -34 -12 -13 -19 -28 -15 -34 3
-6 1 -11 -4 -11 -6 0 -11 -10 -10 -22 0 -13 3 -17 6 -10 2 6 10 12 16 12 6 0
4 -8 -6 -17 -12 -13 -20 -14 -28 -6 -6 6 -19 9 -28 6 -9 -3 -5 4 9 16 14 11
20 21 14 21 -6 0 -17 -7 -24 -15 -7 -8 -16 -12 -21 -9 -5 3 -9 0 -9 -5 0 -6 4
-11 9 -11 5 0 12 -7 15 -16 3 -8 2 -12 -4 -9 -6 3 -10 0 -10 -7 -1 -9 -5 -7
-14 5 -14 19 -31 24 -20 6 3 -6 0 -16 -7 -21 -11 -7 -11 -11 -2 -15 10 -3 9
-10 -2 -27 -8 -12 -12 -26 -8 -31 5 -4 2 -5 -4 -1 -7 4 -13 3 -13 -3 0 -6 -8
-7 -17 -4 -12 5 -15 2 -10 -10 3 -9 2 -17 -3 -17 -6 0 -10 13 -10 29 0 16 -6
31 -13 34 -19 7 -41 -8 -33 -22 4 -6 2 -11 -3 -11 -6 0 -11 6 -11 13 0 8 -4 7
-10 -3 -7 -11 -10 -12 -10 -2 0 18 -82 5 -93 -14 -5 -8 -14 -11 -20 -8 -9 5
-9 4 0 -6 6 -7 24 -12 38 -12 19 0 23 -3 14 -9 -8 -5 -11 -9 -7 -9 3 0 14 -3
24 -7 13 -5 15 -3 9 7 -5 9 -4 11 3 6 16 -10 15 6 0 24 -7 8 -3 6 9 -4 20 -17
21 -20 7 -31 -14 -10 -7 -16 47 -44 35 -18 80 -47 99 -64 21 -18 25 -24 10
-15 -14 8 -56 35 -95 58 -38 24 -119 66 -180 95 -100 47 -134 61 -260 108 -22
8 -92 28 -155 45 -356 94 -751 108 -1057 36 -133 -31 -198 -58 -343 -144 -148
-87 -266 -181 -355 -282 -37 -43 -72 -75 -78 -71 -6 4 -7 1 -3 -6 5 -7 -8 -35
-32 -69 -48 -69 -93 -158 -117 -230 -9 -29 -19 -51 -21 -49 -3 2 7 35 22 73
14 38 27 79 28 91 0 11 4 19 9 16 4 -2 7 1 7 7 0 6 -7 10 -16 8 -11 -2 -41
-57 -82 -146 -36 -78 -67 -141 -69 -139 -2 2 11 35 28 73 17 38 46 103 63 144
56 132 193 314 326 434 79 72 222 171 330 229 60 33 349 134 630 221 272 84
578 143 825 160 96 6 336 -4 470 -19z m-2401 -190 c-14 -19 -29 -35 -31 -35
-5 0 7 18 36 53 26 31 23 18 -5 -18z m2686 -89 c0 -8 -4 -18 -10 -21 -5 -3
-10 3 -10 14 0 12 5 21 10 21 6 0 10 -6 10 -14z m-2750 0 c0 -2 -8 -10 -17
-17 -16 -13 -17 -12 -4 4 13 16 21 21 21 13z m3550 -171 c19 -19 32 -35 29
-35 -3 0 -20 16 -39 35 -19 19 -32 35 -29 35 3 0 20 -16 39 -35z m-909 -222
c13 -16 12 -17 -3 -4 -10 7 -18 15 -18 17 0 8 8 3 21 -13z m114 -80 c22 -19
33 -31 25 -26 -25 14 -120 85 -120 90 0 8 55 -28 95 -64z m-847 -22 c296 -57
540 -187 742 -393 99 -101 242 -311 224 -327 -8 -7 -552 -271 -559 -271 -1 0
-19 27 -39 60 -161 261 -502 388 -796 298 -194 -60 -345 -188 -435 -366 -70
-142 -90 -360 -46 -517 69 -247 256 -434 496 -495 96 -25 263 -27 350 -5 104
26 239 99 314 171 52 49 139 157 146 181 1 1 66 -30 145 -69 80 -38 209 -101
288 -139 l143 -68 -27 -43 c-230 -369 -535 -586 -931 -665 -131 -25 -376 -23
-510 5 -278 60 -505 181 -698 376 -254 255 -385 578 -385 946 0 359 119 659
364 917 190 200 435 339 691 392 132 27 138 28 292 30 95 1 160 -4 231 -18z
m913 -38 c13 -16 12 -17 -3 -4 -10 7 -18 15 -18 17 0 8 8 3 21 -13z m64 -53
c10 -11 16 -20 13 -20 -3 0 -13 9 -23 20 -10 11 -16 20 -13 20 3 0 13 -9 23
-20z m-3018 -392 c-3 -8 -6 -5 -6 6 -1 11 2 17 5 13 3 -3 4 -12 1 -19z m-86
-25 c-12 -20 -14 -14 -5 12 4 9 9 14 11 11 3 -2 0 -13 -6 -23z m-40 -90 c-11
-21 -20 -35 -21 -31 0 12 33 78 38 74 2 -2 -6 -21 -17 -43z m-30 -70 c-12 -20
-14 -14 -5 12 4 9 9 14 11 11 3 -2 0 -13 -6 -23z m-1031 -373 c0 -5 7 -10 15
-10 23 0 18 -16 -10 -28 -15 -7 -27 -8 -30 -2 -4 6 -1 10 6 10 10 0 10 3 1 12
-16 16 -15 28 3 28 8 0 15 -4 15 -10z m-155 -192 c-1 -13 -3 -26 -4 -30 0 -5
-9 -8 -18 -8 -13 0 -14 3 -5 12 7 7 12 20 12 30 0 10 4 18 9 18 4 0 7 -10 6
-22z m45 -8 c0 -5 -4 -10 -10 -10 -5 0 -10 5 -10 10 0 6 5 10 10 10 6 0 10 -4
10 -10z m334 -60 c5 -17 4 -20 -2 -10 -5 8 -13 26 -16 40 -5 17 -4 20 2 10 5
-8 13 -26 16 -40z m-514 -18 c0 -4 -9 -8 -20 -9 -11 -1 -20 2 -20 8 0 5 9 9
20 9 11 0 20 -4 20 -8z m-160 -163 c0 -5 -4 -9 -10 -9 -5 0 -10 7 -10 16 0 8
5 12 10 9 6 -3 10 -10 10 -16z m-29 -96 c13 -16 12 -17 -3 -4 -17 13 -22 21
-14 21 2 0 10 -8 17 -17z"/>
<path d="M6946 7557 c3 -10 9 -15 12 -12 3 3 0 11 -7 18 -10 9 -11 8 -5 -6z"/>
<path d="M7008 7543 c7 -3 16 -2 19 1 4 3 -2 6 -13 5 -11 0 -14 -3 -6 -6z"/>
<path d="M4695 8469 c-4 -6 -5 -12 -2 -15 2 -3 7 2 10 11 7 17 1 20 -8 4z"/>
<path d="M4330 7810 c0 -5 5 -10 11 -10 5 0 7 5 4 10 -3 6 -8 10 -11 10 -2 0
-4 -4 -4 -10z"/>
<path d="M2725 6468 l-70 -73 73 70 c39 38 72 71 72 72 0 8 -11 -2 -75 -69z"/>
<path d="M2590 6333 l-55 -58 58 55 c31 30 57 56 57 57 0 8 -10 -1 -60 -54z"/>
<path d="M2509 6253 c-13 -16 -12 -17 4 -4 9 7 17 15 17 17 0 8 -8 3 -21 -13z"/>
<path d="M2452 6197 c-18 -18 -32 -36 -32 -40 0 -6 34 26 59 56 23 29 7 19
-27 -16z"/>
<path d="M2345 6090 c-33 -33 -56 -60 -51 -60 4 0 13 6 19 13 7 7 32 34 57 60
64 68 45 58 -25 -13z"/>
<path d="M2793 6047 c3 -9 1 -17 -4 -19 -6 -2 -1 -12 10 -22 19 -17 21 -18 21
-2 0 10 -5 14 -11 10 -7 -4 -9 0 -5 14 4 12 2 23 -5 28 -9 5 -10 2 -6 -9z"/>
<path d="M2760 5980 c0 -13 11 -13 30 0 12 8 11 10 -7 10 -13 0 -23 -4 -23
-10z"/>
<path d="M2695 5950 c-3 -6 1 -7 9 -4 18 7 21 14 7 14 -6 0 -13 -4 -16 -10z"/>
<path d="M2760 5950 c0 -5 5 -10 10 -10 6 0 10 5 10 10 0 6 -4 10 -10 10 -5 0
-10 -4 -10 -10z"/>
<path d="M2129 5863 l-34 -38 38 34 c20 19 37 36 37 38 0 8 -8 0 -41 -34z"/>
<path d="M2069 5803 c-13 -16 -12 -17 4 -4 16 13 21 21 13 21 -2 0 -10 -8 -17
-17z"/>
<path d="M1969 5703 l-34 -38 38 34 c20 19 37 36 37 38 0 8 -8 0 -41 -34z"/>
<path d="M2440 5690 c0 -5 5 -10 11 -10 5 0 7 5 4 10 -3 6 -8 10 -11 10 -2 0
-4 -4 -4 -10z"/>
<path d="M2103 5494 c-15 -16 -16 -24 -4 -24 8 0 24 30 19 35 -2 2 -9 -3 -15
-11z"/>
<path d="M10507 753 c-4 -3 -7 -52 -7 -109 0 -103 4 -114 41 -114 5 0 9 52 9
115 0 105 -2 115 -18 115 -10 0 -22 -3 -25 -7z"/>
<path d="M9054 731 c-46 -28 -62 -81 -39 -131 28 -62 92 -84 160 -56 38 16 43
27 21 45 -10 8 -20 8 -41 -3 -29 -15 -72 -7 -87 17 -14 22 -8 74 10 90 21 20
73 22 90 5 8 -8 15 -8 28 3 15 12 14 15 -6 31 -29 24 -96 23 -136 -1z"/>
<path d="M10330 647 c0 -87 3 -106 16 -111 25 -10 36 4 32 40 -4 33 -4 33 41
36 34 2 47 8 49 20 3 14 -6 17 -45 20 -44 3 -48 5 -48 28 0 23 4 25 53 28 44
3 53 6 50 20 -3 14 -17 18 -76 20 l-72 3 0 -104z"/>
<path d="M9643 702 c-12 -26 -14 -37 -5 -40 7 -2 12 -19 12 -38 0 -61 38 -102
80 -89 27 9 25 24 -5 35 -21 8 -25 16 -25 50 0 33 3 40 20 40 13 0 20 7 20 20
0 13 -7 20 -20 20 -11 0 -20 6 -20 14 0 7 -9 16 -20 19 -15 4 -24 -3 -37 -31z"/>
<path d="M10185 704 c-15 -24 -15 -27 0 -44 9 -10 14 -28 11 -43 -7 -39 3 -63
30 -76 31 -14 75 -5 67 14 -2 8 -14 15 -26 17 -18 2 -23 11 -25 46 -3 39 -1
42 22 42 31 0 36 29 6 37 -11 3 -20 12 -20 19 0 25 -46 16 -65 -12z"/>
<path d="M9257 686 c-26 -20 -40 -68 -28 -99 13 -34 65 -61 100 -52 69 17 94
93 46 140 -27 28 -88 34 -118 11z m94 -53 c11 -31 -19 -68 -49 -59 -27 9 -39
50 -21 72 18 21 60 14 70 -13z"/>
<path d="M9435 616 c0 -74 2 -81 20 -81 17 0 21 8 25 54 5 56 23 80 53 68 10
-4 17 -26 22 -67 6 -49 10 -60 24 -58 12 3 17 17 19 67 4 87 -9 100 -97 99
l-66 0 0 -82z"/>
<path d="M9795 675 c-68 -67 16 -172 107 -134 39 16 30 34 -18 34 -39 0 -64 9
-64 24 0 4 27 5 60 3 59 -4 60 -4 60 22 0 39 -41 76 -85 76 -25 0 -44 -8 -60
-25z m91 -22 c17 -17 16 -18 -20 -21 -46 -4 -58 5 -32 24 25 18 31 18 52 -3z"/>
<path d="M9980 619 c0 -79 6 -94 34 -83 12 5 16 20 16 60 0 49 2 54 26 60 35
9 42 -2 46 -66 3 -47 6 -55 23 -55 18 0 20 7 20 68 0 86 -12 97 -101 95 l-64
-1 0 -78z"/>
<path d="M10611 683 c-12 -10 -24 -34 -27 -54 -13 -80 89 -127 150 -70 56 53
17 141 -62 141 -23 0 -49 -7 -61 -17z m97 -59 c4 -41 -19 -61 -53 -46 -25 11
-31 34 -19 67 5 11 16 15 38 13 27 -3 31 -7 34 -34z"/>
<path d="M10772 688 c3 -7 15 -43 28 -80 19 -53 28 -67 47 -71 20 -4 26 2 38
31 8 19 15 38 15 43 0 24 18 4 29 -31 10 -34 16 -40 39 -40 26 0 30 6 54 80
25 77 25 80 7 80 -12 0 -24 -11 -30 -27 -33 -84 -31 -83 -48 -25 -14 46 -19
52 -40 50 -19 -2 -27 -13 -38 -51 -8 -26 -18 -45 -22 -43 -5 3 -14 26 -21 51
-11 38 -17 45 -37 45 -16 0 -23 -5 -21 -12z"/>
</g>
</svg>
