<svg xmlns="http://www.w3.org/2000/svg" width="1493.333" height="1493.333" viewBox="0 0 1120 1120"><path d="m547 196.7-9.5 9.8 9.8-9.5c9-8.8 10.2-10 9.4-10-.1 0-4.5 4.4-9.7 9.7m25.5 2.3c4.9 4.9 9.2 9 9.5 9 .2 0-3.6-4.1-8.5-9-4.9-5-9.2-9-9.5-9-.2 0 3.6 4 8.5 9M528 215.7l-8.5 8.8 8.8-8.5c8.1-7.9 9.2-9 8.4-9-.1 0-4.1 3.9-8.7 8.7m63 1.8c4.7 4.9 8.6 9.1 8.8 9.4.1.2.4.2.7 0 .2-.3-3.7-4.5-8.8-9.5l-9.2-8.9zm12.5 12.5c1 1.1 2 2 2.3 2s-.3-.9-1.3-2-2-2-2.3-2 .3.9 1.3 2M495 247.7l-6.5 6.6 7.3-6.3c3.9-3.5 7.2-6.5 7.2-6.6 0-1.3-2.3.5-8 6.3m125-1.2c1.3 1.4 2.6 2.5 2.8 2.5.3 0-.5-1.1-1.8-2.5s-2.6-2.5-2.8-2.5c-.3 0 .5 1.1 1.8 2.5m13.5 13.5c3.8 3.8 7.2 7 7.4 7 .3 0-2.6-3.2-6.4-7-3.8-3.9-7.2-7-7.4-7-.3 0 2.6 3.1 6.4 7m-150.6-.3-2.4 2.8 2.8-2.4c2.5-2.3 3.2-3.1 2.4-3.1-.2 0-1.4 1.2-2.8 2.7m-6 5.9c-1.3 1.4-1.7 2.3-.9 1.9 1.3-.5 4.6-4.5 3.7-4.5-.2 0-1.4 1.1-2.8 2.6m127.7 5.5c-39.7 4.2-82.7 16.8-114.2 33.4-27 14.2-42.9 25.8-63.2 46.1-15.4 15.4-17.1 16.9-10 8.2 2.2-2.6 3.7-5.2 3.3-5.8-.3-.5 0-.7.8-.4 1 .3 1.8-.5 2.5-2.6.8-2.1 1.7-3 2.9-2.8s1.8-.3 1.7-1.4c-.1-1 .4-1.4 1.2-1.1s1.4.1 1.4-.5c0-1.9-3.2-3.6-7.2-3.8-3.5-.2-3.9 0-3.5 1.8.4 1.6.3 1.7-.9.7-1.1-.9-1.4-.7-1.5 1.2-.1 1.8-.3 1.9-.6.6-.3-1.2-1-1.6-2.4-1.2-1.4.5-1.7.3-1.3-.9.4-1.1 0-1.6-1.1-1.6-.9 0-1.4-.4-1-.9.3-.5.1-1.2-.4-1.5-1.3-.8-4.2.4-3.5 1.5.3.5-.2.9-1 .9-.9 0-1.6.7-1.6 1.6 0 .8-.4 1.3-.9 1s-1.1.3-1.4 1.4-1.2 2-2.1 2-1.6.5-1.6 1.2c0 .6-.3.8-.6.5-1-1 12.2-15.2 47.3-50.8 10.1-10.2 18.3-19.1 18.3-19.8 0-.8-1.1-1-3.2-.7-1.8.3-6.4.8-10.3 1.1-51.2 4.6-101.1 32-130.5 71.6-28.2 38-40.5 82.5-38.7 139.9.6 18.7 2.2 31.5 6.2 47.5 1.3 5.5 2.7 11.1 3 12.5l.6 2.5-1.5-2.5c-.8-1.4-1.8-4.6-2.1-7.3-.4-2.6-1.1-4.7-1.5-4.7s-.6-1-.2-2.2c.3-1.3.1-1.9-.5-1.5s-.8-.3-.5-1.8c.2-1.5 0-2.5-.7-2.5s-.9-.5-.5-1.2q.75-1.05-.6-.3c-.7.4-1.6.2-2.1-.6-.6-1.1-1.1-1.1-2.1-.1-.9.9-.9 1.2 0 1.2 2.1 0 1.3 1.5-1.5 2.8-1.7.8-2.3.8-1.6.1 1.1-1.1.8-2.1-1.5-5.8-.1-.3-1.2.5-2.3 1.8-2.1 2.2-4.6 2.3-4.1.2.1-.7-.2-1-.7-.7s-1.2 2.1-1.5 4c-.6 2.9-1 3.3-2.9 2.9l-2.2-.6 2.3 2.2c2.2 2.2 2.2 2.3.4 4.9-2.3 3.3-3.6 6.4-3.3 7.7.1.5-.5.2-1.5-.7-1.1-1.1-2.2-1.4-3.3-.8-.9.5-2.4 1.1-3.4 1.4-2.1.7-2.3 2.6-.2 2.6 2.4 0 1.8 2.7-.7 3.4-3.6.9-3.9.7-2.8-1.4.7-1.4.7-2 0-2-.9 0-1.2.6-1.4 3.9-.1 1.6-7.3 4.4-8.8 3.5-1.9-1.2-7.3-1-8.6.3-1.1 1-.8 1.2 1.5.7 2.4-.5 2.8-.2 2.9 1.8.1 1.7-.4 2.4-1.8 2.5-2.6.2-7 3.1-6.4 4.2.3.5-.3 2.6-1.3 4.7s-1.6 4.5-1.3 5.4c.5 1.3.3 1.3-1.1.1-.9-.7-1.4-1.8-1-2.5s.1-.6-.9.1c-.8.7-1.9.9-2.3.5-.5-.4-.5-.1 0 .7.6 1 .2 1.2-1.6.7-2.3-.7-2.3-.6.4 1.8 1.5 1.4 2.5 2.6 2.1 2.6-1.6 0-5.2-4.3-4.7-5.6.3-.8 1-1.1 1.6-.7s.7.1.2-.7c-.6-1-1.1-.9-2.1.4-.6.9-1.5 1.3-1.8.8s.1-1.5.9-2.2 1.5-1.7 1.5-2.2-.7-.2-1.6.6c-.8.9-1.9 1.6-2.3 1.6-1.2 0-3-2.2-2.7-3.4.2-.6.1-.8-.1-.3-.3.4-.9.5-1.4.1-.5-.3-.2-1.8.6-3.4 1.9-3.6 1.9-4.1 0-3.4-.9.4-1.5 1.1-1.4 1.8.3 2.5-.2 3.7-1.1 3.1-.6-.4-.8-1.5-.5-2.5.3-1.1 0-2-1-2.4-.9-.3-1.3-.2-1 .4 1.5 2.5-1.5.6-5.4-3.4-2.8-2.9-4.1-4.9-3.6-5.8.6-1 .5-1.1-.6 0-1.1 1-.3 2.3 4.6 7.4 3.3 3.4 6.2 6.5 6.5 6.8s17.4 17.7 38.2 38.5l37.6 38 .1 10c.9 61.7 26.6 113 73.4 146.4 29.4 21 72.9 34.1 113.1 34.1h10.8l30.2 29.8c35.5 35.2 50.4 49.6 51.6 50 .5.2 17.7-16.4 38.3-36.7l37.4-37.1h6.9c18.3 0 43.4-4.6 67.4-12.2 27.8-8.8 62.9-31.2 80.2-51.1 28.3-32.6 42.4-69 45.4-117.7l.6-10.5 47.4-47.5 47.3-47.5-27.2-27.6c-14.9-15.1-34.7-35.2-43.9-44.6l-16.8-17v-4.9c0-8.9-2.8-29.7-5.5-41.4-6-26.1-16.9-50.9-31.3-70.9-7.4-10.4-26.3-30.1-35.7-37.3-28.9-21.9-67.1-36.3-108.7-40.8-11.2-1.2-43.6-1.1-55.2.1m-177.1 70.8c.3.5.1 1.2-.5 1.6s-.8 1-.6 1.4c.3.4-.5.8-1.7.8-1.5.2-1.7-.1-.9-.6.7-.4 1.2-1.2 1.1-1.7-.4-2.4 1.4-3.4 2.6-1.5m222 9.6c22.8 2.7 43.1 7.9 62 16 11.3 4.8 28.8 14.7 34.1 19.1 3.5 3.1 1.5 2.1-4.6-2.1-5.1-3.5-20.6-12.5-21.5-12.5-.4 0-3.8-1.4-7.7-3.1-4.2-1.8-7.6-2.8-8.6-2.3-3.7 1.5-6.3 1.2-9.2-1.3-1.7-1.4-3.4-2.2-3.8-1.8s-.1 1 .6 1.2c2.1.8 1.3 2.1-1.3 1.9-2.3-.1-3.7-1.6-1.5-1.6.6 0 1-.5 1-1.1 0-.7-.9-.6-2.3.4-2.1 1.4-2.4 1.3-3.5-.1-.9-1.3-.9-1.1-.2 1.2.9 2.4.8 2.7-.5 2.2-1.3-.4-1.4-.2-.5 1.4.6 1.1 1.5 2 2.1 2s.7.5.4 1c-.4.7-1.3.6-2.7-.1-1.9-1-2-.9-1.4 1.5.4 1.6.2 2.6-.4 2.6s-.9-.4-.6-.9-.1-1.2-1-1.5-1.2-.2-.8.5c.3.6-.4 2.1-1.6 3.4s-1.9 2.8-1.5 3.4c.3.6.1 1.1-.4 1.1-.6 0-1.1 1-1 2.2 0 1.3.3 1.7.6 1 .2-.6 1-1.2 1.6-1.2s.4.8-.6 1.7c-1.2 1.3-2 1.4-2.8.6-.6-.6-1.9-.9-2.8-.6s-.5-.4.9-1.6c1.4-1.1 2-2.1 1.4-2.1s-1.7.7-2.4 1.5-1.6 1.2-2.1.9-.9 0-.9.5c0 .6.4 1.1.9 1.1s1.2.7 1.5 1.6c.3.8.2 1.2-.4.9s-1 0-1 .7c-.1.9-.5.7-1.4-.5-1.4-1.9-3.1-2.4-2-.6.3.6 0 1.6-.7 2.1-1.1.7-1.1 1.1-.2 1.5 1 .3.9 1-.2 2.7-.8 1.2-1.2 2.6-.8 3.1.5.4.2.5-.4.1-.7-.4-1.3-.3-1.3.3s-.8.7-1.7.4c-1.2-.5-1.5-.2-1 1 .3.9.2 1.7-.3 1.7-.6 0-1-1.3-1-2.9s-.6-3.1-1.3-3.4c-1.9-.7-4.1.8-3.3 2.2.4.6.2 1.1-.3 1.1-.6 0-1.1-.6-1.1-1.3 0-.8-.4-.7-1 .3-.7 1.1-1 1.2-1 .2 0-1.8-8.2-.5-9.3 1.4-.5.8-1.4 1.1-2 .8-.9-.5-.9-.4 0 .6.6.7 2.4 1.2 3.8 1.2 1.9 0 2.3.3 1.4.9-.8.5-1.1.9-.7.9.3 0 1.4.3 2.4.7 1.3.5 1.5.3.9-.7q-.75-1.35.3-.6c1.6 1 1.5-.6 0-2.4-.7-.8-.3-.6.9.4 2 1.7 2.1 2 .7 3.1-1.4 1-.7 1.6 4.7 4.4 3.5 1.8 8 4.7 9.9 6.4 2.1 1.8 2.5 2.4 1 1.5-1.4-.8-5.6-3.5-9.5-5.8-3.8-2.4-11.9-6.6-18-9.5-10-4.7-13.4-6.1-26-10.8-2.2-.8-9.2-2.8-15.5-4.5-35.6-9.4-75.1-10.8-105.7-3.6-13.3 3.1-19.8 5.8-34.3 14.4-14.8 8.7-26.6 18.1-35.5 28.2-3.7 4.3-7.2 7.5-7.8 7.1s-.7-.1-.3.6c.5.7-.8 3.5-3.2 6.9-4.8 6.9-9.3 15.8-11.7 23-.9 2.9-1.9 5.1-2.1 4.9-.3-.2.7-3.5 2.2-7.3 1.4-3.8 2.7-7.9 2.8-9.1 0-1.1.4-1.9.9-1.6.4.2.7-.1.7-.7s-.7-1-1.6-.8c-1.1.2-4.1 5.7-8.2 14.6-3.6 7.8-6.7 14.1-6.9 13.9s1.1-3.5 2.8-7.3 4.6-10.3 6.3-14.4c5.6-13.2 19.3-31.4 32.6-43.4 7.9-7.2 22.2-17.1 33-22.9 6-3.3 34.9-13.4 63-22.1 27.2-8.4 57.8-14.3 82.5-16 9.6-.6 33.6.4 47 1.9m-240.1 19c-1.4 1.9-2.9 3.5-3.1 3.5-.5 0 .7-1.8 3.6-5.3 2.6-3.1 2.3-1.8-.5 1.8m268.6 8.9c0 .8-.4 1.8-1 2.1-.5.3-1-.3-1-1.4 0-1.2.5-2.1 1-2.1.6 0 1 .6 1 1.4m-275 0c0 .2-.8 1-1.7 1.7-1.6 1.3-1.7 1.2-.4-.4s2.1-2.1 2.1-1.3m355 17.1c1.9 1.9 3.2 3.5 2.9 3.5s-2-1.6-3.9-3.5-3.2-3.5-2.9-3.5 2 1.6 3.9 3.5m-90.9 22.2c1.3 1.6 1.2 1.7-.3.4-1-.7-1.8-1.5-1.8-1.7 0-.8.8-.3 2.1 1.3m11.4 8c2.2 1.9 3.3 3.1 2.5 2.6-2.5-1.4-12-8.5-12-9 0-.8 5.5 2.8 9.5 6.4m-84.7 2.2c29.6 5.7 54 18.7 74.2 39.3 9.9 10.1 24.2 31.1 22.4 32.7-.8.7-55.2 27.1-55.9 27.1-.1 0-1.9-2.7-3.9-6-16.1-26.1-50.2-38.8-79.6-29.8-19.4 6-34.5 18.8-43.5 36.6-7 14.2-9 36-4.6 51.7 6.9 24.7 25.6 43.4 49.6 49.5 9.6 2.5 26.3 2.7 35 .5 10.4-2.6 23.9-9.9 31.4-17.1 5.2-4.9 13.9-15.7 14.6-18.1.1-.1 6.6 3 14.5 6.9 8 3.8 20.9 10.1 28.8 13.9l14.3 6.8-2.7 4.3c-23 36.9-53.5 58.6-93.1 66.5-13.1 2.5-37.6 2.3-51-.5-27.8-6-50.5-18.1-69.8-37.6-25.4-25.5-38.5-57.8-38.5-94.6 0-35.9 11.9-65.9 36.4-91.7 19-20 43.5-33.9 69.1-39.2 13.2-2.7 13.8-2.8 29.2-3 9.5-.1 16 .4 23.1 1.8m91.3 3.8c1.3 1.6 1.2 1.7-.3.4-1-.7-1.8-1.5-1.8-1.7 0-.8.8-.3 2.1 1.3m6.4 5.3c1 1.1 1.6 2 1.3 2s-1.3-.9-2.3-2-1.6-2-1.3-2 1.3.9 2.3 2m-301.8 39.2c-.3.8-.6.5-.6-.6-.1-1.1.2-1.7.5-1.3.3.3.4 1.2.1 1.9m-8.6 2.5c-1.2 2-1.4 1.4-.5-1.2.4-.9.9-1.4 1.1-1.1.3.2 0 1.3-.6 2.3m-4 9c-1.1 2.1-2 3.5-2.1 3.1 0-1.2 3.3-7.8 3.8-7.4.2.2-.6 2.1-1.7 4.3m-3 7c-1.2 2-1.4 1.4-.5-1.2.4-.9.9-1.4 1.1-1.1.3.2 0 1.3-.6 2.3M271 533c0 .5.7 1 1.5 1 2.3 0 1.8 1.6-1 2.8-1.5.7-2.7.8-3 .2-.4-.6-.1-1 .6-1 1 0 1-.3.1-1.2-1.6-1.6-1.5-2.8.3-2.8.8 0 1.5.4 1.5 1m-15.5 19.2c-.1 1.3-.3 2.6-.4 3 0 .5-.9.8-1.8.8-1.3 0-1.4-.3-.5-1.2.7-.7 1.2-2 1.2-3s.4-1.8.9-1.8c.4 0 .7 1 .6 2.2m4.5.8c0 .5-.4 1-1 1-.5 0-1-.5-1-1 0-.6.5-1 1-1 .6 0 1 .4 1 1m33.4 6c.5 1.7.4 2-.2 1-.5-.8-1.3-2.6-1.6-4-.5-1.7-.4-2 .2-1 .5.8 1.3 2.6 1.6 4m-51.4 1.8c0 .4-.9.8-2 .9s-2-.2-2-.8c0-.5.9-.9 2-.9s2 .4 2 .8m-16 16.3c0 .5-.4.9-1 .9-.5 0-1-.7-1-1.6 0-.8.5-1.2 1-.9.6.3 1 1 1 1.6m-2.9 9.6c1.3 1.6 1.2 1.7-.3.4-1.7-1.3-2.2-2.1-1.4-2.1.2 0 1 .8 1.7 1.7"/><path d="M694.6 364.3c.3 1 .9 1.5 1.2 1.2s0-1.1-.7-1.8c-1-.9-1.1-.8-.5.6m6.2 1.4c.7.3 1.6.2 1.9-.1.4-.3-.2-.6-1.3-.5-1.1 0-1.4.3-.6.6m-231.3-92.6c-.4.6-.5 1.2-.2 1.5.2.3.7-.2 1-1.1.7-1.7.1-2-.8-.4M433 339c0 .5.5 1 1.1 1 .5 0 .7-.5.4-1-.3-.6-.8-1-1.1-1-.2 0-.4.4-.4 1M272.5 473.2l-7 7.3 7.3-7c3.9-3.8 7.2-7.1 7.2-7.2 0-.8-1.1.2-7.5 6.9M259 486.7l-5.5 5.8 5.8-5.5c3.1-3 5.7-5.6 5.7-5.7 0-.8-1 .1-6 5.4m-8.1 8c-1.3 1.6-1.2 1.7.4.4.9-.7 1.7-1.5 1.7-1.7 0-.8-.8-.3-2.1 1.3m-5.7 5.6c-1.8 1.8-3.2 3.6-3.2 4 0 .6 3.4-2.6 5.9-5.6 2.3-2.9.7-1.9-2.7 1.6"/><path d="M234.5 511c-3.3 3.3-5.6 6-5.1 6 .4 0 1.3-.6 1.9-1.3.7-.7 3.2-3.4 5.7-6 6.4-6.8 4.5-5.8-2.5 1.3m44.8 4.3c.3.9.1 1.7-.4 1.9-.6.2-.1 1.2 1 2.2 1.9 1.7 2.1 1.8 2.1.2 0-1-.5-1.4-1.1-1-.7.4-.9 0-.5-1.4.4-1.2.2-2.3-.5-2.8-.9-.5-1-.2-.6.9M276 522c0 1.3 1.1 1.3 3 0 1.2-.8 1.1-1-.7-1-1.3 0-2.3.4-2.3 1m-6.5 3c-.3.6.1.7.9.4 1.8-.7 2.1-1.4.7-1.4-.6 0-1.3.4-1.6 1m6.5 0c0 .5.5 1 1 1 .6 0 1-.5 1-1 0-.6-.4-1-1-1-.5 0-1 .4-1 1m-63.1 8.7-3.4 3.8 3.8-3.4c2-1.9 3.7-3.6 3.7-3.8 0-.8-.8 0-4.1 3.4m-6 6c-1.3 1.6-1.2 1.7.4.4s2.1-2.1 1.3-2.1c-.2 0-1 .8-1.7 1.7m-10 10-3.4 3.8 3.8-3.4c2-1.9 3.7-3.6 3.7-3.8 0-.8-.8 0-4.1 3.4M244 551c0 .5.5 1 1.1 1 .5 0 .7-.5.4-1-.3-.6-.8-1-1.1-1-.2 0-.4.4-.4 1m-33.7 19.6c-1.5 1.6-1.6 2.4-.4 2.4.8 0 2.4-3 1.9-3.5-.2-.2-.9.3-1.5 1.1m840.4 474.1c-.4.3-.7 5.2-.7 10.9 0 10.3.4 11.4 4.1 11.4.5 0 .9-5.2.9-11.5 0-10.5-.2-11.5-1.8-11.5-1 0-2.2.3-2.5.7m-145.3 2.2c-4.6 2.8-6.2 8.1-3.9 13.1 2.8 6.2 9.2 8.4 16 5.6 3.8-1.6 4.3-2.7 2.1-4.5-1-.8-2-.8-4.1.3-2.9 1.5-7.2.7-8.7-1.7-1.4-2.2-.8-7.4 1-9 2.1-2 7.3-2.2 9-.5.8.8 1.5.8 2.8-.3 1.5-1.2 1.4-1.5-.6-3.1-2.9-2.4-9.6-2.3-13.6.1m127.6 8.4c0 8.7.3 10.6 1.6 11.1 2.5 1 3.6-.4 3.2-4-.4-3.3-.4-3.3 4.1-3.6 3.4-.2 4.7-.8 4.9-2 .3-1.4-.6-1.7-4.5-2-4.4-.3-4.8-.5-4.8-2.8s.4-2.5 5.3-2.8c4.4-.3 5.3-.6 5-2s-1.7-1.8-7.6-2l-7.2-.3zm-68.7-5.5c-1.2 2.6-1.4 3.7-.5 4 .7.2 1.2 1.9 1.2 3.8 0 6.1 3.8 10.2 8 8.9 2.7-.9 2.5-2.4-.5-3.5-2.1-.8-2.5-1.6-2.5-5 0-3.3.3-4 2-4 1.3 0 2-.7 2-2s-.7-2-2-2c-1.1 0-2-.6-2-1.4 0-.7-.9-1.6-2-1.9-1.5-.4-2.4.3-3.7 3.1m54.2-.2c-1.5 2.4-1.5 2.7 0 4.4.9 1 1.4 2.8 1.1 4.3-.7 3.9.3 6.3 3 7.6 3.1 1.4 7.5.5 6.7-1.4-.2-.8-1.4-1.5-2.6-1.7-1.8-.2-2.3-1.1-2.5-4.6-.3-3.9-.1-4.2 2.2-4.2 3.1 0 3.6-2.9.6-3.7-1.1-.3-2-1.2-2-1.9 0-2.5-4.6-1.6-6.5 1.2m-92.8 1.8c-2.6 2-4 6.8-2.8 9.9 1.3 3.4 6.5 6.1 10 5.2 6.9-1.7 9.4-9.3 4.6-14-2.7-2.8-8.8-3.4-11.8-1.1m9.4 5.3c1.1 3.1-1.9 6.8-4.9 5.9-2.7-.9-3.9-5-2.1-7.2 1.8-2.1 6-1.4 7 1.3m8.4 1.7c0 7.4.2 8.1 2 8.1 1.7 0 2.1-.8 2.5-5.4.5-5.6 2.3-8 5.3-6.8 1 .4 1.7 2.6 2.2 6.7.6 4.9 1 6 2.4 5.8 1.2-.3 1.7-1.7 1.9-6.7.4-8.7-.9-10-9.7-9.9h-6.6zm36-5.9c-6.8 6.7 1.6 17.2 10.7 13.4 3.9-1.6 3-3.4-1.8-3.4-3.9 0-6.4-.9-6.4-2.4 0-.4 2.7-.5 6-.3 5.9.4 6 .4 6-2.2 0-3.9-4.1-7.6-8.5-7.6-2.5 0-4.4.8-6 2.5m9.1 2.2c1.7 1.7 1.6 1.8-2 2.1-4.6.4-5.8-.5-3.2-2.4 2.5-1.8 3.1-1.8 5.2.3m9.4 3.4c0 7.9.6 9.4 3.4 8.3 1.2-.5 1.6-2 1.6-6 0-4.9.2-5.4 2.6-6 3.5-.9 4.2.2 4.6 6.6.3 4.7.6 5.5 2.3 5.5 1.8 0 2-.7 2-6.8 0-8.6-1.2-9.7-10.1-9.5l-6.4.1zm63.1-6.4c-1.2 1-2.4 3.4-2.7 5.4-1.3 8 8.9 12.7 15 7 5.6-5.3 1.7-14.1-6.2-14.1-2.3 0-4.9.7-6.1 1.7m9.7 5.9c.4 4.1-1.9 6.1-5.3 4.6-2.5-1.1-3.1-3.4-1.9-6.7.5-1.1 1.6-1.5 3.8-1.3 2.7.3 3.1.7 3.4 3.4m6.4-6.4c.3.7 1.5 4.3 2.8 8 1.9 5.3 2.8 6.7 4.7 7.1 2 .4 2.6-.2 3.8-3.1.8-1.9 1.5-3.8 1.5-4.3 0-2.4 1.8-.4 2.9 3.1 1 3.4 1.6 4 3.9 4 2.6 0 3-.6 5.4-8 2.5-7.7 2.5-8 .7-8-1.2 0-2.4 1.1-3 2.7-3.3 8.4-3.1 8.3-4.8 2.5-1.4-4.6-1.9-5.2-4-5-1.9.2-2.7 1.3-3.8 5.1-.8 2.6-1.8 4.5-2.2 4.3-.5-.3-1.4-2.6-2.1-5.1-1.1-3.8-1.7-4.5-3.7-4.5-1.6 0-2.3.5-2.1 1.2"/></svg>