<?xml version="1.0" standalone="no"?>
<!DOCTYPE svg PUBLIC "-//W3C//DTD SVG 20010904//EN"
 "http://www.w3.org/TR/2001/REC-SVG-20010904/DTD/svg10.dtd">
<svg version="1.0" xmlns="http://www.w3.org/2000/svg"
 width="500.000000pt" height="500.000000pt" viewBox="0 0 500.000000 500.000000"
 preserveAspectRatio="xMidYMid meet">

<g transform="translate(0.000000,500.000000) scale(0.100000,-0.100000)"
fill="#233447" stroke="solid" stroke-width="0.5" stroke-linecap="round" stroke-linejoin="round">
<path d="M1602 2913 c-6 -3 -10 -9 -6 -14 3 -5 0 -9 -6 -9 -6 0 -8 -4 -5 -10
4 -6 -1 -7 -11 -3 -13 5 -15 3 -9 -7 6 -9 4 -11 -5 -5 -7 4 -16 2 -21 -6 -7
-11 -9 -11 -9 -1 0 21 -154 5 -210 -21 -25 -11 -55 -19 -68 -18 -13 1 -33 -6
-45 -16 -14 -13 -18 -14 -13 -3 4 9 2 8 -7 -2 -8 -10 -18 -18 -23 -18 -5 -1
-80 -72 -167 -158 l-157 -157 60 -62 c33 -35 64 -63 68 -63 4 0 86 79 181 175
l173 175 45 -40 c60 -53 103 -61 162 -29 70 37 93 90 89 206 -2 67 -6 89 -16
86z"/>
<path d="M1266 2852 c-2 -4 -1 -14 4 -22 7 -11 9 -9 7 8 -1 24 -3 26 -11 14z"/>
<path d="M1521 2430 c-105 -104 -195 -190 -199 -190 -4 0 -32 25 -62 55 -30
30 -59 55 -65 55 -5 -1 -36 -27 -69 -59 l-58 -58 79 -80 c71 -71 86 -82 133
-92 99 -21 110 -14 343 217 114 114 207 211 207 217 0 6 -26 37 -58 68 l-58
58 -193 -191z"/>
</g>
</svg>
