<svg xmlns="http://www.w3.org/2000/svg" width="409" height="446"><path fill="#f67f2e" d="M234.563 77.688c3.302 2 5.84 4.449 8.437 7.312q2.817 2.73 5.645 5.45C250 92 250 92 250 94h2v2h2v2h2v2h2c1.656 1.61 1.656 1.61 3.5 3.75l1.844 2.11c1.536 1.985 2.628 3.859 3.656 6.14h2v2h2v2h2v2h2c1.41 1.398 1.41 1.398 3.063 3.375 2.732 3.232 5.545 6.348 8.437 9.438 8.138 9.014 13.9 17.663 13.813 29.937l-.015 2.445c-.114 5.774-.76 10.565-3.298 15.805l-1.066 2.508c-2.37 5.24-5.025 9.025-9.25 12.914-1.912 1.72-1.912 1.72-4.122 4.578-2.58 3.02-5.306 5.444-8.316 8.016-5.63 4.974-10.947 10.327-15.746 16.109L256 226h-2v2h-2v2h-2v2h-2v2h-2v2c-1.375 1.625-1.375 1.625-3 3h-2v2h-2l-.656 1.64c-1.809 3.176-4.261 5.567-6.844 8.11l-1.512 1.535C226.253 256 226.253 256 224 256l-1 3c-4.329-.476-6.372-3.039-9.312-6.062l-1.461-1.492a196 196 0 0 1-9.887-10.985c-1.296-1.588-1.296-1.588-3.34-2.461v-2h-2v-2h-2v-2h-2v-2h-2v-2h-2v-2l-3-1v-2h-2v-2h-2c-1.75-1.687-1.75-1.687-3-4 1.175-4.343 3.437-6.786 6.625-9.875l2.695-2.621a215 215 0 0 1 9.086-8.031c1.835-1.58 1.835-1.58 3.594-4.473h2v-2h2v-2h2l.813-1.812c1.186-2.186 2.283-3.601 4.187-5.188h2v-2h2v-2h2v-2h2v-2h2v-2h2l.813-1.812c1.186-2.186 2.283-3.601 4.187-5.188h2l2-6-1.531-1.46-1.969-1.915-1.969-1.898C226 151 226 151 226 149c-3.35.573-4.862 1.557-7.125 4.063-1.508 1.66-1.508 1.66-2.875 2.937h-2v2h-2l-.781 1.766c-1.317 2.414-2.77 4.051-4.719 5.984l-1.844 1.86C203 169 203 169 201 169l-.683 1.67c-1.722 3.046-3.908 5.152-6.393 7.618l-1.563 1.558c-1.7 1.694-3.408 3.381-5.115 5.068l-3.549 3.533q-4.667 4.646-9.345 9.28-7.492 7.429-14.97 14.873a3438 3438 0 0 1-5.24 5.195l-3.195 3.176-2.828 2.803c-2.147 2.038-2.147 2.038-3.119 4.226h-2l-.687 1.688c-1.689 2.974-3.78 5.032-6.313 7.312h-2v2h-2v2h-2v2h-2v2h-2v2h-2l-.648 1.638c-1.838 3.21-4.354 5.59-6.98 8.151l-1.667 1.65c-1.75 1.734-3.509 3.46-5.267 5.186q-2.643 2.601-5.279 5.207a895 895 0 0 1-3.285 3.232c-2.79 2.7-2.79 2.7-4.874 5.936h-5c-.34-74.571-.34-74.571 15.564-91.457 1.93-2.075 3.741-4.245 5.561-6.418 1.57-1.867 1.57-1.867 2.875-3.125h2v-2h2v-2h2v-2h2v-2h2l.781-1.734c1.333-2.477 2.87-4.4 4.719-6.516l1.844-2.14C134 157 134 157 136 157v-2h2v-2h2l.77-1.766c1.363-2.476 2.872-4.04 4.917-5.984 3.53-3.42 6.737-6.995 9.868-10.781L157 133h2v-2h2l.804-1.78c1.232-2.286 2.538-3.86 4.329-5.732l1.918-2.02 2.074-2.156 4.375-4.593 2.266-2.371c2.808-2.952 5.589-5.929 8.369-8.907C188.405 99.944 191.7 96.469 195 93l1.949-2.056a743 743 0 0 1 5.613-5.819l1.66-1.749c7.855-7.97 19.934-10.556 30.34-5.689"/><path fill="#f15f39" d="M350 151h4c.361 74.199.361 74.199-10.625 86.875C342 239 342 239 340 239l-.812 1.766c-1.203 2.262-2.526 4.04-4.188 5.984l-1.562 1.86C332 250 332 250 330 250v2h-2v2h-2v2h-2l-.754 1.75c-1.422 2.568-3.062 4.227-5.183 6.25-2.106 2.015-3.98 3.887-5.692 6.25L311 272h-2v2h-2v2h-2l-.77 1.766c-1.363 2.476-2.872 4.04-4.918 5.984-3.529 3.42-6.736 6.995-9.867 10.781L288 296h-2v2h-2l-.812 1.75c-1.217 2.306-2.491 4.27-4.188 6.25h-2l-.621 1.617c-1.957 3.382-4.639 5.813-7.442 8.508-3.941 3.57-3.941 3.57-6.937 7.875h-2v2h-2l-.812 1.766c-1.203 2.262-2.526 4.04-4.188 5.984l-1.562 1.86C250 337 250 337 248 337v2h-2v2h-2l-.625 1.688c-2.524 4.245-6.743 7.575-11.375 9.312-7.767 1.806-15.963 2.141-23-2-3.546-2.791-6.775-5.847-10-9l-2.414-2.297C192.5 334.747 192.5 334.747 191 333v-2l-1.937-.812C187 329 187 329 186 326h-2c-1.621-1.645-1.621-1.645-3.437-3.812-2.536-3.013-2.536-3.013-5.286-5.825C174 315 174 315 174 313h-2v-2h-2c-1.375-1.363-1.375-1.363-3-3.312-2.097-2.492-4.208-4.904-6.473-7.247-11.518-11.97-15.04-22.603-14.812-38.71.318-8.135 3.476-14.273 8.285-20.731l1.738-2.363c3.61-4.807 3.61-4.807 5.262-6.637h2v-2h2v-2c1.757-.708 1.757-.708 4-1 1.923 1.323 1.923 1.323 3.89 3.332l2.15 2.17c1.093 1.144 1.093 1.144 2.21 2.31l2.258 2.276C185 242.706 185 242.706 185 245h2v2h2v2h2v2l1.798.8c2.284 1.244 3.673 2.491 5.436 4.387l1.739 1.868L201.75 260l1.824 1.945C208 266.742 208 266.742 208 269h2v2h2v2h2v2l1.75.75c2.551 1.417 4.23 3.162 6.25 5.25q8.233-8.197 16.457-16.405 3.82-3.812 7.643-7.62a6122 6122 0 0 0 7.392-7.372q2.078-2.072 4.159-4.14c4.462-4.462 8.79-8.971 12.88-13.778 1.436-1.647 2.837-3.23 4.469-4.685h2v-2h2v-2h2v-2h2v-2h2l1-3h2v-2h2v-2h2v-2h2l.771-1.761c1.36-2.477 2.868-4.09 4.89-6.06l2.153-2.12 2.248-2.184a1990 1990 0 0 0 4.41-4.32l1.977-1.923c1.64-1.567 1.64-1.567 2.551-3.632h2v-2h2v-2c1.645-1.586 1.645-1.586 3.813-3.375 2.25-1.86 4.09-3.494 5.824-5.852L328 173h2l.625-1.61c1.955-3.398 4.596-5.9 7.375-8.64l1.656-1.68c4.09-4.07 4.09-4.07 6.344-4.07l.875-1.875C348 153 348 153 350 151"/><path fill="#f35d3e" d="M194 97c.968 3.204 1.046 5.977.938 9.313-.032 5.857.115 10.643 4.332 15.07L202 124l10 10 2.645 2.61c1.802 1.83 3.452 3.632 5.042 5.64 2.017 2.767 2.017 2.767 4.313 3.75-1.59 4.136-4.605 7.232-8 10h-2v2h-2l-.781 1.766c-1.317 2.414-2.77 4.051-4.719 5.984l-1.844 1.86C203 169 203 169 201 169l-.683 1.67c-1.722 3.046-3.908 5.152-6.393 7.618l-1.563 1.558c-1.7 1.694-3.408 3.381-5.115 5.068l-3.549 3.533q-4.667 4.646-9.345 9.28-7.492 7.429-14.97 14.873a3438 3438 0 0 1-5.24 5.195l-3.195 3.176-2.828 2.803c-2.147 2.038-2.147 2.038-3.119 4.226h-2l-.687 1.688c-1.689 2.974-3.78 5.032-6.313 7.312h-2v2h-2v2h-2v2h-2v2h-2v2h-2l-.648 1.638c-1.838 3.21-4.354 5.59-6.98 8.151l-1.667 1.65c-1.75 1.734-3.509 3.46-5.267 5.186q-2.643 2.601-5.279 5.207a895 895 0 0 1-3.285 3.232c-2.79 2.7-2.79 2.7-4.874 5.936h-5c-.34-74.571-.34-74.571 15.564-91.457 1.93-2.075 3.741-4.245 5.561-6.418 1.57-1.867 1.57-1.867 2.875-3.125h2v-2h2v-2h2v-2h2v-2h2l.781-1.734c1.333-2.477 2.87-4.4 4.719-6.516l1.844-2.14C134 157 134 157 136 157v-2h2v-2h2l.77-1.766c1.363-2.476 2.872-4.04 4.917-5.984 3.53-3.42 6.737-6.995 9.868-10.781L157 133h2v-2h2l.793-1.77c1.276-2.357 2.663-3.987 4.516-5.917l1.999-2.102c.702-.73 1.405-1.46 2.13-2.211q2.178-2.28 4.355-4.562l2.165-2.27a274 274 0 0 0 5.405-5.918l1.497-1.68q1.959-2.217 3.906-4.445c2.194-2.087 3.273-2.8 6.234-3.125"/><path fill="#e73a55" d="M167 227c3.07 1.187 5.14 2.883 7.453 5.188l1.875 1.867L178.25 236l1.969 1.945 1.86 1.868 1.7 1.707C185 243 185 243 185 245h2v2h2v2h2v2l1.798.8c2.284 1.244 3.673 2.491 5.436 4.387l1.739 1.868L201.75 260l1.824 1.945C208 266.742 208 266.742 208 269h2v2h2v2h2v2l1.813.75c2.503 1.43 3.668 2.82 5.187 5.25v2h2c3.484 3.193 6.491 6.716 9.54 10.32 1.22 1.404 2.52 2.74 3.835 4.055 7.8 7.8 14.734 15.398 16.625 26.625l3-1 1-9h1v9l4 1h-2v2h-2l-.812 1.766c-1.203 2.262-2.526 4.04-4.188 5.984l-1.562 1.86C250 337 250 337 248 337v2h-2v2h-2l-.625 1.688c-2.524 4.245-6.743 7.575-11.375 9.312-7.767 1.806-15.963 2.141-23-2-3.546-2.791-6.775-5.847-10-9l-2.414-2.297C192.5 334.747 192.5 334.747 191 333v-2l-1.937-.812C187 329 187 329 186 326h-2c-1.621-1.645-1.621-1.645-3.437-3.812-2.536-3.013-2.536-3.013-5.286-5.825C174 315 174 315 174 313h-2v-2h-2c-1.375-1.363-1.375-1.363-3-3.312-2.097-2.492-4.208-4.904-6.473-7.247-11.518-11.97-15.04-22.603-14.812-38.71.318-8.135 3.476-14.273 8.285-20.731l1.738-2.363c3.61-4.807 3.61-4.807 5.262-6.637h2v-2h2v-2z"/><path fill="#d23921" d="M233 160c3.975.512 5.847 1.363 8.55 4.309l1.866 2.013 1.897 2.115 1.955 2.104C252 175.714 252 175.714 252 178l2.313.688c3.346 1.634 3.784 3.14 5.687 6.312 1.961 1.84 4.005 3.557 6.059 5.293A35.2 35.2 0 0 1 272 197v2h2l1 3 2 2-1.282 1.266a3859 3859 0 0 0-5.843 5.797l-2.016 1.99c-3.226 3.21-6.32 6.438-9.226 9.943L256 226h-2v2h-2v2h-2v2h-2v2h-2v2c-1.375 1.625-1.375 1.625-3 3h-2v2h-2l-.656 1.64c-1.809 3.176-4.261 5.567-6.844 8.11l-1.512 1.535C226.253 256 226.253 256 224 256l-1 3c-4.329-.476-6.372-3.039-9.312-6.062l-1.461-1.492a196 196 0 0 1-9.887-10.985c-1.296-1.588-1.296-1.588-3.34-2.461v-2h-2v-2h-2v-2h-2v-2h-2v-2h-2v-2l-3-1v-2h-2v-2h-2c-1.75-1.687-1.75-1.687-3-4 1.175-4.343 3.437-6.786 6.625-9.875l2.695-2.621a215 215 0 0 1 9.086-8.031c1.835-1.58 1.835-1.58 3.594-4.473h2v-2h2v-2h2l.813-1.812c1.186-2.186 2.283-3.601 4.187-5.188h2v-2h2v-2h2v-2h2v-2h2v-2h2l.813-1.812c1.186-2.186 2.283-3.601 4.187-5.188h2z"/><path fill="#d54d20" d="m194 99 .191 3.656c.546 11.449.546 11.449 6.743 20.617L203 125a572 572 0 0 1 4.625 4.688c2.366 2.342 4.744 4.672 7.125 7a84 84 0 0 1 4.938 5.562c2.016 2.767 2.016 2.767 4.312 3.75-1.59 4.136-4.605 7.232-8 10h-2v2h-2l-2 4h-3l-.516-1.687c-1.297-4.087-2.704-7.935-4.672-11.75C200 145 200 145 200 143h-2l-.7-1.652c-1.75-4.048-3.58-7.885-5.863-11.66-3.81-6.706-6.206-14.946-5.437-22.688 1.496-2.336 1.496-2.336 3.438-4.375l1.933-2.086C193 99 193 99 194 99"/><path fill="#f78b3f" d="M350 151h4c.325 66.765.325 66.765-5 79h-3l.621-3.148.817-4.227.408-2.059c1.77-9.235 2.31-18.435 2.47-27.824l.063-3.118q.096-4.875.183-9.749l.131-6.656q.16-8.11.307-16.219-1.912 1.656-3.82 3.316l-2.15 1.866a88 88 0 0 0-4.905 4.756C338 169 338 169 336 169l-.629 1.621c-1.916 3.324-4.576 5.794-7.308 8.441l-1.631 1.604A1634 1634 0 0 1 322 185l-1.553 1.674C319 188 319 188 317 188c0-4 0-4 1.645-5.781l2.168-1.719c2.27-1.82 4.092-3.371 5.824-5.719L328 173h2l.625-1.61c1.955-3.398 4.596-5.9 7.375-8.64l1.656-1.68c4.09-4.07 4.09-4.07 6.344-4.07l.875-1.875C348 153 348 153 350 151"/><path fill="#f34950" d="m160 208 1 3-1.361 1.345a4370 4370 0 0 0-6.077 6.03l-2.142 2.117-2.041 2.031-1.889 1.873c-1.58 1.55-1.58 1.55-2.49 3.604h-2l-.687 1.688c-1.689 2.974-3.78 5.032-6.313 7.312h-2v2h-2v2h-2v2h-2v2h-2v2h-2l-.648 1.638c-1.838 3.21-4.354 5.59-6.98 8.151l-1.667 1.65c-1.75 1.734-3.509 3.46-5.267 5.186q-2.643 2.601-5.279 5.207a895 895 0 0 1-3.285 3.232c-2.79 2.7-2.79 2.7-4.874 5.936h-5q-.037-8.45-.055-16.9-.008-2.862-.02-5.722c-.058-12.83.254-25.573 1.075-38.378l3 1-1 2c-.228 2.442-.4 4.86-.527 7.309l-.126 2.269c-.495 9.489-.698 18.986-.91 28.484l-.13 5.55Q92.149 270.304 92 277h2v-4l1.875-.25c2.273-.556 2.273-.556 3.313-2.625A126 126 0 0 0 101 265l2.375-.25L106 264a95 95 0 0 0 2-4c3.55-4.58 7.392-8.484 12-12a445 445 0 0 0 5-5l2.372-2.404 2.421-2.46 5.394-5.448 2.772-2.823 2.646-2.666 2.411-2.442C145 223 145 223 147 223l.648-1.64c1.833-3.2 4.35-5.57 6.977-8.11l1.563-1.535A897 897 0 0 1 160 208"/><path fill="#d02d45" d="M167 227c3.07 1.187 5.14 2.883 7.453 5.188l1.875 1.867L178.25 236l1.969 1.945 1.86 1.868 1.7 1.707C185 243 185 243 185 245h2v2h2l-1 4c-1.875-.187-1.875-.187-4-1l-.719-2.125c-1.817-4.077-4.715-6.63-7.906-9.687l-1.852-1.811A837 837 0 0 0 169 232c-3.033 1.33-4.853 2.686-6.937 5.25l-1.547 1.871L159 241c-4.661 5.774-4.661 5.774-8 8-.046 2-.038 4 0 6-.532 2.394-1.251 4.66-2 7h-1v9h1l1 9h1v6h2v3h-2a914 914 0 0 1-1.937-4.25l-1.09-2.39c-3.68-8.928-3.716-22.228-.223-31.173A65.6 65.6 0 0 1 154 241l1.738-2.363c3.61-4.807 3.61-4.807 5.262-6.637h2v-2h2v-2z"/><path fill="#d9432d" d="m233 160 4 1h-2l-.625 1.625c-1.908 3.295-4.423 5.969-7.375 8.375h-2l-.812 1.938C223 175 223 175 220 176a86 86 0 0 0-2 4c-1.433 1.644-1.433 1.644-3.082 3.242l-1.826 1.793-1.905 1.84c-5.151 4.99-5.151 4.99-9.898 10.36-1.933 2.335-3.78 4.215-6.101 6.14-4.294 3.655-8.25 7.593-12.188 11.625 1.149 3.446 2.191 3.916 5 6v2h-4v-2h-2c-1.75-1.687-1.75-1.687-3-4 1.175-4.343 3.437-6.786 6.625-9.875l2.695-2.621a215 215 0 0 1 9.086-8.031c1.835-1.58 1.835-1.58 3.594-4.473h2v-2h2v-2h2l.813-1.812c1.186-2.186 2.283-3.601 4.187-5.188h2v-2h2v-2h2v-2h2v-2h2v-2h2l.813-1.812c1.186-2.186 2.283-3.601 4.187-5.188h2z"/><path fill="#f6733b" d="M315 186h2l1 3-1.266 1.25q-5.008 4.95-9.984 9.934l-1.914 1.915c-2.409 2.494-4.667 5.1-6.906 7.745-6.952 7.768-14.51 15.201-22.477 21.922-1.588 1.314-1.588 1.314-3.453 3.234-2.125-.375-2.125-.375-4-1a517 517 0 0 1 3.375-3.5l1.898-1.969C275 227 275 227 277 227v-2h2v-2h2v-2h2v-2h2l1-3h2v-2h2v-2h2v-2h2l.771-1.761c1.36-2.477 2.868-4.09 4.89-6.06l2.153-2.12 2.248-2.184a1990 1990 0 0 0 4.41-4.32l1.977-1.923c1.64-1.567 1.64-1.567 2.551-3.632h2z"/><path fill="#f58641" d="M353 165h1c.422 52.541.422 52.541-5 65h-3l.621-3.148.817-4.227.408-2.059c2.422-12.64 2.436-25.33 2.63-38.156.04-2.491.092-4.982.145-7.472l.026-2.327c.126-5.384.126-5.384 2.353-7.611"/><path fill="#f24b46" d="M310.188 270.313 312 271l-3 1v2h-2v2h-2l-.77 1.766c-1.363 2.476-2.872 4.04-4.918 5.984-3.529 3.42-6.736 6.995-9.867 10.781L288 296h-2v2h-2l-.812 1.75c-1.217 2.306-2.491 4.27-4.188 6.25h-2l-.81 1.798c-1.206 2.231-2.426 3.668-4.23 5.436l-1.757 1.739-1.828 1.777-1.852 1.824Q264.268 320.793 262 323l-3-1c5.968-7.258 5.968-7.258 8-9h2v-2h2l.828-1.785c2.458-4.645 6.092-8.32 10.11-11.652 3.171-2.654 5.663-5.502 8.328-8.645 1.572-1.74 3.144-3.162 4.984-4.606 2.708-2.277 4.018-4.28 5.75-7.312h2l.813-1.812c2.914-5.37 2.914-5.37 6.375-4.875"/><path fill="#ef4765" d="M188 329c4.24.487 5.913 1.5 8.563 4.813 1.901 2.32 3.72 4.464 5.875 6.562C204 342 204 342 204 344h2v2l2.563.813C212 348 212 348 215.25 349.688c4.809 1.683 8.813 1.46 13.75.312l3-2h4l1-3 2 1 .813-1.777c1.195-2.238 2.5-3.9 4.187-5.786 1.877-2.107 3.422-4.07 5-6.437l2 3-1 2h-2v2h-2v2h-2l-.625 1.688c-2.524 4.245-6.743 7.575-11.375 9.312-7.767 1.806-15.963 2.141-23-2-3.546-2.791-6.775-5.847-10-9l-2.414-2.297C192.5 334.747 192.5 334.747 191 333v-2l-3-1z"/><path fill="#fb9e3b" d="M223.25 75.75c1.201.015 2.403.03 3.64.047C230 76 230 76 233 77l1 3-2.781-.324c-8.378-.819-14.42-1.312-21.266 3.875-3.294 2.792-6.269 5.786-9.203 8.949L198 95c-2.172-.344-2.172-.344-4-1a889 889 0 0 1 7.063-7.312l1.99-2.092c6.235-6.358 11-9.045 20.197-8.846"/><path fill="#f98b36" d="M233 78c4.503 1.415 6.804 3.575 10 7q2.817 2.73 5.645 5.45C250 92 250 92 250 94h2v2h2v2h2v2h2c1.621 1.61 1.621 1.61 3.438 3.75l1.808 2.11L265 108l1.785 2.078L268 112l-1 3-1-3h-2v-2l-3-1c-1.684-1.707-1.684-1.707-3.437-3.812-1.943-2.3-3.841-4.46-6-6.563C250 97 250 97 250 95l-3-1a209 209 0 0 1-3.535-4.309c-2.084-2.406-4.463-4.373-6.914-6.394C235 82 235 82 233 80z"/><path fill="#f55453" d="m160 208 1 3-1.361 1.345a4370 4370 0 0 0-6.077 6.03l-2.142 2.117-2.041 2.031-1.889 1.873c-1.58 1.55-1.58 1.55-2.49 3.604h-2l-.687 1.688c-1.689 2.974-3.78 5.032-6.313 7.312h-2v2h-2v2h-2v2l-5 1a225 225 0 0 1 13.25-14.437l1.89-1.928 1.813-1.819 1.63-1.642C145 223 145 223 147 223l.648-1.64c1.833-3.2 4.35-5.57 6.977-8.11l1.563-1.535A897 897 0 0 1 160 208"/><path fill="#db3426" d="m260 218 2 1a418 418 0 0 1-2.875 3.5l-1.617 1.969L256 226h-2v2h-2v2h-2v2h-2v2h-2v2c-1.375 1.625-1.375 1.625-3 3h-2v2h-2l-.625 1.625c-1.955 3.377-4.557 5.68-7.375 8.375l-3-1 1.137-1.32 1.55-1.805 1.68-1.945c1.36-1.607 2.66-3.263 3.946-4.93 2.7-3.282 6.019-5.597 9.41-8.125 2.976-2.45 5.303-5.244 7.672-8.273 1.862-1.858 3.113-1.986 5.605-2.602z"/><path fill="#f5693d" d="m150 141 3 1-1.312 1.188c-1.789 1.783-1.789 1.783-3.032 4.152-4.219 6.776-10.948 12.068-17.027 17.152-1.865 1.608-1.865 1.608-3.629 4.508l-2-1c2.29-4.096 4.857-7.534 8-11h2v-2h2v-2h2l.742-1.734c1.47-2.646 3.211-4.415 5.383-6.516l2.195-2.14z"/><path fill="#ed454b" d="m92 217 3 1-1 2c-.228 2.442-.4 4.86-.527 7.309l-.126 2.269c-.495 9.489-.698 18.986-.91 28.484l-.13 5.55Q92.149 270.304 92 277h2v-4l1.938-.312L98 272l1-3 4 1a210 210 0 0 1-3.187 4l-1.793 2.25c-2.534 2.195-3.77 1.9-7.02 1.75q-.037-8.45-.055-16.9-.008-2.862-.02-5.722c-.058-12.83.254-25.573 1.075-38.378"/><path fill="#f48d46" d="M350 151h4q.118 3.437.188 6.875l.105 3.867L354 165l-3 2v-10l-3.312 3c-3.313 3-3.313 3-6.688 3 .25-1.875.25-1.875 1-4q1.988-1.025 4-2c1.15-1.967 1.15-1.967 2-4z"/><path fill="#f4664b" d="M269 237c-1.598 4.274-4.858 6.817-8.187 9.75-4.518 4.044-8.647 8.092-12.348 12.922C247 261 247 261 243 261c4.504-5.396 9.267-10.42 14.25-15.375l2.18-2.191 2.086-2.082 1.883-1.88c1.923-1.768 2.966-2.472 5.601-2.472"/><path fill="#d55039" d="m233 160 4 1h-2l-.625 1.625c-1.908 3.295-4.423 5.969-7.375 8.375h-2l-.812 1.938C223 175 223 175 220 176l-.812 1.75c-1.74 3.295-4.264 4.962-7.188 7.25l-1-3 3-1v-2h2v-2h2v-2h2v-2h2v-2h2l.813-1.812c1.186-2.186 2.283-3.601 4.187-5.188h2z"/><path fill="#f47638" d="M352 196h1c.444 12.028.693 22.708-4 34h-3l.621-3.148c1.476-7.6 2.84-15.116 3.379-22.852h1z"/><path fill="#de5341" d="m237 266 2 3c-1 3-1 3-3.437 4.438-2.86 1.743-3.155 2.659-4.563 5.562a210 210 0 0 1-5 4l-2 3-1-3-2-1z"/><path fill="#e63c47" d="M257 314h1v9l4 1h-2v2h-2l-.75 1.75c-1.417 2.55-3.126 4.268-5.25 6.25l-3-1c1.875-5.75 1.875-5.75 3-8l2.016-.836c2.203-.985 2.203-.985 2.593-3.328l.141-2.461.172-2.477z"/><path fill="#f37440" d="M296 150h3c1.131 2.263 1.129 3.518 1.133 6.027l.004 2.4-.012 2.51.012 2.499-.004 2.404-.004 2.199C300 170 300 170 299 173h-2l-1 3 .254-3.656.308-4.844.17-2.398c.32-5.197.065-9.955-.732-15.102"/><path fill="#f55469" d="m248 332 3 3-1 2h-2v2h-2v2h-2l-.625 1.688c-3.146 5.29-7.558 7.789-13.375 9.312v-3l6-1 1-3 2 1 .809-1.777c1.563-2.916 3.634-5.106 5.851-7.54 1.555-1.755 1.555-1.755 2.34-4.683"/><path fill="#f67a45" d="M174 117c0 3.433-.332 3.738-2.555 6.137l-1.613 1.748-1.707 1.802-1.684 1.838c-1.434 1.537-2.933 3.011-4.441 4.475h-2v2l-3-1 2-1v-2h2c.26-.587.52-1.173.79-1.777 2.705-4.966 7.57-9.068 12.21-12.223"/><path fill="#fb9a33" d="M233 78c4.492 1.412 6.815 3.582 10 7l1.648 1.555c1.509 1.423 2.936 2.93 4.352 4.445v3h-2a248 248 0 0 1-3.5-4.273c-2.1-2.417-4.485-4.397-6.95-6.43C235 82 235 82 233 80z"/><path fill="#f66955" d="M109 187c-1.403 3.14-3.096 5.367-5.437 7.875-2.905 3.231-4.869 6.139-6.563 10.125l-2-3c7.813-15 7.813-15 14-15"/><path fill="#faa84b" d="m222.938 75.875 3.777-.008C230 76 230 76 233 77l1 3-2.852-.219-3.773-.281-3.727-.281A133 133 0 0 0 214 79v-2c2.958-1.479 5.648-1.132 8.938-1.125"/><path fill="#df3221" d="m260 218 2 1a418 418 0 0 1-2.875 3.5l-1.617 1.969L256 226h-2v2h-2v2h-2v2h-2v2h-2l-1 2c.556-4.043 2.628-6.213 5.313-9.187l2.363-2.668c2.344-2.164 3.346-2.494 6.324-3.145z"/><path fill="#f35d30" d="M297 173h1c.346 4.33-.654 6.858-2.75 10.625l-1.547 2.852c-1.686 2.497-3.193 3.897-5.703 5.523 0-4 0-4 1.363-5.457L291 185c1.205-2.26 1.205-2.26 2.188-4.687l1.042-2.45L295 176h2z"/><path fill="#e76c39" d="m194 97 1 4h-3c-3.442 3.524-5.554 5.95-6 11l-1.375-1.437c-1.558-1.653-1.558-1.653-3.625-2.563a561 561 0 0 1 4.25-4.937l2.39-2.778c2.273-2.2 3.283-2.953 6.36-3.285"/><path fill="#f5774a" d="m150 141 3 1c-4.741 6.05-4.741 6.05-7 8h-2l-.812 1.938C142 154 142 154 139 155l-1-2h2l.742-1.734c1.47-2.646 3.211-4.415 5.383-6.516l2.195-2.14z"/><path fill="#f04d5a" d="m110 258 2 1c-2.454 4.52-5.277 9.043-10.312 10.813L100 270l1-5 2.375-.25c2.751-.466 2.751-.466 3.813-2.687L108 260z"/><path fill="#f55f4e" d="m160 208 1 3-11 11-3-1z"/><path fill="#f66447" d="m181 186 1 2c-2.314 4.627-4.994 8.088-9.75 10.25L170 199c1.536-3.68 3.782-5.988 6.625-8.75l2.477-2.422z"/><path fill="#f89554" d="m353 152-1 3-3 1c-1.385 1.76-2.528 3.608-3.719 5.504L344 163h-3c.25-1.875.25-1.875 1-4q1.988-1.025 4-2 1.025-1.987 2-4c3-1 3-1 5-1"/><path fill="#ea455d" d="M201 262c2.867 1.285 4.976 2.571 7 5v2h2v2h2v2l2 1h-4l-2-4h-2c-5-5.476-5-5.476-5-8"/><path fill="#d1423b" d="m227 276 4 2-2.375 2.313c-2.698 2.596-2.698 2.596-4.625 5.687l-1-3-2-1z"/><path fill="#f64c47" d="m147 222 2 1a105 105 0 0 1-4 5h-2l-.875 1.938C141 232 141 232 139 233l-2-2a1326 1326 0 0 1 3.875-3.937l2.18-2.215C145 223 145 223 147 222"/><path fill="#ed5d39" d="m284 193 2 2c-5.094 6.705-5.094 6.705-8.875 7.938L275 203l-1-2 2.875-.75c3.193-.92 3.193-.92 4.375-3.25l.75-2z"/><path fill="#f15554" d="m287 292 2 3-3 1v2h-2l-.875 1.875C282 302 282 302 280 304l-3-1c3.165-3.889 6.404-7.506 10-11"/><path fill="#fa8f2a" d="m249 92 1 2h2v2h2v2h2v2h2l1 3c-4.248-.472-6.268-2.889-9-6v-2l-2-1z"/><path fill="#ec3d65" d="M188 329c2.855.084 4.562.61 6.703 2.52 3.134 3.478 3.134 3.478 4.297 5.48l-1 3a517 517 0 0 1-3.5-3.375l-1.969-1.898C191 333 191 333 191 331l-3-1z"/><path fill="#ee5157" d="M269 313c-.576 3.353-1.593 4.938-4.062 7.25l-1.66 1.578L262 323l-3-1c7.4-9 7.4-9 10-9"/><path fill="#db2c4d" d="M161 299c1.875.25 1.875.25 4 1 1 1.813 1 1.813 2 4a90 90 0 0 0 4 4l-1 3a672 672 0 0 1-3.375-3.75l-1.898-2.11c-1.602-1.985-2.692-3.82-3.727-6.14"/><path fill="#d02045" d="M147 276c2 1.625 2 1.625 4 4 .25 3.25.25 3.25 0 6h2v3h-2q-1.012-2.119-2-4.25l-1.125-2.39C147 280 147 280 147 276"/><path fill="#f56d52" d="m121 171 3 1a707 707 0 0 1-2.875 3.438l-1.617 1.933C118 179 118 179 116 180l1-5h2v-2h2z"/><path fill="#f15a45" d="m242 261 3 1-1 2h-2l-2 4h-3c1.522-2.629 2.844-4.844 5-7"/><path fill="#f4724f" d="m133 160 2 1-7 8-2-1c1.911-3.536 3.626-5.79 7-8"/><path fill="#faa23e" d="m224 76 9 1 1 3-3.875-.312-2.18-.176C226 79 226 79 224 76"/><path fill="#d9362d" d="M215 253c3.485.645 6.028 2.101 9 4l-1 2c-3.255-.349-4.019-1.021-6.25-3.562z"/><path fill="#f48347" d="M183 108v3l-4 2v2l-3-1c3.625-4.875 3.625-4.875 7-6"/><path fill="#e13336" d="m256 323 1 3a91 91 0 0 1-4 4h-2c.25-2.375.25-2.375 1-5 2.063-1.312 2.063-1.312 4-2"/><path fill="#d5422f" d="M208 246c2.313.188 2.313.188 5 1 1.813 2.563 1.813 2.563 3 5-3.255-.349-4.019-1.021-6.25-3.562z"/><path fill="#ea444d" d="M257 314h1v9l4 1h-2v2h-3z"/><path fill="#c94c3b" d="m224 170 2 1c-3.446 4.8-3.446 4.8-6.25 5.813L218 177v-2h2v-2h2v-2z"/><path fill="#f7652d" d="m344 231 3 2-5 6c-.687-1.75-.687-1.75-1-4 1.438-2.25 1.438-2.25 3-4"/><path fill="#e12014" d="m260 218 2 1-6 7-1-4 1.938-.312L259 221z"/><path fill="#f35e52" d="M95 206h1l-1 7h-2l-1 3 1-8h2z"/><path fill="#ca301d" d="m273 202 4 2-5 5-2-1z"/><path fill="#da3729" d="m194 200 1 3c-1.312 1.5-1.312 1.5-3 3h-3c1.37-3.161 1.99-3.993 5-6"/><path fill="#f76d30" d="M315 186h2l1 3-4 3-2-2 1-2h2z"/><path fill="#f98534" d="m334 167 2 1-1 4-5 1c1.152-2.468 2.048-4.048 4-6"/><path fill="#d96139" d="m233 160 4 1h-2l-2 4-4-1h2z"/><path fill="#de394d" d="m187 248 4 1v2l4 2-1 2a340 340 0 0 1-3.5-2.375l-1.969-1.336L187 250z"/><path fill="#de3f2c" d="m244 233 1 3-2 3h-4v-2a105 105 0 0 1 5-4"/><path fill="#c74322" d="m220 145 4 1-2 4-4-1z"/><path fill="#ec692d" d="m194 97 1 4h-3l-2 1-2-2c2.139-2.139 3.133-2.427 6-3"/></svg>