<?xml version="1.0" encoding="utf-8"?>
<svg xmlns="http://www.w3.org/2000/svg" viewBox="0 0 500 500" xmlns:bx="https://boxy-svg.com">
  <defs>
    <bx:export>
      <bx:file format="svg" href="#object-0" path="Sin título.svg"/>
    </bx:export>
  </defs>
  <g transform="matrix(0.066123, 0, 0, -0.057911, -102.835768, 484.947503)" fill=""
    stroke="none" style="" id="object-0">
    <path d="M3554 7021 c-45 -28 -69 -94 -54 -150 9 -33 23 -51 75 -92 l65 -51 0 -129 0 -129 -49 0 c-43 0 -53 -4 -75 -31 -29 -35 -33 -65 -11 -96 13 -18 13 -24 -1 -52 -19 -39 -12 -74 21 -103 15 -13 25 -32 25 -48 0 -33 15 -52 60 -79 29 -17 52 -21 128 -21 51 0 103 5 115 11 40 20 76 61 83 93 4 17 18 42 31 56 21 21 24 31 19 65 -8 51 -8 72 -1 115 5 27 2 41 -15 63 -19 23 -28 27 -76 27 l-54 0 0 124 c0 138 -2 133 74 186 50 33 76 81 76 137 0 124 -151 167 -230 66 -15 -19 -23 -24 -27 -15 -8 20 -45 53 -71 63 -36 14 -74 11 -108 -10z m103 -46 c12 -8 31 -31 43 -50 26 -42 52 -45 77 -9 37 54 62 74 92 74 52 0 85 -65 63 -123 -4 -9 -32 -34 -62 -55 -30 -21 -61 -49 -67 -63 -8 -15 -13 -71 -13 -152 l0 -128 -47 3 -48 3 -5 135 c-3 74 -9 143 -14 152 -4 9 -30 31 -57 49 -57 36 -69 54 -69 103 0 64 57 96 107 61z m281 -581 c2 -11 -3 -25 -10 -31 -7 -6 -88 -13 -180 -17 -160 -7 -168 -6 -188 14 -16 16 -18 24 -10 40 10 19 20 20 198 18 181 -3 187 -4 190 -24z m-1 -120 c3 -9 2 -24 -4 -33 -9 -13 -36 -16 -174 -19 -191 -3 -209 -1 -209 32 0 12 3 26 7 29 3 4 89 7 190 7 161 0 184 -2 190 -16z m-53 -113 c4 -5 -6 -24 -21 -41 l-26 -32 -98 4 c-85 3 -101 6 -120 25 -13 12 -19 28 -16 37 5 14 27 16 141 16 74 0 137 -4 140 -9z" style="fill: rgb(29, 75, 6);"/>
    <path d="M5974 6631 c-23 -10 -54 -36 -70 -57 l-29 -37 -3 -248 c-3 -247 -3 -248 -25 -251 -19 -3 -22 -10 -25 -55 l-3 -53 -140 0 -139 0 0 171 c0 193 -6 215 -70 273 -21 19 -56 39 -77 45 -50 14 -784 15 -834 1 -56 -16 -101 -51 -129 -100 -23 -42 -25 -55 -28 -217 l-4 -172 -326 -3 c-317 -3 -329 -4 -377 -26 -68 -31 -128 -93 -159 -163 l-26 -58 2 -803 3 -803 29 -53 c36 -64 83 -107 152 -139 l51 -23 1234 2 1234 3 48 25 c59 30 122 96 149 157 23 53 28 113 28 411 l0 222 49 0 c48 0 50 -1 157 -103 149 -140 158 -147 211 -147 54 0 72 9 148 74 33 29 79 66 102 84 68 53 74 80 71 342 -3 217 -4 225 -23 225 -19 0 -20 -8 -25 -235 -3 -160 -9 -242 -17 -257 -7 -11 -36 -38 -65 -60 -29 -21 -74 -57 -100 -80 -54 -48 -76 -57 -109 -44 -13 5 -79 61 -146 125 -124 117 -135 124 -211 128 l-43 3 0 145 0 145 98 5 c64 4 109 12 129 23 44 23 102 93 114 136 11 39 14 381 4 419 -6 21 -11 23 -78 20 -63 -3 -71 -5 -71 -23 0 -17 8 -20 53 -23 l52 -3 0 -183 c0 -172 -1 -186 -23 -226 -34 -65 -87 -90 -194 -90 l-83 0 0 33 c0 17 -1 156 -2 307 -3 261 -4 277 -25 320 -35 71 -76 114 -145 151 -60 32 -68 34 -185 37 l-122 4 -3 52 c-2 42 -6 51 -23 54 -20 3 -20 8 -15 246 5 226 7 246 25 266 34 37 57 44 165 50 97 5 105 7 105 25 0 19 -7 20 -100 22 -80 2 -108 -1 -141 -16z m-676 -444 c14 -16 16 -45 14 -164 l-2 -93 -340 0 -340 0 0 117 c0 94 3 120 17 135 15 17 39 18 328 18 247 0 315 -3 323 -13z m-270 -722 c4 -58 -2 -77 -23 -69 -11 5 -15 21 -15 58 0 29 3 56 7 60 16 15 28 -4 31 -49z m-168 -60 c0 -8 -5 -15 -11 -15 -7 0 -50 -26 -97 -57 -95 -64 -160 -142 -189 -224 -14 -40 -22 -49 -38 -47 -15 2 -19 10 -17 28 3 33 53 131 69 137 7 3 13 11 13 18 0 18 85 94 123 110 18 8 28 15 22 15 -5 1 10 12 35 25 52 28 90 32 90 10z m407 -12 c115 -59 211 -170 252 -291 27 -79 27 -94 -1 -90 -17 2 -25 14 -34 50 -27 105 -95 197 -194 262 -36 23 -77 47 -92 54 -33 14 -37 42 -6 42 11 0 45 -12 75 -27z m-169 -267 c135 -70 150 -244 29 -340 -36 -29 -45 -31 -117 -31 -88 0 -109 10 -164 79 -28 34 -31 44 -31 110 0 60 4 78 24 108 27 39 74 75 117 88 36 12 106 5 142 -14z m-566 -276 c16 -164 118 -304 276 -377 56 -26 69 -53 26 -53 -46 0 -141 60 -208 130 -73 78 -112 152 -129 248 -12 67 -12 67 -47 70 -41 4 -55 15 -46 37 4 13 18 15 63 13 l58 -3 7 -65z m1086 48 c-3 -20 -10 -23 -52 -26 -52 -3 -72 7 -63 32 5 12 21 16 62 16 53 0 56 -1 53 -22z m-102 -173 c9 -23 -54 -123 -121 -191 -88 -89 -225 -151 -225 -102 0 7 31 28 69 46 84 41 172 125 212 204 29 57 54 73 65 43z m-478 -351 c2 -36 -1 -54 -12 -63 -24 -20 -36 -3 -36 53 0 57 5 68 30 64 11 -2 16 -18 18 -54z" style="fill: rgb(29, 75, 6);"/>
    <path d="M6081 6416 c-8 -9 -11 -47 -9 -107 l3 -94 174 -3 c133 -2 176 1 183 10 4 7 8 52 8 100 0 76 -2 89 -19 98 -11 6 -87 10 -174 10 -120 0 -157 -3 -166 -14z m177 -73 c3 -10 -14 -13 -62 -13 -53 0 -66 3 -66 15 0 13 11 15 62 13 38 -2 63 -8 66 -15z m78 -4 c3 -6 2 -15 -3 -20 -13 -13 -43 -1 -43 17 0 16 36 19 46 3z m52 -6 c-2 -10 -10 -18 -18 -18 -8 0 -16 8 -18 18 -2 12 3 17 18 17 15 0 20 -5 18 -17z m-130 -45 c-3 -8 -28 -14 -66 -16 -51 -2 -62 0 -62 13 0 12 13 15 66 15 48 0 65 -3 62 -12z" style="fill: rgb(29, 75, 6);"/>
    <path d="M2936 6355 c-60 -32 -86 -100 -61 -163 45 -112 191 -118 244 -9 19 39 21 51 11 85 -15 58 -68 102 -123 102 -23 0 -55 -7 -71 -15z m112 -51 c35 -24 44 -59 27 -100 -35 -85 -155 -58 -155 36 0 66 73 103 128 64z" style="fill: rgb(29, 75, 6);"/>
    <path d="M7047 5856 c-110 -40 -178 -140 -178 -266 0 -88 23 -141 85 -198 63 -58 107 -75 186 -75 251 1 368 317 180 486 -27 24 -66 49 -88 55 -52 16 -137 15 -185 -2z m153 -157 c43 -24 63 -56 63 -98 0 -100 -107 -165 -186 -113 -43 29 -56 53 -57 104 0 39 6 54 30 82 44 50 92 57 150 25z" style="fill: rgb(29, 75, 6);"/>
    <path d="M7507 5623 c-9 -14 -12 -357 -4 -370 4 -7 14 -10 22 -7 12 5 15 38 17 167 l3 162 55 5 c47 4 55 8 55 25 0 18 -8 20 -72 23 -39 2 -74 -1 -76 -5z" style="fill: rgb(29, 75, 6);"/>
    <path d="M3045 5066 c-24 -24 -59 -73 -77 -108 -32 -60 -33 -68 -33 -173 0 -104 2 -114 32 -175 32 -64 114 -160 137 -160 13 0 96 103 96 119 0 6 -13 20 -29 32 -16 12 -42 44 -57 72 -52 95 -27 219 55 272 17 11 31 23 31 26 0 8 -101 139 -106 139 -3 0 -24 -20 -49 -44z m49 -75 c3 -5 -9 -38 -27 -73 -28 -56 -32 -72 -32 -144 1 -75 3 -85 38 -143 39 -67 43 -76 27 -86 -34 -21 -104 102 -115 202 -9 76 22 193 57 218 13 8 18 15 13 15 -11 0 16 20 27 20 4 0 9 -4 12 -9z" style="fill: rgb(29, 75, 6);"/>
    <path d="M7080 4357 c-94 -63 -98 -202 -7 -257 49 -30 127 -27 167 6 42 36 60 74 60 130 0 111 -130 182 -220 121z m141 -56 c63 -63 20 -171 -68 -171 -96 1 -136 112 -62 174 43 36 92 35 130 -3z" style="fill: rgb(29, 75, 6);"/>
  </g>
  <ellipse style="stroke: rgb(0, 0, 0); fill: rgb(255, 255, 255);" cx="229.976" cy="197.835" rx="7.974" ry="4.854"/>
  <ellipse style="stroke: rgb(0, 0, 0); fill: rgb(16, 16, 16);" cx="230.17" cy="199.375" rx="2.427" ry="4.507"/>
  <path style="fill: rgb(216, 216, 216); stroke: rgb(0, 0, 0);" d="M 288.089 152.733 L 278.657 148.96"/>
</svg>