<?xml version="1.0" standalone="no"?>
<!DOCTYPE svg PUBLIC "-//W3C//DTD SVG 20010904//EN"
 "http://www.w3.org/TR/2001/REC-SVG-20010904/DTD/svg10.dtd">
<svg version="1.0" xmlns="http://www.w3.org/2000/svg"
 width="509.000000pt" height="305.000000pt" viewBox="0 0 509.000000 305.000000"
 preserveAspectRatio="xMidYMid meet">

  <g transform="translate(0.000000,305.000000) scale(0.100000,-0.100000)"
    fill="#1a0529" stroke="none">
<path d="M852 2814 c-29 -20 -52 -66 -52 -103 0 -36 35 -80 95 -118 l45 -28 0
-117 0 -118 -41 0 c-51 0 -75 -13 -94 -50 -14 -26 -14 -33 -1 -58 9 -18 11
-33 5 -43 -16 -25 -10 -67 15 -96 12 -15 27 -41 33 -58 16 -51 78 -75 193 -75
107 0 148 16 178 71 9 17 28 45 42 63 24 31 25 38 20 124 -3 52 -10 96 -17
103 -7 7 -40 15 -73 17 l-60 4 0 82 c0 120 10 146 75 190 41 28 58 49 71 81
15 41 15 46 -2 82 -23 46 -54 63 -115 63 -36 0 -54 -6 -84 -30 -39 -31 -55
-37 -55 -20 0 6 -15 19 -32 30 -40 24 -114 26 -146 4z m140 -64 c22 -22 48
-40 57 -40 9 0 33 18 55 40 30 31 46 40 72 40 51 0 93 -67 66 -106 -4 -6 -33
-29 -64 -52 -32 -23 -62 -51 -68 -61 -5 -11 -10 -69 -10 -130 l0 -111 -49 0
-48 0 -7 46 c-3 26 -6 74 -7 108 -1 91 -9 107 -69 147 -72 48 -90 99 -50 139
33 33 76 26 122 -20z m251 -480 c19 -17 -6 -38 -56 -44 -93 -11 -312 -7 -325
6 -21 21 -14 46 16 51 40 7 356 -4 365 -13z m4 -116 c14 -37 -22 -44 -209 -44
-150 0 -180 2 -184 15 -4 8 -4 22 0 30 4 13 36 15 196 15 168 0 191 -2 197
-16z m-57 -106 c0 -6 -10 -22 -22 -35 -19 -20 -31 -23 -92 -23 -39 0 -89 5
-111 10 -39 9 -69 35 -59 51 9 14 284 11 284 -3z"/>
<path d="M3350 2481 c-49 -10 -72 -25 -109 -66 l-31 -36 0 -205 0 -205 -25
-23 c-18 -17 -25 -34 -25 -60 l0 -36 -144 0 -144 0 -4 159 c-3 180 -7 189 -87
246 l-43 30 -437 0 -438 0 -49 -30 c-80 -49 -94 -88 -94 -262 l0 -143 -227 -1
c-345 -1 -458 -10 -516 -39 -56 -28 -116 -90 -148 -151 l-22 -43 8 -711 c4
-441 11 -717 17 -729 24 -45 97 -111 153 -137 l60 -29 1253 0 1253 0 57 29
c32 16 75 47 96 68 71 72 70 70 76 363 l5 265 42 3 c52 4 61 -1 166 -87 151
-124 164 -131 222 -131 46 0 61 6 121 47 208 141 200 125 197 377 -2 184 -9
234 -29 213 -4 -4 -11 -100 -15 -213 -8 -196 -9 -208 -31 -231 -26 -28 -193
-146 -221 -156 -29 -11 -75 15 -194 111 -128 103 -130 103 -202 111 l-54 6 -1
130 -1 130 100 7 c55 3 112 11 127 17 42 16 105 85 117 128 13 45 15 352 2
371 -12 20 -136 12 -136 -8 0 -11 13 -16 48 -18 l47 -3 0 -167 c0 -161 -1
-169 -24 -203 -37 -54 -84 -72 -191 -73 l-90 -1 -5 275 c-6 309 -8 318 -82
386 -71 64 -127 83 -270 90 l-126 7 -5 39 c-3 22 -12 45 -21 51 -23 18 -25 54
-18 254 7 180 8 183 34 209 23 24 38 28 125 36 133 13 148 17 135 30 -14 14
-153 20 -202 9z m-729 -401 c17 -10 19 -22 19 -120 l0 -110 -345 0 -345 0 0
103 c0 104 4 120 30 130 28 10 620 8 641 -3z m-270 -639 c8 -40 1 -71 -17 -71
-16 0 -29 60 -19 90 9 30 28 20 36 -19z m-175 -57 c2 -5 -35 -31 -81 -58 -96
-56 -168 -124 -206 -193 -44 -81 -86 -54 -43 28 40 78 173 188 271 224 41 14
55 14 59 -1z m444 -26 c86 -42 180 -135 220 -220 32 -68 38 -108 16 -108 -18
0 -30 17 -45 60 -31 92 -127 187 -253 251 -56 28 -66 38 -51 52 9 10 37 1 113
-35z m-194 -224 c51 -24 101 -85 109 -132 13 -79 -61 -183 -141 -198 -51 -10
-143 3 -178 26 -56 34 -76 72 -76 142 0 82 20 113 104 161 39 22 136 23 182 1z
m-574 -248 c17 -132 100 -238 247 -315 44 -23 81 -46 81 -52 0 -5 -15 -9 -33
-9 -67 0 -207 98 -269 188 -18 26 -44 81 -58 122 -24 72 -27 75 -62 84 -27 7
-38 15 -38 28 0 17 7 19 62 16 l63 -3 7 -59z m1096 47 c-2 -14 -15 -19 -52
-21 -27 -2 -53 1 -59 7 -18 18 5 31 59 31 47 0 55 -3 52 -17z m-98 -161 c0
-50 -136 -188 -234 -237 -128 -65 -163 -35 -38 32 93 50 151 99 194 161 17 26
36 50 42 54 19 13 36 8 36 -10z m-486 -292 c7 -37 -8 -80 -28 -80 -18 0 -31
58 -21 89 10 32 41 26 49 -9z"/>
<path d="M2308 1057 c-105 -33 -106 -105 -3 -147 53 -22 56 -22 97 -5 51 20
88 52 88 75 0 32 -38 67 -84 79 -52 13 -50 13 -98 -2z m122 -25 c28 -14 35
-23 35 -46 0 -23 -7 -34 -31 -48 l-31 -18 1 40 c0 29 -5 46 -21 62 -22 21 -23
21 -43 3 -14 -13 -20 -31 -20 -61 0 -37 -2 -42 -20 -37 -33 9 -61 52 -50 74
26 47 117 63 180 31z"/>
<path d="M3419 2263 c-6 -17 -8 -55 -4 -95 l7 -68 167 0 c91 0 172 4 179 9 18
11 18 161 0 173 -7 4 -86 8 -176 8 l-162 0 -11 -27z m175 -42 c4 -5 -8 -12
-25 -16 -36 -8 -99 2 -99 15 0 13 117 13 124 1z m86 -16 c0 -8 -9 -15 -20 -15
-11 0 -20 7 -20 15 0 8 9 15 20 15 11 0 20 -7 20 -15z m50 0 c0 -8 -7 -15 -15
-15 -8 0 -15 7 -15 15 0 8 7 15 15 15 8 0 15 -7 15 -15z m-130 -34 c0 -10 -48
-21 -91 -21 -28 0 -44 12 -32 24 10 9 123 7 123 -3z"/>
<path d="M234 2226 c-122 -53 -80 -216 55 -216 70 0 141 58 141 115 0 33 -32
75 -70 95 -45 23 -82 25 -126 6z m124 -59 c18 -17 22 -29 18 -52 -13 -64 -94
-88 -141 -40 -77 76 43 167 123 92z"/>
<path d="M4386 1775 c-97 -34 -155 -118 -156 -223 0 -79 16 -117 72 -168 64
-59 120 -78 217 -72 61 4 88 10 124 31 177 104 169 329 -15 423 -38 19 -62 24
-125 24 -43 -1 -95 -7 -117 -15z m170 -131 c43 -20 64 -49 64 -87 0 -107 -143
-157 -219 -76 -33 35 -29 108 7 141 45 42 91 49 148 22z"/>
<path d="M4865 1461 c-8 -131 0 -224 19 -218 7 2 14 56 20 150 l9 147 41 0
c23 0 48 5 56 10 25 17 -8 30 -76 30 l-62 0 -7 -119z"/>
<path d="M336 1073 c-26 -26 -61 -69 -77 -97 -26 -46 -29 -60 -29 -141 0 -73
4 -99 24 -140 26 -57 114 -155 138 -155 17 0 98 78 98 95 0 5 -20 29 -43 51
-90 87 -89 198 3 277 l42 36 -30 38 c-16 21 -41 48 -54 61 l-25 22 -47 -47z
m54 -63 c0 -6 -14 -38 -31 -72 -27 -54 -31 -69 -27 -128 3 -54 10 -76 36 -116
37 -58 40 -74 13 -74 -39 0 -103 124 -104 199 0 66 19 126 54 166 30 34 59 46
59 25z"/>
<path d="M4445 451 c-50 -26 -75 -66 -75 -120 0 -76 52 -122 139 -123 83 0
136 41 148 114 16 101 -113 179 -212 129z m110 -35 c62 -26 74 -89 26 -137
-64 -63 -171 -22 -171 65 0 25 32 60 70 75 34 13 36 13 75 -3z"/>
</g>
</svg>
