<svg xmlns="http://www.w3.org/2000/svg" viewBox="0 0 640 480">
  <path fill="#bd3d44" d="M0 0h640v480H0z" />
  <path fill="#fff" d="M0 36.9h640v37H0zm0 73.8h640v37H0zm0 73.9h640v37H0zm0 73.8h640v37H0zm0 73.9h640v37H0zm0 73.8h640v37H0z" />
  <path fill="#192f5d" d="M0 0h256v258.5H0z" />
  <g fill="#fff">
    <circle cx="21" cy="21" r="6"/><circle cx="64" cy="21" r="6"/><circle cx="107" cy="21" r="6"/><circle cx="150" cy="21" r="6"/><circle cx="193" cy="21" r="6"/><circle cx="236" cy="21" r="6"/>
    <circle cx="21" cy="72" r="6"/><circle cx="64" cy="72" r="6"/><circle cx="107" cy="72" r="6"/><circle cx="150" cy="72" r="6"/><circle cx="193" cy="72" r="6"/><circle cx="236" cy="72" r="6"/>
    <circle cx="21" cy="123" r="6"/><circle cx="64" cy="123" r="6"/><circle cx="107" cy="123" r="6"/><circle cx="150" cy="123" r="6"/><circle cx="193" cy="123" r="6"/><circle cx="236" cy="123" r="6"/>
    <circle cx="21" cy="174" r="6"/><circle cx="64" cy="174" r="6"/><circle cx="107" cy="174" r="6"/><circle cx="150" cy="174" r="6"/><circle cx="193" cy="174" r="6"/><circle cx="236" cy="174" r="6"/>
    <circle cx="21" cy="225" r="6"/><circle cx="64" cy="225" r="6"/><circle cx="107" cy="225" r="6"/><circle cx="150" cy="225" r="6"/><circle cx="193" cy="225" r="6"/><circle cx="236" cy="225" r="6"/>
  </g>
</svg>
